%TF.GenerationSoftware,KiCad,Pcbnew,8.0.3*%
%TF.CreationDate,2024-07-13T16:10:19+00:00*%
%TF.ProjectId,jacuzzi,6a616375-7a7a-4692-9e6b-696361645f70,rev?*%
%TF.SameCoordinates,Original*%
%TF.FileFunction,Copper,L1,Top*%
%TF.FilePolarity,Positive*%
%FSLAX46Y46*%
G04 Gerber Fmt 4.6, Leading zero omitted, Abs format (unit mm)*
G04 Created by KiCad (PCBNEW 8.0.3) date 2024-07-13 16:10:19*
%MOMM*%
%LPD*%
G01*
G04 APERTURE LIST*
G04 Aperture macros list*
%AMRoundRect*
0 Rectangle with rounded corners*
0 $1 Rounding radius*
0 $2 $3 $4 $5 $6 $7 $8 $9 X,Y pos of 4 corners*
0 Add a 4 corners polygon primitive as box body*
4,1,4,$2,$3,$4,$5,$6,$7,$8,$9,$2,$3,0*
0 Add four circle primitives for the rounded corners*
1,1,$1+$1,$2,$3*
1,1,$1+$1,$4,$5*
1,1,$1+$1,$6,$7*
1,1,$1+$1,$8,$9*
0 Add four rect primitives between the rounded corners*
20,1,$1+$1,$2,$3,$4,$5,0*
20,1,$1+$1,$4,$5,$6,$7,0*
20,1,$1+$1,$6,$7,$8,$9,0*
20,1,$1+$1,$8,$9,$2,$3,0*%
G04 Aperture macros list end*
%TA.AperFunction,SMDPad,CuDef*%
%ADD10RoundRect,0.150000X0.587500X0.150000X-0.587500X0.150000X-0.587500X-0.150000X0.587500X-0.150000X0*%
%TD*%
%TA.AperFunction,ComponentPad*%
%ADD11R,2.500000X2.500000*%
%TD*%
%TA.AperFunction,ComponentPad*%
%ADD12O,2.500000X2.500000*%
%TD*%
%TA.AperFunction,SMDPad,CuDef*%
%ADD13RoundRect,0.150000X-0.587500X-0.150000X0.587500X-0.150000X0.587500X0.150000X-0.587500X0.150000X0*%
%TD*%
%TA.AperFunction,SMDPad,CuDef*%
%ADD14R,9.800000X14.700000*%
%TD*%
%TA.AperFunction,SMDPad,CuDef*%
%ADD15R,1.000000X2.510000*%
%TD*%
%TA.AperFunction,ComponentPad*%
%ADD16RoundRect,0.250000X-0.650000X-1.550000X0.650000X-1.550000X0.650000X1.550000X-0.650000X1.550000X0*%
%TD*%
%TA.AperFunction,ComponentPad*%
%ADD17O,1.800000X3.600000*%
%TD*%
%TA.AperFunction,SMDPad,CuDef*%
%ADD18RoundRect,0.150000X0.150000X0.625000X-0.150000X0.625000X-0.150000X-0.625000X0.150000X-0.625000X0*%
%TD*%
%TA.AperFunction,SMDPad,CuDef*%
%ADD19RoundRect,0.250000X0.350000X0.650000X-0.350000X0.650000X-0.350000X-0.650000X0.350000X-0.650000X0*%
%TD*%
%TA.AperFunction,ComponentPad*%
%ADD20R,1.530000X1.530000*%
%TD*%
%TA.AperFunction,ComponentPad*%
%ADD21C,1.530000*%
%TD*%
%TA.AperFunction,SMDPad,CuDef*%
%ADD22RoundRect,0.250000X-0.262500X-0.450000X0.262500X-0.450000X0.262500X0.450000X-0.262500X0.450000X0*%
%TD*%
%TA.AperFunction,SMDPad,CuDef*%
%ADD23RoundRect,0.243750X0.456250X-0.243750X0.456250X0.243750X-0.456250X0.243750X-0.456250X-0.243750X0*%
%TD*%
%TA.AperFunction,SMDPad,CuDef*%
%ADD24RoundRect,0.243750X-0.456250X0.243750X-0.456250X-0.243750X0.456250X-0.243750X0.456250X0.243750X0*%
%TD*%
%TA.AperFunction,ComponentPad*%
%ADD25R,1.508000X1.508000*%
%TD*%
%TA.AperFunction,ComponentPad*%
%ADD26C,1.508000*%
%TD*%
%TA.AperFunction,ComponentPad*%
%ADD27C,3.000000*%
%TD*%
%TA.AperFunction,ComponentPad*%
%ADD28R,1.700000X1.700000*%
%TD*%
%TA.AperFunction,ComponentPad*%
%ADD29O,1.700000X1.700000*%
%TD*%
%TA.AperFunction,SMDPad,CuDef*%
%ADD30RoundRect,0.250000X0.262500X0.450000X-0.262500X0.450000X-0.262500X-0.450000X0.262500X-0.450000X0*%
%TD*%
%TA.AperFunction,SMDPad,CuDef*%
%ADD31RoundRect,0.175000X0.175000X0.425000X-0.175000X0.425000X-0.175000X-0.425000X0.175000X-0.425000X0*%
%TD*%
%TA.AperFunction,SMDPad,CuDef*%
%ADD32RoundRect,0.190000X-0.190000X-0.410000X0.190000X-0.410000X0.190000X0.410000X-0.190000X0.410000X0*%
%TD*%
%TA.AperFunction,SMDPad,CuDef*%
%ADD33RoundRect,0.200000X-0.200000X-0.400000X0.200000X-0.400000X0.200000X0.400000X-0.200000X0.400000X0*%
%TD*%
%TA.AperFunction,SMDPad,CuDef*%
%ADD34RoundRect,0.175000X-0.175000X-0.425000X0.175000X-0.425000X0.175000X0.425000X-0.175000X0.425000X0*%
%TD*%
%TA.AperFunction,SMDPad,CuDef*%
%ADD35RoundRect,0.190000X0.190000X0.410000X-0.190000X0.410000X-0.190000X-0.410000X0.190000X-0.410000X0*%
%TD*%
%TA.AperFunction,SMDPad,CuDef*%
%ADD36RoundRect,0.200000X0.200000X0.400000X-0.200000X0.400000X-0.200000X-0.400000X0.200000X-0.400000X0*%
%TD*%
%TA.AperFunction,SMDPad,CuDef*%
%ADD37RoundRect,0.250000X0.650000X0.425000X-0.650000X0.425000X-0.650000X-0.425000X0.650000X-0.425000X0*%
%TD*%
%TA.AperFunction,SMDPad,CuDef*%
%ADD38RoundRect,0.250000X0.650000X0.500000X-0.650000X0.500000X-0.650000X-0.500000X0.650000X-0.500000X0*%
%TD*%
%TA.AperFunction,ViaPad*%
%ADD39C,0.600000*%
%TD*%
%TA.AperFunction,Conductor*%
%ADD40C,0.200000*%
%TD*%
G04 APERTURE END LIST*
D10*
%TO.P,D9,1,A*%
%TO.N,GND*%
X146937500Y-55950000D03*
%TO.P,D9,2,K*%
%TO.N,+3.3V*%
X146937500Y-54050000D03*
%TO.P,D9,3,COM*%
%TO.N,/GPIO_I2C_SCL*%
X145062500Y-55000000D03*
%TD*%
D11*
%TO.P,K1,1*%
%TO.N,/TubValve_V*%
X82810000Y-99500000D03*
D12*
%TO.P,K1,2*%
%TO.N,/GPIO_TubValve*%
X76810000Y-101500000D03*
%TO.P,K1,3*%
%TO.N,/TubValve_NO*%
X76810000Y-113700000D03*
%TO.P,K1,4*%
%TO.N,/TubValve_NC*%
X88810000Y-113700000D03*
%TO.P,K1,5*%
%TO.N,GND*%
X88810000Y-101500000D03*
%TD*%
D10*
%TO.P,D19,1,A*%
%TO.N,GND*%
X140810000Y-92400000D03*
%TO.P,D19,2,K*%
%TO.N,+3.3V*%
X140810000Y-90500000D03*
%TO.P,D19,3,COM*%
%TO.N,/GPIO10*%
X138935000Y-91450000D03*
%TD*%
D13*
%TO.P,D8,1,A*%
%TO.N,GND*%
X146935000Y-69550000D03*
%TO.P,D8,2,K*%
%TO.N,+3.3V*%
X146935000Y-71450000D03*
%TO.P,D8,3,COM*%
%TO.N,/GPIO_I2C_SDA*%
X148810000Y-70500000D03*
%TD*%
D14*
%TO.P,J14,1,Pin_1*%
%TO.N,/GPIO_ADC5*%
X184660000Y-86450000D03*
%TD*%
D15*
%TO.P,J11,1,Pin_1*%
%TO.N,Net-(J11-Pin_1)*%
X75270000Y-75155000D03*
%TO.P,J11,2,Pin_2*%
%TO.N,VS*%
X77810000Y-71845000D03*
%TO.P,J11,3,Pin_3*%
%TO.N,+5V*%
X80350000Y-75155000D03*
%TD*%
D16*
%TO.P,J3,1,Pin_1*%
%TO.N,/TubValve_NO*%
X77650000Y-129500000D03*
D17*
%TO.P,J3,2,Pin_2*%
%TO.N,/TubValve_V*%
X82730000Y-129500000D03*
%TO.P,J3,3,Pin_3*%
%TO.N,/TubValve_NC*%
X87810000Y-129500000D03*
%TD*%
D18*
%TO.P,J4,1,Pin_1*%
%TO.N,+3.3V*%
X140500000Y-54000000D03*
%TO.P,J4,2,Pin_2*%
%TO.N,GND*%
X139500000Y-54000000D03*
%TO.P,J4,3,Pin_3*%
%TO.N,/GPIO_I2C_SDA*%
X138500000Y-54000000D03*
%TO.P,J4,4,Pin_4*%
%TO.N,/GPIO_I2C_SCL*%
X137500000Y-54000000D03*
D19*
%TO.P,J4,MP*%
%TO.N,N/C*%
X141800000Y-50125000D03*
X136200000Y-50125000D03*
%TD*%
D13*
%TO.P,D22,1,A*%
%TO.N,GND*%
X146810000Y-77550000D03*
%TO.P,D22,2,K*%
%TO.N,+3.3V*%
X146810000Y-79450000D03*
%TO.P,D22,3,COM*%
%TO.N,/GPIO_ADC5*%
X148685000Y-78500000D03*
%TD*%
D20*
%TO.P,U3,1,3V3*%
%TO.N,+3.3V*%
X130410000Y-49500000D03*
D21*
%TO.P,U3,2,EN*%
%TO.N,unconnected-(U3-EN-Pad2)*%
X130410000Y-52040000D03*
%TO.P,U3,3,SENSOR_VP*%
%TO.N,unconnected-(U3-SENSOR_VP-Pad3)*%
X130410000Y-54580000D03*
%TO.P,U3,4,SENSOR_VN*%
%TO.N,unconnected-(U3-SENSOR_VN-Pad4)*%
X130410000Y-57120000D03*
%TO.P,U3,5,IO34*%
%TO.N,/GPIO_BallValveOpen_Feedback*%
X130410000Y-59660000D03*
%TO.P,U3,6,IO35*%
%TO.N,/GPIO_BallValveClose_Feedback*%
X130410000Y-62200000D03*
%TO.P,U3,7,IO32*%
%TO.N,/GPIO_TubValve*%
X130410000Y-64740000D03*
%TO.P,U3,8,IO33*%
%TO.N,/GPIO_BallValveOpen*%
X130410000Y-67280000D03*
%TO.P,U3,9,IO25*%
%TO.N,/GPIO_BallValveClose*%
X130410000Y-69820000D03*
%TO.P,U3,10,IO26*%
%TO.N,unconnected-(U3-IO26-Pad10)*%
X130410000Y-72360000D03*
%TO.P,U3,11,IO27*%
%TO.N,/GPIO_ADC1*%
X130410000Y-74900000D03*
%TO.P,U3,12,IO14*%
%TO.N,/GPIO_ADC2*%
X130410000Y-77440000D03*
%TO.P,U3,13,IO12*%
%TO.N,/GPIO_ADC3*%
X130410000Y-79980000D03*
%TO.P,U3,14,GND1*%
%TO.N,GND*%
X130410000Y-82520000D03*
%TO.P,U3,15,IO13*%
%TO.N,/GPIO_ADC4*%
X130410000Y-85060000D03*
%TO.P,U3,16,SD2*%
%TO.N,/GPIO9*%
X130410000Y-87600000D03*
%TO.P,U3,17,SD3*%
%TO.N,/GPIO10*%
X130410000Y-90140000D03*
%TO.P,U3,18,CMD*%
%TO.N,unconnected-(U3-CMD-Pad18)*%
X130410000Y-92680000D03*
%TO.P,U3,19,EXT_5V*%
%TO.N,unconnected-(U3-EXT_5V-Pad19)*%
X130410000Y-95220000D03*
%TO.P,U3,20,CLK*%
%TO.N,unconnected-(U3-CLK-Pad20)*%
X155810000Y-95220000D03*
%TO.P,U3,21,SD0*%
%TO.N,unconnected-(U3-SD0-Pad21)*%
X155810000Y-92680000D03*
%TO.P,U3,22,SD1*%
%TO.N,unconnected-(U3-SD1-Pad22)*%
X155810000Y-90140000D03*
%TO.P,U3,23,IO15*%
%TO.N,/GPIO_ADC8*%
X155810000Y-87600000D03*
%TO.P,U3,24,IO2*%
%TO.N,/GPIO_ADC7*%
X155810000Y-85060000D03*
%TO.P,U3,25,IO0*%
%TO.N,/GPIO_ADC6*%
X155810000Y-82520000D03*
%TO.P,U3,26,IO4*%
%TO.N,/GPIO_ADC5*%
X155810000Y-79980000D03*
%TO.P,U3,27,IO16*%
%TO.N,/GPIO_Dallas2*%
X155810000Y-77440000D03*
%TO.P,U3,28,IO17*%
%TO.N,/GPIO_Dallas1*%
X155810000Y-74900000D03*
%TO.P,U3,29,IO5*%
%TO.N,unconnected-(U3-IO5-Pad29)*%
X155810000Y-72360000D03*
%TO.P,U3,30,IO18*%
%TO.N,/GPIO_Servo*%
X155810000Y-69820000D03*
%TO.P,U3,31,IO19*%
%TO.N,unconnected-(U3-IO19-Pad31)*%
X155810000Y-67280000D03*
%TO.P,U3,32,GND2*%
%TO.N,GND*%
X155810000Y-64740000D03*
%TO.P,U3,33,IO21*%
%TO.N,/GPIO_I2C_SDA*%
X155810000Y-62200000D03*
%TO.P,U3,34,RXD0*%
%TO.N,unconnected-(U3-RXD0-Pad34)*%
X155810000Y-59660000D03*
%TO.P,U3,35,TXD0*%
%TO.N,unconnected-(U3-TXD0-Pad35)*%
X155810000Y-57120000D03*
%TO.P,U3,36,IO22*%
%TO.N,/GPIO_I2C_SCL*%
X155810000Y-54580000D03*
%TO.P,U3,37,IO23*%
%TO.N,unconnected-(U3-IO23-Pad37)*%
X155810000Y-52040000D03*
%TO.P,U3,38,GND3*%
%TO.N,GND*%
X155810000Y-49500000D03*
%TD*%
D22*
%TO.P,R9,1*%
%TO.N,+3.3V*%
X145087500Y-62000000D03*
%TO.P,R9,2*%
%TO.N,/GPIO_I2C_SDA*%
X146912500Y-62000000D03*
%TD*%
D10*
%TO.P,D18,1,A*%
%TO.N,GND*%
X140810000Y-88400000D03*
%TO.P,D18,2,K*%
%TO.N,+3.3V*%
X140810000Y-86500000D03*
%TO.P,D18,3,COM*%
%TO.N,/GPIO9*%
X138935000Y-87450000D03*
%TD*%
D14*
%TO.P,J15,1,Pin_1*%
%TO.N,/GPIO_ADC7*%
X206560000Y-108950000D03*
%TD*%
D23*
%TO.P,D13,1,K*%
%TO.N,GND*%
X128535000Y-122500000D03*
%TO.P,D13,2,A*%
%TO.N,Net-(D12-COM)*%
X128535000Y-120625000D03*
%TD*%
D22*
%TO.P,R10,1*%
%TO.N,+3.3V*%
X145087500Y-59000000D03*
%TO.P,R10,2*%
%TO.N,/GPIO_I2C_SCL*%
X146912500Y-59000000D03*
%TD*%
D23*
%TO.P,D11,1,K*%
%TO.N,GND*%
X124585000Y-122500000D03*
%TO.P,D11,2,A*%
%TO.N,Net-(D10-COM)*%
X124585000Y-120625000D03*
%TD*%
D16*
%TO.P,J1,1,Pin_1*%
%TO.N,/BallValveOpen*%
X107585000Y-129500000D03*
D17*
%TO.P,J1,2,Pin_2*%
%TO.N,/BallValveClose*%
X111395000Y-129500000D03*
%TO.P,J1,3,Pin_3*%
%TO.N,GND*%
X115205000Y-129500000D03*
%TD*%
D16*
%TO.P,J5,1,Pin_1*%
%TO.N,+5V*%
X160965000Y-129500000D03*
D17*
%TO.P,J5,2,Pin_2*%
%TO.N,/GPIO_Dallas1*%
X164775000Y-129500000D03*
%TO.P,J5,3,Pin_3*%
%TO.N,GND*%
X168585000Y-129500000D03*
%TD*%
D14*
%TO.P,J16,1,Pin_1*%
%TO.N,/GPIO_ADC8*%
X206660000Y-86450000D03*
%TD*%
D24*
%TO.P,D2,1,K*%
%TO.N,Net-(D2-K)*%
X107585000Y-121625000D03*
%TO.P,D2,2,A*%
%TO.N,/BallValveOpen*%
X107585000Y-123500000D03*
%TD*%
D16*
%TO.P,J7,1,Pin_1*%
%TO.N,/BallValveOpen_Feedback*%
X124725000Y-129625000D03*
D17*
%TO.P,J7,2,Pin_2*%
%TO.N,/BallValveClose_Feedback*%
X128535000Y-129625000D03*
%TD*%
D10*
%TO.P,D15,1,A*%
%TO.N,GND*%
X140810000Y-80450000D03*
%TO.P,D15,2,K*%
%TO.N,+3.3V*%
X140810000Y-78550000D03*
%TO.P,D15,3,COM*%
%TO.N,/GPIO_ADC3*%
X138935000Y-79500000D03*
%TD*%
%TO.P,D17,1,A*%
%TO.N,GND*%
X140810000Y-84400000D03*
%TO.P,D17,2,K*%
%TO.N,+3.3V*%
X140810000Y-82500000D03*
%TO.P,D17,3,COM*%
%TO.N,/GPIO_ADC4*%
X138935000Y-83450000D03*
%TD*%
D14*
%TO.P,J13,1,Pin_1*%
%TO.N,/GPIO_ADC6*%
X165960000Y-86280000D03*
%TD*%
D13*
%TO.P,D24,1,A*%
%TO.N,GND*%
X146810000Y-73500000D03*
%TO.P,D24,2,K*%
%TO.N,+3.3V*%
X146810000Y-75400000D03*
%TO.P,D24,3,COM*%
%TO.N,/GPIO_Servo*%
X148685000Y-74450000D03*
%TD*%
%TO.P,D25,1,A*%
%TO.N,GND*%
X146810000Y-81450000D03*
%TO.P,D25,2,K*%
%TO.N,+3.3V*%
X146810000Y-83350000D03*
%TO.P,D25,3,COM*%
%TO.N,/GPIO_ADC6*%
X148685000Y-82400000D03*
%TD*%
D25*
%TO.P,U4,1,GND*%
%TO.N,GND*%
X180000000Y-50000000D03*
D26*
%TO.P,U4,2,VCC_IN*%
%TO.N,+5V*%
X182540000Y-50000000D03*
%TO.P,U4,3,SCL*%
%TO.N,/GPIO_I2C_SCL*%
X185080000Y-50000000D03*
%TO.P,U4,4,SDA*%
%TO.N,/GPIO_I2C_SDA*%
X187620000Y-50000000D03*
D27*
%TO.P,U4,S1*%
%TO.N,N/C*%
X172810000Y-50500000D03*
%TO.P,U4,S2*%
X194810000Y-50500000D03*
%TO.P,U4,S3*%
X194810000Y-72500000D03*
%TO.P,U4,S4*%
X172810000Y-72500000D03*
%TD*%
D10*
%TO.P,D16,1,A*%
%TO.N,GND*%
X140810000Y-76400000D03*
%TO.P,D16,2,K*%
%TO.N,+3.3V*%
X140810000Y-74500000D03*
%TO.P,D16,3,COM*%
%TO.N,/GPIO_ADC2*%
X138935000Y-75450000D03*
%TD*%
D28*
%TO.P,J8,1,Pin_1*%
%TO.N,+3.3V*%
X121810000Y-76500000D03*
D29*
%TO.P,J8,2,Pin_2*%
%TO.N,/GPIO_ADC1*%
X121810000Y-79040000D03*
%TO.P,J8,3,Pin_3*%
%TO.N,/GPIO_ADC2*%
X121810000Y-81580000D03*
%TO.P,J8,4,Pin_4*%
%TO.N,/GPIO_ADC3*%
X121810000Y-84120000D03*
%TO.P,J8,5,Pin_5*%
%TO.N,/GPIO_ADC4*%
X121810000Y-86660000D03*
%TO.P,J8,6,Pin_6*%
%TO.N,/GPIO9*%
X121810000Y-89200000D03*
%TO.P,J8,7,Pin_7*%
%TO.N,/GPIO10*%
X121810000Y-91740000D03*
%TO.P,J8,8,Pin_8*%
%TO.N,GND*%
X121810000Y-94280000D03*
%TD*%
D16*
%TO.P,J6,1,Pin_1*%
%TO.N,+5V*%
X177965000Y-129500000D03*
D17*
%TO.P,J6,2,Pin_2*%
%TO.N,/GPIO_Dallas2*%
X181775000Y-129500000D03*
%TO.P,J6,3,Pin_3*%
%TO.N,GND*%
X185585000Y-129500000D03*
%TD*%
D30*
%TO.P,R27,1*%
%TO.N,/GPIO_Servo*%
X148635000Y-67500000D03*
%TO.P,R27,2*%
%TO.N,GND*%
X146810000Y-67500000D03*
%TD*%
D31*
%TO.P,J9,A5,CC1*%
%TO.N,Net-(J9-CC1)*%
X98435000Y-54555000D03*
D32*
%TO.P,J9,A9,VBUS*%
%TO.N,VS*%
X96415000Y-54555000D03*
D33*
%TO.P,J9,A12,GND*%
%TO.N,GND*%
X95185000Y-54555000D03*
D34*
%TO.P,J9,B5,CC2*%
%TO.N,Net-(J9-CC2)*%
X97435000Y-54555000D03*
D35*
%TO.P,J9,B9,VBUS*%
%TO.N,VS*%
X99455000Y-54555000D03*
D36*
%TO.P,J9,B12,GND*%
%TO.N,GND*%
X100685000Y-54555000D03*
D37*
%TO.P,J9,S1,SHIELD*%
X103060000Y-54500000D03*
D38*
X103060000Y-50920000D03*
D37*
X92810000Y-54500000D03*
D38*
X92810000Y-50920000D03*
%TD*%
D16*
%TO.P,J10,1,Pin_1*%
%TO.N,VS*%
X81000000Y-52500000D03*
D17*
%TO.P,J10,2,Pin_2*%
%TO.N,GND*%
X84810000Y-52500000D03*
%TD*%
D13*
%TO.P,D23,1,A*%
%TO.N,GND*%
X146935000Y-85450000D03*
%TO.P,D23,2,K*%
%TO.N,+3.3V*%
X146935000Y-87350000D03*
%TO.P,D23,3,COM*%
%TO.N,/GPIO_ADC7*%
X148810000Y-86400000D03*
%TD*%
D10*
%TO.P,D14,1,A*%
%TO.N,GND*%
X140810000Y-72400000D03*
%TO.P,D14,2,K*%
%TO.N,+3.3V*%
X140810000Y-70500000D03*
%TO.P,D14,3,COM*%
%TO.N,/GPIO_ADC1*%
X138935000Y-71450000D03*
%TD*%
D13*
%TO.P,D26,1,A*%
%TO.N,GND*%
X146935000Y-89450000D03*
%TO.P,D26,2,K*%
%TO.N,+3.3V*%
X146935000Y-91350000D03*
%TO.P,D26,3,COM*%
%TO.N,/GPIO_ADC8*%
X148810000Y-90400000D03*
%TD*%
D24*
%TO.P,D4,1,K*%
%TO.N,Net-(D4-K)*%
X111585000Y-121687500D03*
%TO.P,D4,2,A*%
%TO.N,/BallValveClose*%
X111585000Y-123562500D03*
%TD*%
D16*
%TO.P,J2,1,Pin_1*%
%TO.N,+5V*%
X141775000Y-129500000D03*
D17*
%TO.P,J2,2,Pin_2*%
%TO.N,/GPIO_Servo*%
X145585000Y-129500000D03*
%TO.P,J2,3,Pin_3*%
%TO.N,GND*%
X149395000Y-129500000D03*
%TD*%
D39*
%TO.N,VS*%
X98894500Y-55669500D03*
%TO.N,GND*%
X147282000Y-72692700D03*
%TO.N,Net-(J11-Pin_1)*%
X76451700Y-76711700D03*
%TO.N,+5V*%
X79329000Y-75290200D03*
X108576000Y-102532000D03*
X137732000Y-102532000D03*
%TO.N,Net-(D2-K)*%
X107585000Y-120621000D03*
%TO.N,Net-(D4-K)*%
X140793000Y-107077000D03*
%TO.N,+3.3V*%
X153586000Y-118364000D03*
X163813000Y-117670000D03*
X155739000Y-117673000D03*
X151500000Y-101223000D03*
%TO.N,/GPIO_I2C_SCL*%
X137945300Y-55292300D03*
%TO.N,Net-(D10-COM)*%
X144875000Y-121562000D03*
%TO.N,Net-(D12-COM)*%
X150808000Y-108466000D03*
%TO.N,/BallValveClose_Feedback*%
X148501000Y-113355000D03*
%TO.N,Net-(J9-CC2)*%
X97435000Y-53423700D03*
%TO.N,Net-(J9-CC1)*%
X98462500Y-53450000D03*
%TO.N,/GPIO_BallValveOpen*%
X106784000Y-104196000D03*
%TO.N,/GPIO_ADC8*%
X171541000Y-93765800D03*
%TD*%
D40*
%TO.N,VS*%
X98894500Y-55476200D02*
X98894500Y-55669500D01*
X95723000Y-55510900D02*
X84010900Y-55510900D01*
X96415000Y-54818900D02*
X95723000Y-55510900D01*
X84010900Y-55510900D02*
X81000000Y-52500000D01*
X78611700Y-71845000D02*
X78611700Y-60910100D01*
X99455000Y-54915700D02*
X98894500Y-55476200D01*
X99455000Y-54555000D02*
X99455000Y-54915700D01*
X77810000Y-71845000D02*
X78611700Y-71845000D01*
X98894500Y-55476200D02*
X97072300Y-55476200D01*
X96415000Y-54818900D02*
X96415000Y-54555000D01*
X97072300Y-55476200D02*
X96415000Y-54818900D01*
X78611700Y-60910100D02*
X84010900Y-55510900D01*
%TO.N,GND*%
X140810000Y-72400000D02*
X140810000Y-73500000D01*
X146810000Y-73164200D02*
X147282000Y-72692700D01*
X146050000Y-80689500D02*
X146810000Y-81450000D01*
X140810000Y-85450000D02*
X140466000Y-85450000D01*
X168585000Y-129500000D02*
X167383000Y-129500000D01*
X139725000Y-77156100D02*
X140481000Y-76400000D01*
X146137000Y-88652000D02*
X146935000Y-89450000D01*
X140810000Y-80689500D02*
X146050000Y-80689500D01*
X139500000Y-54276600D02*
X139500000Y-54000000D01*
X140481000Y-75558500D02*
X140481000Y-76400000D01*
X127312000Y-131095000D02*
X127995000Y-131777000D01*
X139382000Y-82519200D02*
X140810000Y-83946900D01*
X148193000Y-129500000D02*
X149395000Y-129500000D01*
X139500000Y-54276600D02*
X139500000Y-54414700D01*
X100740000Y-54500000D02*
X100685000Y-54555000D01*
X140810000Y-83946900D02*
X140810000Y-84400000D01*
X146810000Y-73500000D02*
X140810000Y-73500000D01*
X115205000Y-129500000D02*
X116407000Y-129500000D01*
X140810000Y-91937500D02*
X139760000Y-90888000D01*
X167383000Y-129500000D02*
X165260000Y-131623000D01*
X124585000Y-122500000D02*
X127312000Y-122500000D01*
X171910000Y-131623000D02*
X169787000Y-129500000D01*
X140481000Y-76400000D02*
X140810000Y-76400000D01*
X103060000Y-54500000D02*
X100740000Y-54500000D01*
X148260000Y-64740000D02*
X146935000Y-66065000D01*
X140810000Y-88400000D02*
X140810000Y-88652000D01*
X127995000Y-131777000D02*
X145916000Y-131777000D01*
X145660000Y-76400000D02*
X146810000Y-77550000D01*
X139725000Y-78852400D02*
X139725000Y-77156100D01*
X91230000Y-52500000D02*
X92810000Y-50920000D01*
X146935000Y-67500000D02*
X146810000Y-67500000D01*
X139752000Y-86163900D02*
X139752000Y-86854700D01*
X146935000Y-67500000D02*
X146935000Y-69550000D01*
X140810000Y-79937400D02*
X139725000Y-78852400D01*
X140404000Y-73500000D02*
X139725000Y-74178500D01*
X145837900Y-54387900D02*
X146937500Y-55487500D01*
X155810000Y-49500000D02*
X149822500Y-55487500D01*
X123407000Y-122500000D02*
X124585000Y-122500000D01*
X84810000Y-52500000D02*
X91230000Y-52500000D01*
X146810000Y-73500000D02*
X146810000Y-73164200D01*
X91230000Y-52500000D02*
X92810000Y-54080000D01*
X95130000Y-54500000D02*
X95185000Y-54555000D01*
X140810000Y-80450000D02*
X140810000Y-79937400D01*
X139760000Y-90888000D02*
X139760000Y-89701500D01*
X139760000Y-89701500D02*
X140810000Y-88652000D01*
X116407000Y-129500000D02*
X123407000Y-122500000D01*
X140810000Y-87912500D02*
X140810000Y-88400000D01*
X92810000Y-54080000D02*
X92810000Y-54500000D01*
X139382000Y-82519200D02*
X139382000Y-82117200D01*
X139500000Y-54423800D02*
X139500000Y-54276600D01*
X142489500Y-55113500D02*
X143215100Y-54387900D01*
X182260000Y-131623000D02*
X171910000Y-131623000D01*
X140810000Y-85450000D02*
X140810000Y-84400000D01*
X140466000Y-85450000D02*
X139752000Y-86163900D01*
X149822500Y-55487500D02*
X146937500Y-55487500D01*
X185585000Y-129500000D02*
X184383000Y-129500000D01*
X140810000Y-73500000D02*
X140404000Y-73500000D01*
X139725000Y-74802400D02*
X140481000Y-75558500D01*
X139382000Y-82520000D02*
X139382000Y-82519200D01*
X146937500Y-55487500D02*
X146937500Y-55950000D01*
X184383000Y-129500000D02*
X182260000Y-131623000D01*
X155810000Y-64740000D02*
X148260000Y-64740000D01*
X165260000Y-131623000D02*
X152720000Y-131623000D01*
X127312000Y-122500000D02*
X127312000Y-131095000D01*
X139752000Y-86854700D02*
X140810000Y-87912500D01*
X143215100Y-54387900D02*
X145837900Y-54387900D01*
X140810000Y-76400000D02*
X145660000Y-76400000D01*
X139725000Y-74178500D02*
X139725000Y-74802400D01*
X146935000Y-66065000D02*
X146935000Y-67500000D01*
X152720000Y-131623000D02*
X150597000Y-129500000D01*
X130410000Y-82520000D02*
X139382000Y-82520000D01*
X139500000Y-54414700D02*
X140198800Y-55113500D01*
X146935000Y-85450000D02*
X140810000Y-85450000D01*
X92810000Y-50920000D02*
X103060000Y-50920000D01*
X103060000Y-50920000D02*
X103060000Y-54500000D01*
X140810000Y-88652000D02*
X146137000Y-88652000D01*
X145916000Y-131777000D02*
X148193000Y-129500000D01*
X140810000Y-80689500D02*
X140810000Y-80450000D01*
X140810000Y-92400000D02*
X140810000Y-91937500D01*
X139382000Y-82117200D02*
X140810000Y-80689500D01*
X127312000Y-122500000D02*
X128535000Y-122500000D01*
X92810000Y-54500000D02*
X95130000Y-54500000D01*
X150597000Y-129500000D02*
X149395000Y-129500000D01*
X140198800Y-55113500D02*
X142489500Y-55113500D01*
X169787000Y-129500000D02*
X168585000Y-129500000D01*
%TO.N,Net-(J11-Pin_1)*%
X75270000Y-76711700D02*
X76451700Y-76711700D01*
X75270000Y-75155000D02*
X75270000Y-76711700D01*
%TO.N,+5V*%
X175863000Y-127398000D02*
X163067000Y-127398000D01*
X79413100Y-75290200D02*
X79548300Y-75155000D01*
X143884000Y-127390000D02*
X158856000Y-127390000D01*
X79329000Y-75290200D02*
X79413100Y-75290200D01*
X141775000Y-129500000D02*
X143884000Y-127390000D01*
X158856000Y-127390000D02*
X160965000Y-129500000D01*
X79548300Y-75155000D02*
X80350000Y-75155000D01*
X177965000Y-129500000D02*
X175863000Y-127398000D01*
X108576000Y-102532000D02*
X137732000Y-102532000D01*
X163067000Y-127398000D02*
X160965000Y-129500000D01*
%TO.N,/BallValveOpen*%
X107585000Y-123500000D02*
X107585000Y-129500000D01*
%TO.N,Net-(D2-K)*%
X107585000Y-120621000D02*
X107585000Y-121625000D01*
%TO.N,/BallValveClose*%
X111443000Y-123704000D02*
X111490000Y-123657000D01*
X111395000Y-129500000D02*
X111395000Y-123752000D01*
X111549500Y-123598000D02*
X111585000Y-123562500D01*
X111490000Y-123657000D02*
X111514000Y-123634000D01*
X111549500Y-123598000D02*
X111585000Y-123562000D01*
X111442000Y-123704000D02*
X111443000Y-123704000D01*
X111514000Y-123634000D02*
X111538000Y-123610000D01*
X111514000Y-123634000D02*
X111549500Y-123598000D01*
X111395000Y-123752000D02*
X111442000Y-123704000D01*
X111442000Y-123704000D02*
X111490000Y-123657000D01*
%TO.N,Net-(D4-K)*%
X111776000Y-121498000D02*
X111680000Y-121593000D01*
X113110000Y-120163000D02*
X111966000Y-121307000D01*
X111596500Y-121676000D02*
X111585000Y-121687500D01*
X117685000Y-115588000D02*
X117684000Y-115588000D01*
X114634000Y-118638000D02*
X113110000Y-120163000D01*
X111585000Y-121688000D02*
X111609000Y-121664000D01*
X114634000Y-118638000D02*
X113110000Y-120163000D01*
X117684000Y-115588000D02*
X114634000Y-118638000D01*
X111609000Y-121664000D02*
X111608000Y-121664000D01*
X126196000Y-107077000D02*
X117685000Y-115588000D01*
X111966000Y-121307000D02*
X111776000Y-121498000D01*
X111608000Y-121664000D02*
X111596500Y-121676000D01*
X140793000Y-107077000D02*
X126196000Y-107077000D01*
X111596500Y-121676000D02*
X111585000Y-121688000D01*
X111680000Y-121593000D02*
X111609000Y-121664000D01*
X113110000Y-120163000D02*
X117685000Y-115588000D01*
%TO.N,/GPIO_TubValve*%
X78361700Y-101500000D02*
X78361700Y-101018000D01*
X78361700Y-101018000D02*
X114640000Y-64740000D01*
X114640000Y-64740000D02*
X130410000Y-64740000D01*
X76810000Y-101500000D02*
X78361700Y-101500000D01*
%TO.N,+3.3V*%
X146810000Y-79450000D02*
X147901000Y-80540800D01*
X140810000Y-74500000D02*
X146779000Y-74500000D01*
X140802200Y-59000000D02*
X145087500Y-59000000D01*
X136886600Y-53198600D02*
X136886600Y-55084400D01*
X121810000Y-76500000D02*
X122962000Y-76500000D01*
X146810000Y-78550000D02*
X147198000Y-78550000D01*
X147167000Y-74530900D02*
X147887000Y-73810500D01*
X155739000Y-117673000D02*
X153586000Y-117673000D01*
X147895000Y-76485000D02*
X146810000Y-75400000D01*
X148026000Y-89796600D02*
X146935000Y-90887400D01*
X149228000Y-76485000D02*
X147895000Y-76485000D01*
X146422000Y-82500000D02*
X146810000Y-82887500D01*
X145493000Y-70500000D02*
X146443000Y-71450000D01*
X153586000Y-103308000D02*
X153586000Y-117673000D01*
X156266000Y-70886700D02*
X154826000Y-70886700D01*
X136886600Y-53198600D02*
X133188000Y-49500000D01*
X146816100Y-53928600D02*
X146937500Y-54050000D01*
X163813000Y-117670000D02*
X155742000Y-117670000D01*
X146548000Y-90500000D02*
X146935000Y-90887400D01*
X147198000Y-78550000D02*
X147895000Y-77852500D01*
X146935000Y-86505900D02*
X146935000Y-87350000D01*
X140500000Y-53494900D02*
X140500000Y-54000000D01*
X146929000Y-86500000D02*
X146935000Y-86505900D01*
X137452000Y-70500000D02*
X140810000Y-70500000D01*
X151500000Y-101223000D02*
X153586000Y-103308000D01*
X137192100Y-52893100D02*
X139898200Y-52893100D01*
X147887000Y-72402000D02*
X146935000Y-71450000D01*
X140571400Y-53928600D02*
X146816100Y-53928600D01*
X136886600Y-55084400D02*
X140802200Y-59000000D01*
X136886600Y-53198600D02*
X137192100Y-52893100D01*
X140500000Y-54000000D02*
X140571400Y-53928600D01*
X146810000Y-82887500D02*
X146810000Y-83350000D01*
X139898200Y-52893100D02*
X140500000Y-53494900D01*
X146443000Y-71450000D02*
X146935000Y-71450000D01*
X146779000Y-74500000D02*
X146810000Y-74530900D01*
X128412000Y-71049400D02*
X136902000Y-71049400D01*
X146935000Y-90887400D02*
X146935000Y-91350000D01*
X151500000Y-95915500D02*
X151500000Y-101223000D01*
X147887000Y-73810500D02*
X147887000Y-72402000D01*
X146810000Y-74530900D02*
X146810000Y-75400000D01*
X146935000Y-91350000D02*
X151500000Y-95915500D01*
X140810000Y-90500000D02*
X146548000Y-90500000D01*
X146935000Y-86505900D02*
X147267000Y-86505900D01*
X145087500Y-59000000D02*
X145087500Y-62000000D01*
X147895000Y-77852500D02*
X147895000Y-76485000D01*
X147267000Y-86505900D02*
X147982000Y-85791000D01*
X145493000Y-70500000D02*
X140810000Y-70500000D01*
X146810000Y-74530900D02*
X147167000Y-74530900D01*
X148026000Y-88440800D02*
X148026000Y-89796600D01*
X147901000Y-81796700D02*
X146810000Y-82887500D01*
X140810000Y-82500000D02*
X146422000Y-82500000D01*
X146935000Y-87350000D02*
X148026000Y-88440800D01*
X147982000Y-85791000D02*
X147982000Y-84521500D01*
X133188000Y-49500000D02*
X131477000Y-49500000D01*
X140810000Y-78550000D02*
X146810000Y-78550000D01*
X145087500Y-62000000D02*
X145493000Y-62405500D01*
X130410000Y-49500000D02*
X131477000Y-49500000D01*
X140810000Y-86500000D02*
X146929000Y-86500000D01*
X145493000Y-64810900D02*
X145493000Y-70500000D01*
X136902000Y-71049400D02*
X137452000Y-70500000D01*
X146810000Y-78550000D02*
X146810000Y-79450000D01*
X153586000Y-117673000D02*
X153586000Y-118364000D01*
X122962000Y-76500000D02*
X128412000Y-71049400D01*
X145493000Y-62405500D02*
X145493000Y-64810900D01*
X154826000Y-70886700D02*
X149228000Y-76485000D01*
X155742000Y-117670000D02*
X155739000Y-117673000D01*
X147982000Y-84521500D02*
X146810000Y-83350000D01*
X147901000Y-80540800D02*
X147901000Y-81796700D01*
%TO.N,/GPIO_I2C_SDA*%
X149612000Y-62200000D02*
X155810000Y-62200000D01*
X148442200Y-63370000D02*
X149612000Y-62200000D01*
X155810000Y-62200000D02*
X175420000Y-62200000D01*
X145898000Y-65914500D02*
X148442200Y-63370000D01*
X148282500Y-63370000D02*
X146912500Y-62000000D01*
X145898000Y-69891500D02*
X145898000Y-65914500D01*
X146000000Y-61087500D02*
X146912500Y-62000000D01*
X148442200Y-63370000D02*
X148282500Y-63370000D01*
X138500000Y-54594500D02*
X141745200Y-57839700D01*
X141745200Y-57839700D02*
X145474800Y-57839700D01*
X175420000Y-62200000D02*
X187620000Y-50000000D01*
X146000000Y-58364900D02*
X146000000Y-61087500D01*
X148810000Y-70500000D02*
X146506000Y-70500000D01*
X138500000Y-54594500D02*
X138500000Y-54000000D01*
X146506000Y-70500000D02*
X145898000Y-69891500D01*
X145474800Y-57839700D02*
X146000000Y-58364900D01*
%TO.N,/GPIO_I2C_SCL*%
X155230000Y-55000000D02*
X155730000Y-54500000D01*
X181228000Y-53852500D02*
X156978000Y-53852500D01*
X151727100Y-58502900D02*
X147409600Y-58502900D01*
X185080000Y-50000000D02*
X181228000Y-53852500D01*
X147409600Y-58502900D02*
X145062500Y-56155800D01*
X156978000Y-53852500D02*
X156030000Y-54800000D01*
X155730000Y-54500000D02*
X155810000Y-54580000D01*
X145062500Y-56155800D02*
X145062500Y-55000000D01*
X137500000Y-54000000D02*
X137500000Y-54445300D01*
X181228000Y-53852500D02*
X180280000Y-54800000D01*
X137945300Y-55292300D02*
X137500000Y-54847000D01*
X156030000Y-54800000D02*
X155810000Y-54580000D01*
X146912500Y-59000000D02*
X147409600Y-58502900D01*
X155230000Y-55000000D02*
X151727100Y-58502900D01*
X137500000Y-54847000D02*
X137500000Y-54445300D01*
%TO.N,Net-(D10-COM)*%
X125522000Y-121562000D02*
X124585000Y-120625000D01*
X144875000Y-121562000D02*
X125522000Y-121562000D01*
%TO.N,Net-(D12-COM)*%
X150808000Y-108466000D02*
X140694000Y-108466000D01*
X140694000Y-108466000D02*
X128535000Y-120625000D01*
%TO.N,/GPIO_ADC1*%
X135485000Y-74900000D02*
X138935000Y-71450000D01*
X130410000Y-74900000D02*
X135485000Y-74900000D01*
X126270000Y-79040000D02*
X121810000Y-79040000D01*
X130410000Y-74900000D02*
X126270000Y-79040000D01*
%TO.N,/GPIO_ADC3*%
X126270000Y-84120000D02*
X130410000Y-79980000D01*
X121810000Y-84120000D02*
X126270000Y-84120000D01*
X130410000Y-79980000D02*
X138455000Y-79980000D01*
X138455000Y-79980000D02*
X138935000Y-79500000D01*
%TO.N,/GPIO_ADC2*%
X130410000Y-77440000D02*
X136945000Y-77440000D01*
X136945000Y-77440000D02*
X138935000Y-75450000D01*
X121810000Y-81580000D02*
X126270000Y-81580000D01*
X126270000Y-81580000D02*
X130410000Y-77440000D01*
%TO.N,/GPIO_ADC4*%
X128810000Y-86660000D02*
X130410000Y-85060000D01*
X137325000Y-85060000D02*
X138935000Y-83450000D01*
X130410000Y-85060000D02*
X137325000Y-85060000D01*
X121810000Y-86660000D02*
X128810000Y-86660000D01*
%TO.N,/GPIO9*%
X130410000Y-87600000D02*
X138785000Y-87600000D01*
X128810000Y-89200000D02*
X130410000Y-87600000D01*
X121810000Y-89200000D02*
X128810000Y-89200000D01*
X138785000Y-87600000D02*
X138935000Y-87450000D01*
%TO.N,/GPIO10*%
X137625000Y-90140000D02*
X138935000Y-91450000D01*
X130410000Y-90140000D02*
X137625000Y-90140000D01*
%TO.N,/GPIO_Servo*%
X149857000Y-68721700D02*
X149857000Y-69820000D01*
X149857000Y-69820000D02*
X149857000Y-73278300D01*
X148635000Y-67500000D02*
X149857000Y-68721700D01*
X149857000Y-73278300D02*
X148685000Y-74450000D01*
X149857000Y-69820000D02*
X155810000Y-69820000D01*
%TO.N,/BallValveClose_Feedback*%
X128535000Y-129625000D02*
X137692000Y-129625000D01*
X137692000Y-129625000D02*
X148501000Y-118816000D01*
X148501000Y-118816000D02*
X148501000Y-113355000D01*
%TO.N,Net-(J9-CC2)*%
X97435000Y-53423700D02*
X97435000Y-54555000D01*
%TO.N,Net-(J9-CC1)*%
X98462500Y-53450000D02*
X98435000Y-53477500D01*
X98435000Y-53477500D02*
X98435000Y-54555000D01*
%TO.N,/GPIO_BallValveOpen*%
X106784000Y-89304300D02*
X128809000Y-67280000D01*
X106784000Y-104196000D02*
X106784000Y-89304300D01*
X128809000Y-67280000D02*
X130410000Y-67280000D01*
%TO.N,/GPIO_ADC5*%
X148685000Y-78500000D02*
X150165000Y-79980000D01*
X155810000Y-79980000D02*
X157169000Y-78620700D01*
X150165000Y-79980000D02*
X155810000Y-79980000D01*
X157169000Y-78620700D02*
X171629000Y-78620700D01*
X179458000Y-86450000D02*
X184660000Y-86450000D01*
X171629000Y-78620700D02*
X179458000Y-86450000D01*
%TO.N,/GPIO_ADC7*%
X150150000Y-85060000D02*
X148810000Y-86400000D01*
X203060000Y-105450000D02*
X206560000Y-108950000D01*
X155810000Y-85060000D02*
X150150000Y-85060000D01*
X203060000Y-105450000D02*
X172426000Y-105450000D01*
X159946000Y-89196100D02*
X155810000Y-85060000D01*
X159946000Y-92969900D02*
X159946000Y-89196100D01*
X172426000Y-105450000D02*
X159946000Y-92969900D01*
X206560000Y-105450000D02*
X203060000Y-105450000D01*
%TO.N,/GPIO_ADC6*%
X148805000Y-82520000D02*
X155810000Y-82520000D01*
X165960000Y-86280000D02*
X160758000Y-86280000D01*
X160758000Y-86280000D02*
X156998000Y-82520000D01*
X148685000Y-82400000D02*
X148805000Y-82520000D01*
X156998000Y-82520000D02*
X155810000Y-82520000D01*
%TO.N,/GPIO_ADC8*%
X193807000Y-94101700D02*
X171876000Y-94101700D01*
X201458000Y-86450000D02*
X193807000Y-94101700D01*
X206660000Y-86450000D02*
X201458000Y-86450000D01*
X171876000Y-94101700D02*
X171541000Y-93765800D01*
X151610000Y-87600000D02*
X148810000Y-90400000D01*
X155810000Y-87600000D02*
X151610000Y-87600000D01*
%TD*%
M02*
