%TF.GenerationSoftware,KiCad,Pcbnew,8.0.3*%
%TF.CreationDate,2024-07-13T16:10:19+00:00*%
%TF.ProjectId,jacuzzi,6a616375-7a7a-4692-9e6b-696361645f70,rev?*%
%TF.SameCoordinates,Original*%
%TF.FileFunction,Copper,L2,Bot*%
%TF.FilePolarity,Positive*%
%FSLAX46Y46*%
G04 Gerber Fmt 4.6, Leading zero omitted, Abs format (unit mm)*
G04 Created by KiCad (PCBNEW 8.0.3) date 2024-07-13 16:10:19*
%MOMM*%
%LPD*%
G01*
G04 APERTURE LIST*
G04 Aperture macros list*
%AMRoundRect*
0 Rectangle with rounded corners*
0 $1 Rounding radius*
0 $2 $3 $4 $5 $6 $7 $8 $9 X,Y pos of 4 corners*
0 Add a 4 corners polygon primitive as box body*
4,1,4,$2,$3,$4,$5,$6,$7,$8,$9,$2,$3,0*
0 Add four circle primitives for the rounded corners*
1,1,$1+$1,$2,$3*
1,1,$1+$1,$4,$5*
1,1,$1+$1,$6,$7*
1,1,$1+$1,$8,$9*
0 Add four rect primitives between the rounded corners*
20,1,$1+$1,$2,$3,$4,$5,0*
20,1,$1+$1,$4,$5,$6,$7,0*
20,1,$1+$1,$6,$7,$8,$9,0*
20,1,$1+$1,$8,$9,$2,$3,0*%
G04 Aperture macros list end*
%TA.AperFunction,ComponentPad*%
%ADD10R,2.500000X2.500000*%
%TD*%
%TA.AperFunction,ComponentPad*%
%ADD11O,2.500000X2.500000*%
%TD*%
%TA.AperFunction,ComponentPad*%
%ADD12RoundRect,0.250000X-0.650000X-1.550000X0.650000X-1.550000X0.650000X1.550000X-0.650000X1.550000X0*%
%TD*%
%TA.AperFunction,ComponentPad*%
%ADD13O,1.800000X3.600000*%
%TD*%
%TA.AperFunction,ComponentPad*%
%ADD14R,1.530000X1.530000*%
%TD*%
%TA.AperFunction,ComponentPad*%
%ADD15C,1.530000*%
%TD*%
%TA.AperFunction,ComponentPad*%
%ADD16R,1.508000X1.508000*%
%TD*%
%TA.AperFunction,ComponentPad*%
%ADD17C,1.508000*%
%TD*%
%TA.AperFunction,ComponentPad*%
%ADD18C,3.000000*%
%TD*%
%TA.AperFunction,ComponentPad*%
%ADD19R,1.700000X1.700000*%
%TD*%
%TA.AperFunction,ComponentPad*%
%ADD20O,1.700000X1.700000*%
%TD*%
%TA.AperFunction,SMDPad,CuDef*%
%ADD21RoundRect,0.250000X-0.262500X-0.450000X0.262500X-0.450000X0.262500X0.450000X-0.262500X0.450000X0*%
%TD*%
%TA.AperFunction,SMDPad,CuDef*%
%ADD22RoundRect,0.250000X0.450000X-0.262500X0.450000X0.262500X-0.450000X0.262500X-0.450000X-0.262500X0*%
%TD*%
%TA.AperFunction,SMDPad,CuDef*%
%ADD23RoundRect,0.150000X0.587500X0.150000X-0.587500X0.150000X-0.587500X-0.150000X0.587500X-0.150000X0*%
%TD*%
%TA.AperFunction,SMDPad,CuDef*%
%ADD24RoundRect,0.250000X0.300000X-2.050000X0.300000X2.050000X-0.300000X2.050000X-0.300000X-2.050000X0*%
%TD*%
%TA.AperFunction,SMDPad,CuDef*%
%ADD25RoundRect,0.250000X2.375000X-2.025000X2.375000X2.025000X-2.375000X2.025000X-2.375000X-2.025000X0*%
%TD*%
%TA.AperFunction,SMDPad,CuDef*%
%ADD26RoundRect,0.250002X5.149998X-4.449998X5.149998X4.449998X-5.149998X4.449998X-5.149998X-4.449998X0*%
%TD*%
%TA.AperFunction,SMDPad,CuDef*%
%ADD27RoundRect,0.250000X-0.300000X2.050000X-0.300000X-2.050000X0.300000X-2.050000X0.300000X2.050000X0*%
%TD*%
%TA.AperFunction,SMDPad,CuDef*%
%ADD28RoundRect,0.250000X-2.375000X2.025000X-2.375000X-2.025000X2.375000X-2.025000X2.375000X2.025000X0*%
%TD*%
%TA.AperFunction,SMDPad,CuDef*%
%ADD29RoundRect,0.250002X-5.149998X4.449998X-5.149998X-4.449998X5.149998X-4.449998X5.149998X4.449998X0*%
%TD*%
%TA.AperFunction,SMDPad,CuDef*%
%ADD30RoundRect,0.250000X0.262500X0.450000X-0.262500X0.450000X-0.262500X-0.450000X0.262500X-0.450000X0*%
%TD*%
%TA.AperFunction,SMDPad,CuDef*%
%ADD31RoundRect,0.250000X-0.450000X0.262500X-0.450000X-0.262500X0.450000X-0.262500X0.450000X0.262500X0*%
%TD*%
%TA.AperFunction,SMDPad,CuDef*%
%ADD32RoundRect,0.150000X-0.587500X-0.150000X0.587500X-0.150000X0.587500X0.150000X-0.587500X0.150000X0*%
%TD*%
%TA.AperFunction,SMDPad,CuDef*%
%ADD33RoundRect,0.250000X-1.000000X1.500000X-1.000000X-1.500000X1.000000X-1.500000X1.000000X1.500000X0*%
%TD*%
%TA.AperFunction,SMDPad,CuDef*%
%ADD34RoundRect,0.250000X0.550000X-1.500000X0.550000X1.500000X-0.550000X1.500000X-0.550000X-1.500000X0*%
%TD*%
%TA.AperFunction,SMDPad,CuDef*%
%ADD35R,2.900000X5.400000*%
%TD*%
%TA.AperFunction,SMDPad,CuDef*%
%ADD36RoundRect,0.112500X0.187500X0.112500X-0.187500X0.112500X-0.187500X-0.112500X0.187500X-0.112500X0*%
%TD*%
%TA.AperFunction,SMDPad,CuDef*%
%ADD37RoundRect,0.112500X-0.187500X-0.112500X0.187500X-0.112500X0.187500X0.112500X-0.187500X0.112500X0*%
%TD*%
%TA.AperFunction,SMDPad,CuDef*%
%ADD38RoundRect,0.150000X0.150000X-0.587500X0.150000X0.587500X-0.150000X0.587500X-0.150000X-0.587500X0*%
%TD*%
%TA.AperFunction,SMDPad,CuDef*%
%ADD39RoundRect,0.250000X-0.250000X-0.475000X0.250000X-0.475000X0.250000X0.475000X-0.250000X0.475000X0*%
%TD*%
%TA.AperFunction,ViaPad*%
%ADD40C,0.600000*%
%TD*%
%TA.AperFunction,Conductor*%
%ADD41C,0.200000*%
%TD*%
G04 APERTURE END LIST*
D10*
%TO.P,K1,1*%
%TO.N,/TubValve_V*%
X82810000Y-99500000D03*
D11*
%TO.P,K1,2*%
%TO.N,/GPIO_TubValve*%
X76810000Y-101500000D03*
%TO.P,K1,3*%
%TO.N,/TubValve_NO*%
X76810000Y-113700000D03*
%TO.P,K1,4*%
%TO.N,/TubValve_NC*%
X88810000Y-113700000D03*
%TO.P,K1,5*%
%TO.N,GND*%
X88810000Y-101500000D03*
%TD*%
D12*
%TO.P,J3,1,Pin_1*%
%TO.N,/TubValve_NO*%
X77650000Y-129500000D03*
D13*
%TO.P,J3,2,Pin_2*%
%TO.N,/TubValve_V*%
X82730000Y-129500000D03*
%TO.P,J3,3,Pin_3*%
%TO.N,/TubValve_NC*%
X87810000Y-129500000D03*
%TD*%
D14*
%TO.P,U3,1,3V3*%
%TO.N,+3.3V*%
X130410000Y-49500000D03*
D15*
%TO.P,U3,2,EN*%
%TO.N,unconnected-(U3-EN-Pad2)*%
X130410000Y-52040000D03*
%TO.P,U3,3,SENSOR_VP*%
%TO.N,unconnected-(U3-SENSOR_VP-Pad3)*%
X130410000Y-54580000D03*
%TO.P,U3,4,SENSOR_VN*%
%TO.N,unconnected-(U3-SENSOR_VN-Pad4)*%
X130410000Y-57120000D03*
%TO.P,U3,5,IO34*%
%TO.N,/GPIO_BallValveOpen_Feedback*%
X130410000Y-59660000D03*
%TO.P,U3,6,IO35*%
%TO.N,/GPIO_BallValveClose_Feedback*%
X130410000Y-62200000D03*
%TO.P,U3,7,IO32*%
%TO.N,/GPIO_TubValve*%
X130410000Y-64740000D03*
%TO.P,U3,8,IO33*%
%TO.N,/GPIO_BallValveOpen*%
X130410000Y-67280000D03*
%TO.P,U3,9,IO25*%
%TO.N,/GPIO_BallValveClose*%
X130410000Y-69820000D03*
%TO.P,U3,10,IO26*%
%TO.N,unconnected-(U3-IO26-Pad10)*%
X130410000Y-72360000D03*
%TO.P,U3,11,IO27*%
%TO.N,/GPIO_ADC1*%
X130410000Y-74900000D03*
%TO.P,U3,12,IO14*%
%TO.N,/GPIO_ADC2*%
X130410000Y-77440000D03*
%TO.P,U3,13,IO12*%
%TO.N,/GPIO_ADC3*%
X130410000Y-79980000D03*
%TO.P,U3,14,GND1*%
%TO.N,GND*%
X130410000Y-82520000D03*
%TO.P,U3,15,IO13*%
%TO.N,/GPIO_ADC4*%
X130410000Y-85060000D03*
%TO.P,U3,16,SD2*%
%TO.N,/GPIO9*%
X130410000Y-87600000D03*
%TO.P,U3,17,SD3*%
%TO.N,/GPIO10*%
X130410000Y-90140000D03*
%TO.P,U3,18,CMD*%
%TO.N,unconnected-(U3-CMD-Pad18)*%
X130410000Y-92680000D03*
%TO.P,U3,19,EXT_5V*%
%TO.N,unconnected-(U3-EXT_5V-Pad19)*%
X130410000Y-95220000D03*
%TO.P,U3,20,CLK*%
%TO.N,unconnected-(U3-CLK-Pad20)*%
X155810000Y-95220000D03*
%TO.P,U3,21,SD0*%
%TO.N,unconnected-(U3-SD0-Pad21)*%
X155810000Y-92680000D03*
%TO.P,U3,22,SD1*%
%TO.N,unconnected-(U3-SD1-Pad22)*%
X155810000Y-90140000D03*
%TO.P,U3,23,IO15*%
%TO.N,/GPIO_ADC8*%
X155810000Y-87600000D03*
%TO.P,U3,24,IO2*%
%TO.N,/GPIO_ADC7*%
X155810000Y-85060000D03*
%TO.P,U3,25,IO0*%
%TO.N,/GPIO_ADC6*%
X155810000Y-82520000D03*
%TO.P,U3,26,IO4*%
%TO.N,/GPIO_ADC5*%
X155810000Y-79980000D03*
%TO.P,U3,27,IO16*%
%TO.N,/GPIO_Dallas2*%
X155810000Y-77440000D03*
%TO.P,U3,28,IO17*%
%TO.N,/GPIO_Dallas1*%
X155810000Y-74900000D03*
%TO.P,U3,29,IO5*%
%TO.N,unconnected-(U3-IO5-Pad29)*%
X155810000Y-72360000D03*
%TO.P,U3,30,IO18*%
%TO.N,/GPIO_Servo*%
X155810000Y-69820000D03*
%TO.P,U3,31,IO19*%
%TO.N,unconnected-(U3-IO19-Pad31)*%
X155810000Y-67280000D03*
%TO.P,U3,32,GND2*%
%TO.N,GND*%
X155810000Y-64740000D03*
%TO.P,U3,33,IO21*%
%TO.N,/GPIO_I2C_SDA*%
X155810000Y-62200000D03*
%TO.P,U3,34,RXD0*%
%TO.N,unconnected-(U3-RXD0-Pad34)*%
X155810000Y-59660000D03*
%TO.P,U3,35,TXD0*%
%TO.N,unconnected-(U3-TXD0-Pad35)*%
X155810000Y-57120000D03*
%TO.P,U3,36,IO22*%
%TO.N,/GPIO_I2C_SCL*%
X155810000Y-54580000D03*
%TO.P,U3,37,IO23*%
%TO.N,unconnected-(U3-IO23-Pad37)*%
X155810000Y-52040000D03*
%TO.P,U3,38,GND3*%
%TO.N,GND*%
X155810000Y-49500000D03*
%TD*%
D12*
%TO.P,J1,1,Pin_1*%
%TO.N,/BallValveOpen*%
X107585000Y-129500000D03*
D13*
%TO.P,J1,2,Pin_2*%
%TO.N,/BallValveClose*%
X111395000Y-129500000D03*
%TO.P,J1,3,Pin_3*%
%TO.N,GND*%
X115205000Y-129500000D03*
%TD*%
D12*
%TO.P,J5,1,Pin_1*%
%TO.N,+5V*%
X160965000Y-129500000D03*
D13*
%TO.P,J5,2,Pin_2*%
%TO.N,/GPIO_Dallas1*%
X164775000Y-129500000D03*
%TO.P,J5,3,Pin_3*%
%TO.N,GND*%
X168585000Y-129500000D03*
%TD*%
D12*
%TO.P,J7,1,Pin_1*%
%TO.N,/BallValveOpen_Feedback*%
X124725000Y-129625000D03*
D13*
%TO.P,J7,2,Pin_2*%
%TO.N,/BallValveClose_Feedback*%
X128535000Y-129625000D03*
%TD*%
D16*
%TO.P,U4,1,GND*%
%TO.N,GND*%
X180000000Y-50000000D03*
D17*
%TO.P,U4,2,VCC_IN*%
%TO.N,+5V*%
X182540000Y-50000000D03*
%TO.P,U4,3,SCL*%
%TO.N,/GPIO_I2C_SCL*%
X185080000Y-50000000D03*
%TO.P,U4,4,SDA*%
%TO.N,/GPIO_I2C_SDA*%
X187620000Y-50000000D03*
D18*
%TO.P,U4,S1*%
%TO.N,N/C*%
X172810000Y-50500000D03*
%TO.P,U4,S2*%
X194810000Y-50500000D03*
%TO.P,U4,S3*%
X194810000Y-72500000D03*
%TO.P,U4,S4*%
X172810000Y-72500000D03*
%TD*%
D19*
%TO.P,J8,1,Pin_1*%
%TO.N,+3.3V*%
X121810000Y-76500000D03*
D20*
%TO.P,J8,2,Pin_2*%
%TO.N,/GPIO_ADC1*%
X121810000Y-79040000D03*
%TO.P,J8,3,Pin_3*%
%TO.N,/GPIO_ADC2*%
X121810000Y-81580000D03*
%TO.P,J8,4,Pin_4*%
%TO.N,/GPIO_ADC3*%
X121810000Y-84120000D03*
%TO.P,J8,5,Pin_5*%
%TO.N,/GPIO_ADC4*%
X121810000Y-86660000D03*
%TO.P,J8,6,Pin_6*%
%TO.N,/GPIO9*%
X121810000Y-89200000D03*
%TO.P,J8,7,Pin_7*%
%TO.N,/GPIO10*%
X121810000Y-91740000D03*
%TO.P,J8,8,Pin_8*%
%TO.N,GND*%
X121810000Y-94280000D03*
%TD*%
D12*
%TO.P,J6,1,Pin_1*%
%TO.N,+5V*%
X177965000Y-129500000D03*
D13*
%TO.P,J6,2,Pin_2*%
%TO.N,/GPIO_Dallas2*%
X181775000Y-129500000D03*
%TO.P,J6,3,Pin_3*%
%TO.N,GND*%
X185585000Y-129500000D03*
%TD*%
D12*
%TO.P,J10,1,Pin_1*%
%TO.N,VS*%
X81000000Y-52500000D03*
D13*
%TO.P,J10,2,Pin_2*%
%TO.N,GND*%
X84810000Y-52500000D03*
%TD*%
D12*
%TO.P,J2,1,Pin_1*%
%TO.N,+5V*%
X141775000Y-129500000D03*
D13*
%TO.P,J2,2,Pin_2*%
%TO.N,/GPIO_Servo*%
X145585000Y-129500000D03*
%TO.P,J2,3,Pin_3*%
%TO.N,GND*%
X149395000Y-129500000D03*
%TD*%
D21*
%TO.P,R4,1*%
%TO.N,/GPIO_BallValveClose*%
X139672500Y-105500000D03*
%TO.P,R4,2*%
%TO.N,Net-(Q5-B)*%
X141497500Y-105500000D03*
%TD*%
D22*
%TO.P,R23,1*%
%TO.N,Net-(J9-CC1)*%
X97810000Y-45500000D03*
%TO.P,R23,2*%
%TO.N,GND*%
X97810000Y-43675000D03*
%TD*%
%TO.P,R24,1*%
%TO.N,Net-(J9-CC2)*%
X94810000Y-45500000D03*
%TO.P,R24,2*%
%TO.N,GND*%
X94810000Y-43675000D03*
%TD*%
D23*
%TO.P,Q2,1,B*%
%TO.N,Net-(Q2-B)*%
X155585000Y-106500000D03*
%TO.P,Q2,2,E*%
%TO.N,GND*%
X155585000Y-108400000D03*
%TO.P,Q2,3,C*%
%TO.N,/GPIO_BallValveClose_Feedback*%
X153710000Y-107450000D03*
%TD*%
D24*
%TO.P,Q6,1,G*%
%TO.N,Net-(Q5-C)*%
X132125000Y-115150000D03*
D25*
%TO.P,Q6,2,D*%
%TO.N,VS*%
X126810000Y-108425000D03*
X132360000Y-108425000D03*
D26*
X129585000Y-106000000D03*
D25*
X126810000Y-103575000D03*
X132360000Y-103575000D03*
D24*
%TO.P,Q6,3,S*%
%TO.N,/BallValveClose*%
X127045000Y-115150000D03*
%TD*%
D21*
%TO.P,R8,1*%
%TO.N,+3.3V*%
X174672500Y-112562500D03*
%TO.P,R8,2*%
%TO.N,/GPIO_Dallas2*%
X176497500Y-112562500D03*
%TD*%
D27*
%TO.P,U1,1,VIN*%
%TO.N,VS*%
X110010000Y-78500000D03*
%TO.P,U1,2,OUT*%
%TO.N,Net-(D20-K)*%
X111710000Y-78500000D03*
%TO.P,U1,3,GND*%
%TO.N,GND*%
X113410000Y-78500000D03*
D28*
X116185000Y-85225000D03*
X110635000Y-85225000D03*
D29*
X113410000Y-87650000D03*
D28*
X116185000Y-90075000D03*
X110635000Y-90075000D03*
D27*
%TO.P,U1,4,FB*%
%TO.N,Net-(U1-FB)*%
X115110000Y-78500000D03*
%TO.P,U1,5,~{ON}/OFF*%
%TO.N,GND*%
X116810000Y-78500000D03*
%TD*%
D30*
%TO.P,R3,1*%
%TO.N,Net-(D2-K)*%
X107410000Y-108500000D03*
%TO.P,R3,2*%
%TO.N,GND*%
X105585000Y-108500000D03*
%TD*%
D31*
%TO.P,R12,1*%
%TO.N,Net-(D10-COM)*%
X148647500Y-118587500D03*
%TO.P,R12,2*%
%TO.N,Net-(Q1-B)*%
X148647500Y-120412500D03*
%TD*%
D32*
%TO.P,D12,1,A*%
%TO.N,GND*%
X148835000Y-108400000D03*
%TO.P,D12,2,K*%
%TO.N,+3.3V*%
X148835000Y-106500000D03*
%TO.P,D12,3,COM*%
%TO.N,Net-(D12-COM)*%
X150710000Y-107450000D03*
%TD*%
D31*
%TO.P,R15,1*%
%TO.N,Net-(D12-COM)*%
X155710000Y-101537500D03*
%TO.P,R15,2*%
%TO.N,Net-(Q2-B)*%
X155710000Y-103362500D03*
%TD*%
D33*
%TO.P,C2,1*%
%TO.N,VS*%
X101810000Y-75500000D03*
%TO.P,C2,2*%
%TO.N,GND*%
X101810000Y-82000000D03*
%TD*%
D34*
%TO.P,C3,1*%
%TO.N,Net-(U1-FB)*%
X102810000Y-65500000D03*
%TO.P,C3,2*%
%TO.N,GND*%
X102810000Y-60100000D03*
%TD*%
D30*
%TO.P,R11,1*%
%TO.N,/BallValveOpen_Feedback*%
X155560000Y-121500000D03*
%TO.P,R11,2*%
%TO.N,Net-(D10-COM)*%
X153735000Y-121500000D03*
%TD*%
D35*
%TO.P,L2,1,1*%
%TO.N,Net-(D21-K)*%
X84910000Y-64500000D03*
%TO.P,L2,2,2*%
%TO.N,+5V*%
X94810000Y-64500000D03*
%TD*%
D30*
%TO.P,R2,1*%
%TO.N,+5V*%
X107410000Y-102500000D03*
%TO.P,R2,2*%
%TO.N,Net-(Q3-C)*%
X105585000Y-102500000D03*
%TD*%
D36*
%TO.P,D1,1,K*%
%TO.N,/BallValveOpen*%
X107547500Y-111500000D03*
%TO.P,D1,2,A*%
%TO.N,GND*%
X105447500Y-111500000D03*
%TD*%
D37*
%TO.P,D21,1,K*%
%TO.N,Net-(D21-K)*%
X87710000Y-72500000D03*
%TO.P,D21,2,A*%
%TO.N,GND*%
X89810000Y-72500000D03*
%TD*%
%TO.P,D3,1,K*%
%TO.N,/BallValveClose*%
X139535000Y-111500000D03*
%TO.P,D3,2,A*%
%TO.N,GND*%
X141635000Y-111500000D03*
%TD*%
D23*
%TO.P,Q3,1,B*%
%TO.N,Net-(Q3-B)*%
X107460000Y-114550000D03*
%TO.P,Q3,2,E*%
%TO.N,GND*%
X107460000Y-116450000D03*
%TO.P,Q3,3,C*%
%TO.N,Net-(Q3-C)*%
X105585000Y-115500000D03*
%TD*%
D30*
%TO.P,R1,1*%
%TO.N,/GPIO_BallValveOpen*%
X107410000Y-105500000D03*
%TO.P,R1,2*%
%TO.N,Net-(Q3-B)*%
X105585000Y-105500000D03*
%TD*%
%TO.P,R6,1*%
%TO.N,Net-(D4-K)*%
X141585000Y-108500000D03*
%TO.P,R6,2*%
%TO.N,GND*%
X139760000Y-108500000D03*
%TD*%
D21*
%TO.P,R14,1*%
%TO.N,/BallValveClose_Feedback*%
X148710000Y-102450000D03*
%TO.P,R14,2*%
%TO.N,Net-(D12-COM)*%
X150535000Y-102450000D03*
%TD*%
D35*
%TO.P,L1,1,1*%
%TO.N,Net-(D20-K)*%
X108810000Y-64500000D03*
%TO.P,L1,2,2*%
%TO.N,Net-(U1-FB)*%
X118710000Y-64500000D03*
%TD*%
D27*
%TO.P,U2,1,VIN*%
%TO.N,Net-(J11-Pin_1)*%
X86010000Y-78500000D03*
%TO.P,U2,2,OUT*%
%TO.N,Net-(D21-K)*%
X87710000Y-78500000D03*
%TO.P,U2,3,GND*%
%TO.N,GND*%
X89410000Y-78500000D03*
D28*
X92185000Y-85225000D03*
X86635000Y-85225000D03*
D29*
X89410000Y-87650000D03*
D28*
X92185000Y-90075000D03*
X86635000Y-90075000D03*
D27*
%TO.P,U2,4,FB*%
%TO.N,+5V*%
X91110000Y-78500000D03*
%TO.P,U2,5,~{ON}/OFF*%
%TO.N,GND*%
X92810000Y-78500000D03*
%TD*%
D21*
%TO.P,R7,1*%
%TO.N,+3.3V*%
X164672500Y-112500000D03*
%TO.P,R7,2*%
%TO.N,/GPIO_Dallas1*%
X166497500Y-112500000D03*
%TD*%
D23*
%TO.P,Q1,1,B*%
%TO.N,Net-(Q1-B)*%
X150585000Y-113487500D03*
%TO.P,Q1,2,E*%
%TO.N,GND*%
X150585000Y-115387500D03*
%TO.P,Q1,3,C*%
%TO.N,/GPIO_BallValveOpen_Feedback*%
X148710000Y-114437500D03*
%TD*%
D38*
%TO.P,D6,1,A*%
%TO.N,GND*%
X166535000Y-118375000D03*
%TO.P,D6,2,K*%
%TO.N,+3.3V*%
X164635000Y-118375000D03*
%TO.P,D6,3,COM*%
%TO.N,/GPIO_Dallas1*%
X165585000Y-116500000D03*
%TD*%
D31*
%TO.P,R16,1*%
%TO.N,+3.3V*%
X152710000Y-101625000D03*
%TO.P,R16,2*%
%TO.N,/GPIO_BallValveClose_Feedback*%
X152710000Y-103450000D03*
%TD*%
D23*
%TO.P,D10,1,A*%
%TO.N,GND*%
X155647500Y-116600000D03*
%TO.P,D10,2,K*%
%TO.N,+3.3V*%
X155647500Y-118500000D03*
%TO.P,D10,3,COM*%
%TO.N,Net-(D10-COM)*%
X153772500Y-117550000D03*
%TD*%
D30*
%TO.P,R21,1*%
%TO.N,+3.3V*%
X114635000Y-52500000D03*
%TO.P,R21,2*%
%TO.N,Net-(U1-FB)*%
X112810000Y-52500000D03*
%TD*%
D23*
%TO.P,Q5,1,B*%
%TO.N,Net-(Q5-B)*%
X141585000Y-114500000D03*
%TO.P,Q5,2,E*%
%TO.N,GND*%
X141585000Y-116400000D03*
%TO.P,Q5,3,C*%
%TO.N,Net-(Q5-C)*%
X139710000Y-115450000D03*
%TD*%
D37*
%TO.P,D20,1,K*%
%TO.N,Net-(D20-K)*%
X111710000Y-72500000D03*
%TO.P,D20,2,A*%
%TO.N,GND*%
X113810000Y-72500000D03*
%TD*%
D24*
%TO.P,Q4,1,G*%
%TO.N,Net-(Q3-C)*%
X119125000Y-115650000D03*
D25*
%TO.P,Q4,2,D*%
%TO.N,VS*%
X113810000Y-108925000D03*
X119360000Y-108925000D03*
D26*
X116585000Y-106500000D03*
D25*
X113810000Y-104075000D03*
X119360000Y-104075000D03*
D24*
%TO.P,Q4,3,S*%
%TO.N,/BallValveOpen*%
X114045000Y-115650000D03*
%TD*%
D37*
%TO.P,D5,1,K*%
%TO.N,/GPIO_TubValve*%
X81710000Y-105500000D03*
%TO.P,D5,2,A*%
%TO.N,GND*%
X83810000Y-105500000D03*
%TD*%
D33*
%TO.P,C4,1*%
%TO.N,Net-(J11-Pin_1)*%
X77810000Y-81250000D03*
%TO.P,C4,2*%
%TO.N,GND*%
X77810000Y-87750000D03*
%TD*%
D22*
%TO.P,R13,1*%
%TO.N,+3.3V*%
X151647500Y-120325000D03*
%TO.P,R13,2*%
%TO.N,/GPIO_BallValveOpen_Feedback*%
X151647500Y-118500000D03*
%TD*%
D21*
%TO.P,R5,1*%
%TO.N,+5V*%
X139672500Y-102500000D03*
%TO.P,R5,2*%
%TO.N,Net-(Q5-C)*%
X141497500Y-102500000D03*
%TD*%
D38*
%TO.P,D7,1,A*%
%TO.N,GND*%
X177447500Y-118437500D03*
%TO.P,D7,2,K*%
%TO.N,+3.3V*%
X175547500Y-118437500D03*
%TO.P,D7,3,COM*%
%TO.N,/GPIO_Dallas2*%
X176497500Y-116562500D03*
%TD*%
D34*
%TO.P,C5,1*%
%TO.N,+5V*%
X77810000Y-65500000D03*
%TO.P,C5,2*%
%TO.N,GND*%
X77810000Y-60100000D03*
%TD*%
D39*
%TO.P,C1,1*%
%TO.N,VS*%
X98860000Y-57500000D03*
%TO.P,C1,2*%
%TO.N,GND*%
X100760000Y-57500000D03*
%TD*%
D40*
%TO.N,VS*%
X98894500Y-55669500D03*
%TO.N,GND*%
X147282000Y-72692700D03*
%TO.N,Net-(J11-Pin_1)*%
X76451700Y-76711700D03*
%TO.N,+5V*%
X79329000Y-75290200D03*
X108576000Y-102532000D03*
X137732000Y-102532000D03*
%TO.N,Net-(D2-K)*%
X107585000Y-120621000D03*
%TO.N,Net-(D4-K)*%
X140793000Y-107077000D03*
%TO.N,+3.3V*%
X153586000Y-118364000D03*
X163813000Y-117670000D03*
X155739000Y-117673000D03*
X151500000Y-101223000D03*
%TO.N,/GPIO_I2C_SCL*%
X137945300Y-55292300D03*
%TO.N,Net-(D10-COM)*%
X144875000Y-121562000D03*
%TO.N,Net-(D12-COM)*%
X150808000Y-108466000D03*
%TO.N,/BallValveClose_Feedback*%
X148501000Y-113355000D03*
%TO.N,Net-(J9-CC2)*%
X97435000Y-53423700D03*
%TO.N,Net-(J9-CC1)*%
X98462500Y-53450000D03*
%TO.N,/GPIO_BallValveOpen*%
X106784000Y-104196000D03*
%TO.N,/GPIO_ADC8*%
X171541000Y-93765800D03*
%TD*%
D41*
%TO.N,VS*%
X129585000Y-106000000D02*
X129935000Y-106000000D01*
X129585000Y-106000000D02*
X129235000Y-106000000D01*
X107685000Y-78500000D02*
X107685000Y-97950000D01*
X107685000Y-78500000D02*
X104810000Y-78500000D01*
X129110000Y-106125000D02*
X126810000Y-108425000D01*
X126560000Y-104075000D02*
X126810000Y-103825000D01*
X126810000Y-103825000D02*
X129110000Y-106125000D01*
X116585000Y-106500000D02*
X116235000Y-106500000D01*
X129235000Y-106000000D02*
X129110000Y-106125000D01*
X119360000Y-104075000D02*
X126560000Y-104075000D01*
X101810000Y-75500000D02*
X98860000Y-72550000D01*
X110010000Y-78500000D02*
X107685000Y-78500000D01*
X129935000Y-106000000D02*
X132360000Y-108425000D01*
X129935000Y-106000000D02*
X132360000Y-103575000D01*
X107685000Y-97950000D02*
X113810000Y-104075000D01*
X116585000Y-106500000D02*
X116935000Y-106500000D01*
X98860000Y-57500000D02*
X98860000Y-55704000D01*
X126810000Y-103825000D02*
X126810000Y-103575000D01*
X104810000Y-78500000D02*
X101810000Y-75500000D01*
X98860000Y-55704000D02*
X98894500Y-55669500D01*
X116935000Y-106500000D02*
X119360000Y-104075000D01*
X98860000Y-72550000D02*
X98860000Y-57500000D01*
X113810000Y-104075000D02*
X116235000Y-106500000D01*
X116235000Y-106500000D02*
X113810000Y-108925000D01*
X116935000Y-106500000D02*
X119360000Y-108925000D01*
%TO.N,GND*%
X149545000Y-113087000D02*
X149545000Y-113885000D01*
X75846500Y-62063500D02*
X75846500Y-85786500D01*
X115205000Y-129500000D02*
X116407000Y-129500000D01*
X177447500Y-118437500D02*
X177448000Y-118438000D01*
X155810000Y-64740000D02*
X156880000Y-63670000D01*
X156716000Y-123381000D02*
X150597000Y-129500000D01*
X150840000Y-110405000D02*
X150840000Y-111792000D01*
X177448000Y-118438000D02*
X185585000Y-126575000D01*
X97810000Y-43675000D02*
X94810000Y-43675000D01*
X102021000Y-67584200D02*
X103627000Y-67584200D01*
X85472500Y-87750000D02*
X85472500Y-86387500D01*
X101810000Y-82000000D02*
X94332300Y-82000000D01*
X106314000Y-131268000D02*
X106673000Y-131627000D01*
X89410000Y-72900000D02*
X89410000Y-78500000D01*
X89410000Y-87650000D02*
X89760000Y-87650000D01*
X105447500Y-111500000D02*
X105448000Y-111500000D01*
X101668000Y-61242500D02*
X101668000Y-67230500D01*
X106658000Y-115161000D02*
X105448000Y-113950000D01*
X87258300Y-102052000D02*
X87258300Y-101500000D01*
X105685000Y-65526300D02*
X105685000Y-62987800D01*
X83308300Y-54601700D02*
X77810000Y-60100000D01*
X156880000Y-50570000D02*
X155810000Y-49500000D01*
X105118000Y-116450000D02*
X106314000Y-116450000D01*
X86635000Y-88912500D02*
X88147500Y-88912500D01*
X84810000Y-52500000D02*
X84810000Y-54601700D01*
X107174000Y-61498300D02*
X110385000Y-61498300D01*
X113410000Y-87650000D02*
X113760000Y-87650000D01*
X106673000Y-131627000D02*
X111876000Y-131627000D01*
X150840000Y-111792000D02*
X155647500Y-116599500D01*
X113410000Y-87650000D02*
X113060000Y-87650000D01*
X155647500Y-116599500D02*
X155647500Y-116600000D01*
X116185000Y-81105300D02*
X114573000Y-81105300D01*
X119944000Y-125963000D02*
X131504000Y-125963000D01*
X86011700Y-52500000D02*
X86011700Y-52473300D01*
X150597000Y-129500000D02*
X149395000Y-129500000D01*
X116185000Y-90075000D02*
X116453000Y-90075000D01*
X116810000Y-80419000D02*
X128309000Y-80419000D01*
X110385000Y-61498300D02*
X113810000Y-64923300D01*
X141067000Y-115369000D02*
X140538000Y-114840000D01*
X105448000Y-111500000D02*
X105448000Y-108638000D01*
X86011700Y-52473300D02*
X94810000Y-43675000D01*
X156880000Y-50570000D02*
X158776000Y-48674200D01*
X113060000Y-87650000D02*
X110635000Y-85225000D01*
X111876000Y-131627000D02*
X114003000Y-129500000D01*
X185585000Y-126575000D02*
X185585000Y-129500000D01*
X155648000Y-116600000D02*
X156716000Y-117669000D01*
X103627000Y-67584200D02*
X105685000Y-65526300D01*
X166535000Y-118375000D02*
X168585000Y-120425000D01*
X83810000Y-105500000D02*
X87258300Y-102052000D01*
X84810000Y-54601700D02*
X83308300Y-54601700D01*
X90549500Y-81102700D02*
X92185000Y-81102700D01*
X156716000Y-117669000D02*
X156716000Y-123381000D01*
X141067000Y-116400000D02*
X141585000Y-116400000D01*
X116810000Y-80419000D02*
X116810000Y-80480300D01*
X140538000Y-114840000D02*
X140538000Y-112597000D01*
X84810000Y-52500000D02*
X86011700Y-52500000D01*
X106314000Y-116450000D02*
X106314000Y-131268000D01*
X101668000Y-67230500D02*
X102021000Y-67584200D01*
X86635000Y-90075000D02*
X86635000Y-88912500D01*
X116185000Y-81105300D02*
X116185000Y-85225000D01*
X116810000Y-78500000D02*
X116810000Y-80419000D01*
X89410000Y-79963200D02*
X90549500Y-81102700D01*
X113760000Y-87650000D02*
X116185000Y-85225000D01*
X177618000Y-48674200D02*
X178944000Y-50000000D01*
X90361700Y-101500000D02*
X90361700Y-101694000D01*
X147282000Y-72692700D02*
X147857000Y-72692700D01*
X75846500Y-85786500D02*
X77810000Y-87750000D01*
X77810000Y-87750000D02*
X85472500Y-87750000D01*
X114003000Y-129500000D02*
X115205000Y-129500000D01*
X168585000Y-120425000D02*
X168585000Y-129500000D01*
X113060000Y-87650000D02*
X110635000Y-90075000D01*
X149545000Y-113885000D02*
X150585000Y-114925000D01*
X89810000Y-72500000D02*
X89410000Y-72900000D01*
X105448000Y-108638000D02*
X105585000Y-108500000D01*
X102810000Y-60100000D02*
X101668000Y-61242500D01*
X147857000Y-72692700D02*
X155810000Y-64740000D01*
X141067000Y-116400000D02*
X141067000Y-115369000D01*
X92185000Y-81102700D02*
X92810000Y-80477700D01*
X131504000Y-125963000D02*
X141067000Y-116400000D01*
X92810000Y-80477700D02*
X92810000Y-78500000D01*
X106658000Y-116450000D02*
X107460000Y-116450000D01*
X86635000Y-90075000D02*
X87258300Y-90698300D01*
X92185000Y-85225000D02*
X92185000Y-81102700D01*
X89410000Y-78500000D02*
X89410000Y-79963200D01*
X87258300Y-101500000D02*
X88810000Y-101500000D01*
X89760000Y-87650000D02*
X92185000Y-85225000D01*
X100760000Y-46625000D02*
X97810000Y-43675000D01*
X100760000Y-57500000D02*
X102810000Y-59550000D01*
X106314000Y-116450000D02*
X106658000Y-116450000D01*
X158776000Y-48674200D02*
X177618000Y-48674200D01*
X139760000Y-109625000D02*
X139760000Y-108500000D01*
X113410000Y-72900000D02*
X113810000Y-72500000D01*
X94332300Y-82000000D02*
X92810000Y-80477700D01*
X90361700Y-101694000D02*
X105118000Y-116450000D01*
X105685000Y-62987800D02*
X107174000Y-61498300D01*
X150585000Y-115387500D02*
X150585000Y-115388000D01*
X150840000Y-110405000D02*
X153580000Y-110405000D01*
X113760000Y-87650000D02*
X116185000Y-90075000D01*
X148835000Y-108400000D02*
X150840000Y-110405000D01*
X88810000Y-101500000D02*
X90361700Y-101500000D01*
X77810000Y-60100000D02*
X75846500Y-62063500D01*
X100760000Y-57500000D02*
X100760000Y-46625000D01*
X88147500Y-88912500D02*
X89410000Y-87650000D01*
X85472500Y-87750000D02*
X86635000Y-88912500D01*
X113410000Y-79942300D02*
X113410000Y-78500000D01*
X156880000Y-63670000D02*
X156880000Y-50570000D01*
X105448000Y-113950000D02*
X105448000Y-111500000D01*
X155647500Y-116599500D02*
X155648000Y-116600000D01*
X116453000Y-90075000D02*
X120658000Y-94280000D01*
X113810000Y-64923300D02*
X113810000Y-72500000D01*
X150840000Y-111792000D02*
X149545000Y-113087000D01*
X128309000Y-80419000D02*
X130410000Y-82520000D01*
X106658000Y-116450000D02*
X106658000Y-115161000D01*
X113410000Y-78500000D02*
X113410000Y-72900000D01*
X120658000Y-94280000D02*
X121810000Y-94280000D01*
X87258300Y-90698300D02*
X87258300Y-101500000D01*
X140538000Y-112597000D02*
X141635000Y-111500000D01*
X116810000Y-80480300D02*
X116185000Y-81105300D01*
X116407000Y-129500000D02*
X119944000Y-125963000D01*
X150585000Y-114925000D02*
X150585000Y-115387500D01*
X85472500Y-86387500D02*
X86635000Y-85225000D01*
X153580000Y-110405000D02*
X155585000Y-108400000D01*
X178944000Y-50000000D02*
X180000000Y-50000000D01*
X89760000Y-87650000D02*
X92185000Y-90075000D01*
X141635000Y-111500000D02*
X139760000Y-109625000D01*
X114573000Y-81105300D02*
X113410000Y-79942300D01*
X102810000Y-59550000D02*
X102810000Y-60100000D01*
%TO.N,Net-(U1-FB)*%
X115584000Y-64500000D02*
X115584000Y-63871000D01*
X115584000Y-78025600D02*
X115110000Y-78500000D01*
X112810000Y-61096600D02*
X107000000Y-61096600D01*
X112810000Y-61096600D02*
X112810000Y-52500000D01*
X102810000Y-65287000D02*
X102810000Y-65500000D01*
X107000000Y-61096600D02*
X102810000Y-65287000D01*
X115584000Y-64500000D02*
X118710000Y-64500000D01*
X115584000Y-63871000D02*
X112810000Y-61096600D01*
X115584000Y-64500000D02*
X115584000Y-78025600D01*
%TO.N,Net-(J11-Pin_1)*%
X77812400Y-81247600D02*
X77812400Y-78500000D01*
X77812400Y-78500000D02*
X86010000Y-78500000D01*
X77812400Y-78072400D02*
X76451700Y-76711700D01*
X77812400Y-78500000D02*
X77812400Y-78072400D01*
X77810000Y-81250000D02*
X77812400Y-81247600D01*
%TO.N,+5V*%
X83330700Y-61498300D02*
X79329000Y-65500000D01*
X137764000Y-102500000D02*
X137732000Y-102532000D01*
X177965000Y-129500000D02*
X176819000Y-128354000D01*
X139672500Y-102499900D02*
X139672500Y-102500000D01*
X107157000Y-84044700D02*
X107157000Y-102247000D01*
X107410000Y-102500000D02*
X108544000Y-102500000D01*
X91110000Y-77049500D02*
X92262100Y-75897400D01*
X102116000Y-79003800D02*
X107157000Y-84044700D01*
X140182000Y-101990000D02*
X139927000Y-102245000D01*
X93058300Y-64500000D02*
X90056600Y-61498300D01*
X97916400Y-79003800D02*
X102116000Y-79003800D01*
X140182000Y-101990000D02*
X139927000Y-102245000D01*
X91110000Y-78500000D02*
X91110000Y-77049500D01*
X94810000Y-64500000D02*
X94810000Y-75897400D01*
X79329000Y-65500000D02*
X77810000Y-65500000D01*
X142002000Y-101481000D02*
X140692000Y-101481000D01*
X139927000Y-102245000D02*
X139672500Y-102499500D01*
X142854000Y-102332000D02*
X142002000Y-101481000D01*
X139672500Y-102499500D02*
X139672300Y-102499700D01*
X107157000Y-102247000D02*
X107410000Y-102500000D01*
X92262100Y-75897400D02*
X94810000Y-75897400D01*
X139672300Y-102499700D02*
X139672000Y-102500000D01*
X142854000Y-128421000D02*
X142854000Y-102332000D01*
X94810000Y-75897400D02*
X97916400Y-79003800D01*
X139672300Y-102499700D02*
X139672500Y-102499900D01*
X79329000Y-75290200D02*
X79329000Y-65500000D01*
X140692000Y-101481000D02*
X140182000Y-101990000D01*
X139672300Y-102499700D02*
X139672000Y-102500000D01*
X108544000Y-102500000D02*
X108576000Y-102532000D01*
X176819000Y-128354000D02*
X176819000Y-117654000D01*
X139927000Y-102245000D02*
X139672500Y-102499500D01*
X90056600Y-61498300D02*
X83330700Y-61498300D01*
X182540000Y-111932000D02*
X182540000Y-50000000D01*
X176819000Y-117654000D02*
X182540000Y-111932000D01*
X141775000Y-129500000D02*
X142854000Y-128421000D01*
X139672500Y-102499500D02*
X139672300Y-102499700D01*
X94810000Y-64500000D02*
X93058300Y-64500000D01*
X139672000Y-102500000D02*
X137764000Y-102500000D01*
%TO.N,/BallValveOpen*%
X109532000Y-113484000D02*
X108870000Y-112822000D01*
X111698000Y-115650000D02*
X114045000Y-115650000D01*
X111698000Y-115650000D02*
X109532000Y-113484000D01*
X109035500Y-112988000D02*
X107547500Y-111500000D01*
X111698000Y-125388000D02*
X107585000Y-129500000D01*
X111698000Y-115650000D02*
X111698000Y-125388000D01*
X109532000Y-113484000D02*
X109531000Y-113484000D01*
X109035500Y-112988000D02*
X108540000Y-112492000D01*
X109531000Y-113484000D02*
X109035500Y-112988000D01*
%TO.N,Net-(D2-K)*%
X106945000Y-108965000D02*
X106945000Y-112090000D01*
X107410000Y-108500000D02*
X106945000Y-108965000D01*
X108500000Y-113645000D02*
X108500000Y-119706000D01*
X106945000Y-112090000D02*
X108500000Y-113645000D01*
X108500000Y-119706000D02*
X107585000Y-120621000D01*
%TO.N,/BallValveClose*%
X127045000Y-115150000D02*
X126947000Y-115150000D01*
X126947000Y-115150000D02*
X112597000Y-129500000D01*
X112597000Y-129500000D02*
X111395000Y-129500000D01*
X139535000Y-111500000D02*
X130695000Y-111500000D01*
X130695000Y-111500000D02*
X127045000Y-115150000D01*
%TO.N,Net-(D4-K)*%
X141585000Y-107869000D02*
X140793000Y-107077000D01*
X141585000Y-108500000D02*
X141585000Y-107869000D01*
%TO.N,/GPIO_TubValve*%
X78361700Y-101500000D02*
X78361700Y-102152000D01*
X78361700Y-102152000D02*
X81710000Y-105500000D01*
X76810000Y-101500000D02*
X78361700Y-101500000D01*
%TO.N,/GPIO_Dallas1*%
X166498000Y-114816000D02*
X166498000Y-114044000D01*
X166498000Y-112886000D02*
X166498000Y-112500000D01*
X161504000Y-116663000D02*
X161504000Y-102911000D01*
X161504000Y-102911000D02*
X154741000Y-96147700D01*
X166498000Y-113658000D02*
X166498000Y-113272000D01*
X166498000Y-115588000D02*
X166498000Y-114816000D01*
X166498000Y-113658000D02*
X166498000Y-113272000D01*
X154741000Y-75968600D02*
X155810000Y-74900000D01*
X166498000Y-114816000D02*
X166498000Y-114044000D01*
X166498000Y-114044000D02*
X166498000Y-113658000D01*
X166498000Y-112886000D02*
X166497500Y-112885500D01*
X164264000Y-119422000D02*
X161504000Y-116663000D01*
X164978000Y-119422000D02*
X164775000Y-119422000D01*
X166497500Y-112885500D02*
X166497500Y-112500000D01*
X166498000Y-113272000D02*
X166498000Y-112886000D01*
X164775000Y-119422000D02*
X164775000Y-129500000D01*
X165585000Y-116500000D02*
X166498000Y-115588000D01*
X165585000Y-116500000D02*
X165585000Y-118815000D01*
X164775000Y-119422000D02*
X164264000Y-119422000D01*
X154741000Y-96147700D02*
X154741000Y-75968600D01*
X165585000Y-118815000D02*
X164978000Y-119422000D01*
%TO.N,+3.3V*%
X164672500Y-112499500D02*
X165180000Y-111992000D01*
X174672500Y-113811500D02*
X174672500Y-112562500D01*
X152710000Y-101625000D02*
X152308000Y-101223000D01*
X174672000Y-116312000D02*
X174672000Y-117562000D01*
X155647500Y-118500000D02*
X155648000Y-118500000D01*
X173594000Y-111484000D02*
X174672000Y-112562000D01*
X149622000Y-101861000D02*
X150260000Y-101223000D01*
X174672000Y-117562000D02*
X175547500Y-118437500D01*
X155648000Y-118500000D02*
X155648000Y-117765000D01*
X164672000Y-112500000D02*
X164672500Y-112499500D01*
X148835000Y-106500000D02*
X149622000Y-105712000D01*
X174672000Y-115062000D02*
X174672000Y-116312000D01*
X130410000Y-49500000D02*
X129343000Y-49500000D01*
X155648000Y-117765000D02*
X155739000Y-117673000D01*
X152308000Y-101223000D02*
X151500000Y-101223000D01*
X164672500Y-112499500D02*
X164672500Y-112500000D01*
X150260000Y-101223000D02*
X151500000Y-101223000D01*
X164635000Y-117670000D02*
X164635000Y-112538000D01*
X164635000Y-112538000D02*
X164672000Y-112500000D01*
X151648000Y-120325000D02*
X151953000Y-120325000D01*
X151953000Y-120325000D02*
X153586000Y-118693000D01*
X153586000Y-118693000D02*
X153586000Y-118364000D01*
X164635000Y-117670000D02*
X163813000Y-117670000D01*
X129343000Y-49500000D02*
X126343000Y-52500000D01*
X165180000Y-111992000D02*
X165689000Y-111484000D01*
X126343000Y-52500000D02*
X114635000Y-52500000D01*
X174672000Y-113812000D02*
X174672500Y-113811500D01*
X164635000Y-118375000D02*
X164635000Y-117670000D01*
X174672000Y-115062000D02*
X174672000Y-116312000D01*
X165689000Y-111484000D02*
X173594000Y-111484000D01*
X151647500Y-120325000D02*
X151648000Y-120325000D01*
X174672000Y-112562000D02*
X174672000Y-113812000D01*
X149622000Y-105712000D02*
X149622000Y-101861000D01*
X174672000Y-113812000D02*
X174672000Y-115062000D01*
X175547500Y-118437500D02*
X175548000Y-118438000D01*
%TO.N,/GPIO_Dallas2*%
X176498000Y-113562000D02*
X176497500Y-113561500D01*
X176390000Y-130927000D02*
X176390000Y-116670000D01*
X176497500Y-116562500D02*
X176498000Y-116562000D01*
X176498000Y-110890000D02*
X176498000Y-112562000D01*
X176498000Y-115562000D02*
X176498000Y-114562000D01*
X176498000Y-114562000D02*
X176498000Y-115562000D01*
X180573000Y-129500000D02*
X180573000Y-129876000D01*
X180573000Y-129876000D02*
X178818000Y-131630000D01*
X176497500Y-113561500D02*
X176497500Y-112562500D01*
X178818000Y-131630000D02*
X177094000Y-131630000D01*
X176498000Y-102545000D02*
X176498000Y-107217000D01*
X176498000Y-113562000D02*
X176498000Y-114562000D01*
X176498000Y-102544000D02*
X176498000Y-102545000D01*
X176498000Y-116562000D02*
X176498000Y-115562000D01*
X176498000Y-112562000D02*
X176498000Y-113562000D01*
X176498000Y-110890000D02*
X176498000Y-112562000D01*
X176498000Y-97871800D02*
X156066000Y-77440000D01*
X176498000Y-102544000D02*
X176498000Y-97871800D01*
X176498000Y-107217000D02*
X176498000Y-102545000D01*
X156066000Y-77440000D02*
X155810000Y-77440000D01*
X176498000Y-102545000D02*
X176498000Y-102544000D01*
X176498000Y-107217000D02*
X176498000Y-110890000D01*
X176390000Y-116670000D02*
X176497500Y-116562500D01*
X177094000Y-131630000D02*
X176390000Y-130927000D01*
X181775000Y-129500000D02*
X180573000Y-129500000D01*
%TO.N,/GPIO_I2C_SCL*%
X138657600Y-54580000D02*
X137945300Y-55292300D01*
X155810000Y-54580000D02*
X138657600Y-54580000D01*
%TO.N,Net-(D10-COM)*%
X148648000Y-118588000D02*
X147590000Y-119645000D01*
X147590000Y-120868000D02*
X147976000Y-121254000D01*
X153772500Y-117550500D02*
X153772000Y-117550000D01*
X153735000Y-121500000D02*
X153235000Y-121000000D01*
X152980000Y-121254000D02*
X153235000Y-121000000D01*
X147976000Y-121254000D02*
X152980000Y-121254000D01*
X148647500Y-118587500D02*
X148648000Y-118588000D01*
X145570000Y-120868000D02*
X144875000Y-121562000D01*
X147590000Y-120868000D02*
X145570000Y-120868000D01*
X154187000Y-117965000D02*
X153772500Y-117550500D01*
X153235000Y-121000000D02*
X154187000Y-120047000D01*
X154187000Y-120047000D02*
X154187000Y-117965000D01*
X153772500Y-117550500D02*
X153772500Y-117550000D01*
X147590000Y-119645000D02*
X147590000Y-120868000D01*
%TO.N,Net-(D12-COM)*%
X150535000Y-102450000D02*
X150535000Y-107275000D01*
X154542000Y-102705000D02*
X154834000Y-102414000D01*
X154791000Y-107094000D02*
X154542000Y-106844000D01*
X151267000Y-108007000D02*
X150808000Y-108466000D01*
X155126000Y-102122000D02*
X155710000Y-101538000D01*
X150535000Y-107275000D02*
X150710000Y-107450000D01*
X154834000Y-102414000D02*
X155126000Y-102122000D01*
X154834000Y-102414000D02*
X155126000Y-102122000D01*
X151267000Y-108007000D02*
X151329000Y-108069000D01*
X154479000Y-108069000D02*
X154791000Y-107756000D01*
X154542000Y-106844000D02*
X154542000Y-102705000D01*
X154791000Y-107756000D02*
X154791000Y-107094000D01*
X151329000Y-108069000D02*
X154479000Y-108069000D01*
X155710000Y-101538000D02*
X155710000Y-101537500D01*
X150710000Y-107450000D02*
X151267000Y-108007000D01*
%TO.N,/GPIO10*%
X121810000Y-91740000D02*
X128810000Y-91740000D01*
X128810000Y-91740000D02*
X130410000Y-90140000D01*
%TO.N,Net-(D20-K)*%
X111710000Y-72500000D02*
X111710000Y-78500000D01*
X110562000Y-64500000D02*
X110562000Y-71351700D01*
X108810000Y-64500000D02*
X110562000Y-64500000D01*
X110562000Y-71351700D02*
X111710000Y-72500000D01*
%TO.N,Net-(D21-K)*%
X87710000Y-72500000D02*
X84910000Y-69700000D01*
X87710000Y-72500000D02*
X87710000Y-78500000D01*
X84910000Y-69700000D02*
X84910000Y-64500000D01*
%TO.N,/GPIO_Servo*%
X148901000Y-131614000D02*
X149893000Y-131614000D01*
X145585000Y-129500000D02*
X146787000Y-129500000D01*
X157146000Y-101480000D02*
X154340000Y-98673200D01*
X149893000Y-131614000D02*
X157146000Y-124361000D01*
X157146000Y-124361000D02*
X157146000Y-101480000D01*
X154340000Y-98673200D02*
X154340000Y-71290300D01*
X154340000Y-71290300D02*
X155810000Y-69820000D01*
X146787000Y-129500000D02*
X148901000Y-131614000D01*
%TO.N,/TubValve_NC*%
X88810000Y-115252000D02*
X87810000Y-116252000D01*
X88810000Y-113700000D02*
X88810000Y-115252000D01*
X87810000Y-116252000D02*
X87810000Y-129500000D01*
%TO.N,/TubValve_NO*%
X76810000Y-128660000D02*
X76810000Y-113700000D01*
X77650000Y-129500000D02*
X76810000Y-128660000D01*
%TO.N,/TubValve_V*%
X82730000Y-129500000D02*
X82730000Y-127398000D01*
X82730000Y-127398000D02*
X82810000Y-127318000D01*
X82810000Y-127318000D02*
X82810000Y-99500000D01*
%TO.N,/BallValveOpen_Feedback*%
X144112000Y-130179000D02*
X144112000Y-128355000D01*
X149698000Y-122769000D02*
X154291000Y-122769000D01*
X124725000Y-129625000D02*
X126832000Y-131732000D01*
X142560000Y-131732000D02*
X144112000Y-130179000D01*
X144112000Y-128355000D02*
X149698000Y-122769000D01*
X154291000Y-122769000D02*
X155560000Y-121500000D01*
X126832000Y-131732000D02*
X142560000Y-131732000D01*
%TO.N,/BallValveClose_Feedback*%
X148710000Y-102450000D02*
X147795000Y-103365000D01*
X147795000Y-112649000D02*
X148501000Y-113355000D01*
X147795000Y-103365000D02*
X147795000Y-112649000D01*
%TO.N,Net-(J9-CC2)*%
X94810000Y-50798700D02*
X97435000Y-53423700D01*
X94810000Y-45500000D02*
X94810000Y-50798700D01*
%TO.N,Net-(J9-CC1)*%
X97810000Y-45500000D02*
X97810000Y-52797500D01*
X97810000Y-52797500D02*
X98462500Y-53450000D01*
%TO.N,/GPIO_BallValveOpen_Feedback*%
X148368000Y-114096000D02*
X148710000Y-114438000D01*
X130694000Y-68550000D02*
X143630000Y-81486700D01*
X143630000Y-81486700D02*
X143630000Y-109358000D01*
X148668000Y-114395000D02*
X148689000Y-114416000D01*
X130410000Y-59660000D02*
X129301000Y-60769300D01*
X148700000Y-114427000D02*
X148705000Y-114432500D01*
X148540000Y-114267000D02*
X148668000Y-114395000D01*
X148709800Y-114437700D02*
X148710000Y-114438000D01*
X148368000Y-114096000D02*
X148369000Y-114096000D01*
X129301000Y-60769300D02*
X129301000Y-67746000D01*
X148705000Y-114432500D02*
X148707500Y-114435200D01*
X148540000Y-114267000D02*
X148668000Y-114395000D01*
X148369000Y-114096000D02*
X148540000Y-114267000D01*
X148710000Y-115562000D02*
X151648000Y-118500000D01*
X148689000Y-114416000D02*
X148700000Y-114427000D01*
X143630000Y-109358000D02*
X148368000Y-114096000D01*
X148707500Y-114435200D02*
X148709800Y-114437700D01*
X148709800Y-114437700D02*
X148710000Y-114438000D01*
X148705000Y-114432500D02*
X148707500Y-114435200D01*
X148710000Y-114438000D02*
X148710000Y-115562000D01*
X148668000Y-114395000D02*
X148689000Y-114416000D01*
X148689000Y-114416000D02*
X148700000Y-114427000D01*
X148700000Y-114427000D02*
X148705000Y-114432500D01*
X130105000Y-68550000D02*
X130694000Y-68550000D01*
X148707500Y-114435200D02*
X148709800Y-114437700D01*
X129301000Y-67746000D02*
X130105000Y-68550000D01*
X148710000Y-114437500D02*
X148709800Y-114437700D01*
%TO.N,Net-(Q1-B)*%
X152661000Y-115564000D02*
X150585000Y-113488000D01*
X150585000Y-113487500D02*
X150585000Y-113488000D01*
X152373000Y-119315000D02*
X152661000Y-119027000D01*
X149745000Y-119315000D02*
X152373000Y-119315000D01*
X148647500Y-120412500D02*
X148648000Y-120412000D01*
X148648000Y-120412000D02*
X149745000Y-119315000D01*
X152661000Y-119027000D02*
X152661000Y-115564000D01*
%TO.N,Net-(Q2-B)*%
X155710000Y-103362500D02*
X155710000Y-103362000D01*
X155710000Y-103363000D02*
X155710000Y-103362500D01*
X155585000Y-103488000D02*
X155710000Y-103363000D01*
X155585000Y-106500000D02*
X155585000Y-103488000D01*
%TO.N,/GPIO_BallValveClose_Feedback*%
X153722000Y-85512400D02*
X130410000Y-62200000D01*
X153710000Y-104450000D02*
X153710000Y-107450000D01*
X152710000Y-103450000D02*
X153722000Y-102438000D01*
X153722000Y-102438000D02*
X153722000Y-85512400D01*
X152710000Y-103450000D02*
X153710000Y-104450000D01*
%TO.N,Net-(Q3-B)*%
X106536000Y-113626000D02*
X107460000Y-114550000D01*
X105585000Y-105500000D02*
X105585000Y-106832000D01*
X106536000Y-107783000D02*
X106536000Y-113626000D01*
X105585000Y-106832000D02*
X106536000Y-107783000D01*
%TO.N,Net-(Q3-C)*%
X110393000Y-109952000D02*
X110393000Y-110750000D01*
X104757000Y-104822000D02*
X105619000Y-103961000D01*
X105585000Y-103927000D02*
X105619000Y-103961000D01*
X105585000Y-102500000D02*
X105585000Y-103927000D01*
X107771000Y-107330000D02*
X110393000Y-109952000D01*
X106400000Y-106048000D02*
X107682000Y-107330000D01*
X105585000Y-115500000D02*
X104757000Y-114672000D01*
X110393000Y-110750000D02*
X112020000Y-112378000D01*
X107682000Y-107330000D02*
X107771000Y-107330000D01*
X115853000Y-112378000D02*
X119125000Y-115650000D01*
X112020000Y-112378000D02*
X115853000Y-112378000D01*
X106400000Y-104742000D02*
X106400000Y-106048000D01*
X104757000Y-114672000D02*
X104757000Y-104822000D01*
X105619000Y-103961000D02*
X106400000Y-104742000D01*
%TO.N,Net-(Q5-B)*%
X141585000Y-114500000D02*
X142419000Y-113666000D01*
X141670000Y-105672500D02*
X141497500Y-105500000D01*
X141843000Y-105845000D02*
X141842000Y-105845000D01*
X142188000Y-106190000D02*
X141958000Y-105960000D01*
X141842000Y-105845000D02*
X141670000Y-105672500D01*
X142419000Y-113666000D02*
X142419000Y-106421000D01*
X142188000Y-106190000D02*
X141958000Y-105960000D01*
X141958000Y-105960000D02*
X141843000Y-105845000D01*
X141843000Y-105845000D02*
X141728000Y-105730000D01*
X141670000Y-105672500D02*
X141498000Y-105500000D01*
X142419000Y-106421000D02*
X142188000Y-106190000D01*
%TO.N,Net-(Q5-C)*%
X138944000Y-107723000D02*
X140585000Y-106082000D01*
X140585000Y-106082000D02*
X140585000Y-103412000D01*
X140814000Y-103184000D02*
X141042000Y-102956000D01*
X141042000Y-102956000D02*
X141497500Y-102500500D01*
X132125000Y-115150000D02*
X139410000Y-115150000D01*
X140148000Y-110762000D02*
X138944000Y-109557000D01*
X141497500Y-102500500D02*
X141498000Y-102500000D01*
X140148000Y-111895000D02*
X140148000Y-110762000D01*
X139410000Y-112633000D02*
X140148000Y-111895000D01*
X140585000Y-103412000D02*
X140814000Y-103184000D01*
X141497500Y-102500500D02*
X141497500Y-102500000D01*
X138944000Y-109557000D02*
X138944000Y-107723000D01*
X139410000Y-115150000D02*
X139410000Y-112633000D01*
X140814000Y-103184000D02*
X141042000Y-102956000D01*
X139410000Y-115150000D02*
X139710000Y-115450000D01*
%TO.N,/GPIO_BallValveOpen*%
X107410000Y-104822000D02*
X106784000Y-104196000D01*
X107410000Y-105500000D02*
X107410000Y-104822000D01*
%TO.N,/GPIO_BallValveClose*%
X132010000Y-71419600D02*
X132010000Y-97837100D01*
X138847500Y-104675000D02*
X139122000Y-104950000D01*
X130410000Y-69820000D02*
X132010000Y-71419600D01*
X132010000Y-97837100D02*
X138573000Y-104400000D01*
X138573000Y-104400000D02*
X138847500Y-104675000D01*
X138847500Y-104675000D02*
X139672500Y-105500000D01*
%TO.N,/GPIO_ADC8*%
X155810000Y-87600000D02*
X165375000Y-87600000D01*
X165375000Y-87600000D02*
X171541000Y-93765800D01*
%TD*%
M02*
