%TF.GenerationSoftware,KiCad,Pcbnew,8.0.3*%
%TF.CreationDate,2024-07-13T16:10:20+00:00*%
%TF.ProjectId,jacuzzi,6a616375-7a7a-4692-9e6b-696361645f70,rev?*%
%TF.SameCoordinates,Original*%
%TF.FileFunction,Legend,Bot*%
%TF.FilePolarity,Positive*%
%FSLAX46Y46*%
G04 Gerber Fmt 4.6, Leading zero omitted, Abs format (unit mm)*
G04 Created by KiCad (PCBNEW 8.0.3) date 2024-07-13 16:10:20*
%MOMM*%
%LPD*%
G01*
G04 APERTURE LIST*
%ADD10C,0.150000*%
%ADD11C,0.120000*%
G04 APERTURE END LIST*
D10*
X140751666Y-107604819D02*
X141084999Y-107128628D01*
X141323094Y-107604819D02*
X141323094Y-106604819D01*
X141323094Y-106604819D02*
X140942142Y-106604819D01*
X140942142Y-106604819D02*
X140846904Y-106652438D01*
X140846904Y-106652438D02*
X140799285Y-106700057D01*
X140799285Y-106700057D02*
X140751666Y-106795295D01*
X140751666Y-106795295D02*
X140751666Y-106938152D01*
X140751666Y-106938152D02*
X140799285Y-107033390D01*
X140799285Y-107033390D02*
X140846904Y-107081009D01*
X140846904Y-107081009D02*
X140942142Y-107128628D01*
X140942142Y-107128628D02*
X141323094Y-107128628D01*
X139894523Y-106938152D02*
X139894523Y-107604819D01*
X140132618Y-106557200D02*
X140370713Y-107271485D01*
X140370713Y-107271485D02*
X139751666Y-107271485D01*
X99914819Y-43944642D02*
X99438628Y-43611309D01*
X99914819Y-43373214D02*
X98914819Y-43373214D01*
X98914819Y-43373214D02*
X98914819Y-43754166D01*
X98914819Y-43754166D02*
X98962438Y-43849404D01*
X98962438Y-43849404D02*
X99010057Y-43897023D01*
X99010057Y-43897023D02*
X99105295Y-43944642D01*
X99105295Y-43944642D02*
X99248152Y-43944642D01*
X99248152Y-43944642D02*
X99343390Y-43897023D01*
X99343390Y-43897023D02*
X99391009Y-43849404D01*
X99391009Y-43849404D02*
X99438628Y-43754166D01*
X99438628Y-43754166D02*
X99438628Y-43373214D01*
X99010057Y-44325595D02*
X98962438Y-44373214D01*
X98962438Y-44373214D02*
X98914819Y-44468452D01*
X98914819Y-44468452D02*
X98914819Y-44706547D01*
X98914819Y-44706547D02*
X98962438Y-44801785D01*
X98962438Y-44801785D02*
X99010057Y-44849404D01*
X99010057Y-44849404D02*
X99105295Y-44897023D01*
X99105295Y-44897023D02*
X99200533Y-44897023D01*
X99200533Y-44897023D02*
X99343390Y-44849404D01*
X99343390Y-44849404D02*
X99914819Y-44277976D01*
X99914819Y-44277976D02*
X99914819Y-44897023D01*
X98914819Y-45230357D02*
X98914819Y-45849404D01*
X98914819Y-45849404D02*
X99295771Y-45516071D01*
X99295771Y-45516071D02*
X99295771Y-45658928D01*
X99295771Y-45658928D02*
X99343390Y-45754166D01*
X99343390Y-45754166D02*
X99391009Y-45801785D01*
X99391009Y-45801785D02*
X99486247Y-45849404D01*
X99486247Y-45849404D02*
X99724342Y-45849404D01*
X99724342Y-45849404D02*
X99819580Y-45801785D01*
X99819580Y-45801785D02*
X99867200Y-45754166D01*
X99867200Y-45754166D02*
X99914819Y-45658928D01*
X99914819Y-45658928D02*
X99914819Y-45373214D01*
X99914819Y-45373214D02*
X99867200Y-45277976D01*
X99867200Y-45277976D02*
X99819580Y-45230357D01*
X96914819Y-43944642D02*
X96438628Y-43611309D01*
X96914819Y-43373214D02*
X95914819Y-43373214D01*
X95914819Y-43373214D02*
X95914819Y-43754166D01*
X95914819Y-43754166D02*
X95962438Y-43849404D01*
X95962438Y-43849404D02*
X96010057Y-43897023D01*
X96010057Y-43897023D02*
X96105295Y-43944642D01*
X96105295Y-43944642D02*
X96248152Y-43944642D01*
X96248152Y-43944642D02*
X96343390Y-43897023D01*
X96343390Y-43897023D02*
X96391009Y-43849404D01*
X96391009Y-43849404D02*
X96438628Y-43754166D01*
X96438628Y-43754166D02*
X96438628Y-43373214D01*
X96010057Y-44325595D02*
X95962438Y-44373214D01*
X95962438Y-44373214D02*
X95914819Y-44468452D01*
X95914819Y-44468452D02*
X95914819Y-44706547D01*
X95914819Y-44706547D02*
X95962438Y-44801785D01*
X95962438Y-44801785D02*
X96010057Y-44849404D01*
X96010057Y-44849404D02*
X96105295Y-44897023D01*
X96105295Y-44897023D02*
X96200533Y-44897023D01*
X96200533Y-44897023D02*
X96343390Y-44849404D01*
X96343390Y-44849404D02*
X96914819Y-44277976D01*
X96914819Y-44277976D02*
X96914819Y-44897023D01*
X96248152Y-45754166D02*
X96914819Y-45754166D01*
X95867200Y-45516071D02*
X96581485Y-45277976D01*
X96581485Y-45277976D02*
X96581485Y-45897023D01*
X154742738Y-105600057D02*
X154837976Y-105552438D01*
X154837976Y-105552438D02*
X154933214Y-105457200D01*
X154933214Y-105457200D02*
X155076071Y-105314342D01*
X155076071Y-105314342D02*
X155171309Y-105266723D01*
X155171309Y-105266723D02*
X155266547Y-105266723D01*
X155218928Y-105504819D02*
X155314166Y-105457200D01*
X155314166Y-105457200D02*
X155409404Y-105361961D01*
X155409404Y-105361961D02*
X155457023Y-105171485D01*
X155457023Y-105171485D02*
X155457023Y-104838152D01*
X155457023Y-104838152D02*
X155409404Y-104647676D01*
X155409404Y-104647676D02*
X155314166Y-104552438D01*
X155314166Y-104552438D02*
X155218928Y-104504819D01*
X155218928Y-104504819D02*
X155028452Y-104504819D01*
X155028452Y-104504819D02*
X154933214Y-104552438D01*
X154933214Y-104552438D02*
X154837976Y-104647676D01*
X154837976Y-104647676D02*
X154790357Y-104838152D01*
X154790357Y-104838152D02*
X154790357Y-105171485D01*
X154790357Y-105171485D02*
X154837976Y-105361961D01*
X154837976Y-105361961D02*
X154933214Y-105457200D01*
X154933214Y-105457200D02*
X155028452Y-105504819D01*
X155028452Y-105504819D02*
X155218928Y-105504819D01*
X154409404Y-104600057D02*
X154361785Y-104552438D01*
X154361785Y-104552438D02*
X154266547Y-104504819D01*
X154266547Y-104504819D02*
X154028452Y-104504819D01*
X154028452Y-104504819D02*
X153933214Y-104552438D01*
X153933214Y-104552438D02*
X153885595Y-104600057D01*
X153885595Y-104600057D02*
X153837976Y-104695295D01*
X153837976Y-104695295D02*
X153837976Y-104790533D01*
X153837976Y-104790533D02*
X153885595Y-104933390D01*
X153885595Y-104933390D02*
X154457023Y-105504819D01*
X154457023Y-105504819D02*
X153837976Y-105504819D01*
X136785057Y-107404761D02*
X136737438Y-107309523D01*
X136737438Y-107309523D02*
X136642200Y-107214285D01*
X136642200Y-107214285D02*
X136499342Y-107071428D01*
X136499342Y-107071428D02*
X136451723Y-106976190D01*
X136451723Y-106976190D02*
X136451723Y-106880952D01*
X136689819Y-106928571D02*
X136642200Y-106833333D01*
X136642200Y-106833333D02*
X136546961Y-106738095D01*
X136546961Y-106738095D02*
X136356485Y-106690476D01*
X136356485Y-106690476D02*
X136023152Y-106690476D01*
X136023152Y-106690476D02*
X135832676Y-106738095D01*
X135832676Y-106738095D02*
X135737438Y-106833333D01*
X135737438Y-106833333D02*
X135689819Y-106928571D01*
X135689819Y-106928571D02*
X135689819Y-107119047D01*
X135689819Y-107119047D02*
X135737438Y-107214285D01*
X135737438Y-107214285D02*
X135832676Y-107309523D01*
X135832676Y-107309523D02*
X136023152Y-107357142D01*
X136023152Y-107357142D02*
X136356485Y-107357142D01*
X136356485Y-107357142D02*
X136546961Y-107309523D01*
X136546961Y-107309523D02*
X136642200Y-107214285D01*
X136642200Y-107214285D02*
X136689819Y-107119047D01*
X136689819Y-107119047D02*
X136689819Y-106928571D01*
X135689819Y-108214285D02*
X135689819Y-108023809D01*
X135689819Y-108023809D02*
X135737438Y-107928571D01*
X135737438Y-107928571D02*
X135785057Y-107880952D01*
X135785057Y-107880952D02*
X135927914Y-107785714D01*
X135927914Y-107785714D02*
X136118390Y-107738095D01*
X136118390Y-107738095D02*
X136499342Y-107738095D01*
X136499342Y-107738095D02*
X136594580Y-107785714D01*
X136594580Y-107785714D02*
X136642200Y-107833333D01*
X136642200Y-107833333D02*
X136689819Y-107928571D01*
X136689819Y-107928571D02*
X136689819Y-108119047D01*
X136689819Y-108119047D02*
X136642200Y-108214285D01*
X136642200Y-108214285D02*
X136594580Y-108261904D01*
X136594580Y-108261904D02*
X136499342Y-108309523D01*
X136499342Y-108309523D02*
X136261247Y-108309523D01*
X136261247Y-108309523D02*
X136166009Y-108261904D01*
X136166009Y-108261904D02*
X136118390Y-108214285D01*
X136118390Y-108214285D02*
X136070771Y-108119047D01*
X136070771Y-108119047D02*
X136070771Y-107928571D01*
X136070771Y-107928571D02*
X136118390Y-107833333D01*
X136118390Y-107833333D02*
X136166009Y-107785714D01*
X136166009Y-107785714D02*
X136261247Y-107738095D01*
X175751666Y-114667319D02*
X176084999Y-114191128D01*
X176323094Y-114667319D02*
X176323094Y-113667319D01*
X176323094Y-113667319D02*
X175942142Y-113667319D01*
X175942142Y-113667319D02*
X175846904Y-113714938D01*
X175846904Y-113714938D02*
X175799285Y-113762557D01*
X175799285Y-113762557D02*
X175751666Y-113857795D01*
X175751666Y-113857795D02*
X175751666Y-114000652D01*
X175751666Y-114000652D02*
X175799285Y-114095890D01*
X175799285Y-114095890D02*
X175846904Y-114143509D01*
X175846904Y-114143509D02*
X175942142Y-114191128D01*
X175942142Y-114191128D02*
X176323094Y-114191128D01*
X175180237Y-114095890D02*
X175275475Y-114048271D01*
X175275475Y-114048271D02*
X175323094Y-114000652D01*
X175323094Y-114000652D02*
X175370713Y-113905414D01*
X175370713Y-113905414D02*
X175370713Y-113857795D01*
X175370713Y-113857795D02*
X175323094Y-113762557D01*
X175323094Y-113762557D02*
X175275475Y-113714938D01*
X175275475Y-113714938D02*
X175180237Y-113667319D01*
X175180237Y-113667319D02*
X174989761Y-113667319D01*
X174989761Y-113667319D02*
X174894523Y-113714938D01*
X174894523Y-113714938D02*
X174846904Y-113762557D01*
X174846904Y-113762557D02*
X174799285Y-113857795D01*
X174799285Y-113857795D02*
X174799285Y-113905414D01*
X174799285Y-113905414D02*
X174846904Y-114000652D01*
X174846904Y-114000652D02*
X174894523Y-114048271D01*
X174894523Y-114048271D02*
X174989761Y-114095890D01*
X174989761Y-114095890D02*
X175180237Y-114095890D01*
X175180237Y-114095890D02*
X175275475Y-114143509D01*
X175275475Y-114143509D02*
X175323094Y-114191128D01*
X175323094Y-114191128D02*
X175370713Y-114286366D01*
X175370713Y-114286366D02*
X175370713Y-114476842D01*
X175370713Y-114476842D02*
X175323094Y-114572080D01*
X175323094Y-114572080D02*
X175275475Y-114619700D01*
X175275475Y-114619700D02*
X175180237Y-114667319D01*
X175180237Y-114667319D02*
X174989761Y-114667319D01*
X174989761Y-114667319D02*
X174894523Y-114619700D01*
X174894523Y-114619700D02*
X174846904Y-114572080D01*
X174846904Y-114572080D02*
X174799285Y-114476842D01*
X174799285Y-114476842D02*
X174799285Y-114286366D01*
X174799285Y-114286366D02*
X174846904Y-114191128D01*
X174846904Y-114191128D02*
X174894523Y-114143509D01*
X174894523Y-114143509D02*
X174989761Y-114095890D01*
X106214819Y-85388095D02*
X107024342Y-85388095D01*
X107024342Y-85388095D02*
X107119580Y-85435714D01*
X107119580Y-85435714D02*
X107167200Y-85483333D01*
X107167200Y-85483333D02*
X107214819Y-85578571D01*
X107214819Y-85578571D02*
X107214819Y-85769047D01*
X107214819Y-85769047D02*
X107167200Y-85864285D01*
X107167200Y-85864285D02*
X107119580Y-85911904D01*
X107119580Y-85911904D02*
X107024342Y-85959523D01*
X107024342Y-85959523D02*
X106214819Y-85959523D01*
X107214819Y-86959523D02*
X107214819Y-86388095D01*
X107214819Y-86673809D02*
X106214819Y-86673809D01*
X106214819Y-86673809D02*
X106357676Y-86578571D01*
X106357676Y-86578571D02*
X106452914Y-86483333D01*
X106452914Y-86483333D02*
X106500533Y-86388095D01*
X196751666Y-83074819D02*
X197084999Y-82598628D01*
X197323094Y-83074819D02*
X197323094Y-82074819D01*
X197323094Y-82074819D02*
X196942142Y-82074819D01*
X196942142Y-82074819D02*
X196846904Y-82122438D01*
X196846904Y-82122438D02*
X196799285Y-82170057D01*
X196799285Y-82170057D02*
X196751666Y-82265295D01*
X196751666Y-82265295D02*
X196751666Y-82408152D01*
X196751666Y-82408152D02*
X196799285Y-82503390D01*
X196799285Y-82503390D02*
X196846904Y-82551009D01*
X196846904Y-82551009D02*
X196942142Y-82598628D01*
X196942142Y-82598628D02*
X197323094Y-82598628D01*
X196418332Y-82074819D02*
X195799285Y-82074819D01*
X195799285Y-82074819D02*
X196132618Y-82455771D01*
X196132618Y-82455771D02*
X195989761Y-82455771D01*
X195989761Y-82455771D02*
X195894523Y-82503390D01*
X195894523Y-82503390D02*
X195846904Y-82551009D01*
X195846904Y-82551009D02*
X195799285Y-82646247D01*
X195799285Y-82646247D02*
X195799285Y-82884342D01*
X195799285Y-82884342D02*
X195846904Y-82979580D01*
X195846904Y-82979580D02*
X195894523Y-83027200D01*
X195894523Y-83027200D02*
X195989761Y-83074819D01*
X195989761Y-83074819D02*
X196275475Y-83074819D01*
X196275475Y-83074819D02*
X196370713Y-83027200D01*
X196370713Y-83027200D02*
X196418332Y-82979580D01*
X147452319Y-118857142D02*
X146976128Y-118523809D01*
X147452319Y-118285714D02*
X146452319Y-118285714D01*
X146452319Y-118285714D02*
X146452319Y-118666666D01*
X146452319Y-118666666D02*
X146499938Y-118761904D01*
X146499938Y-118761904D02*
X146547557Y-118809523D01*
X146547557Y-118809523D02*
X146642795Y-118857142D01*
X146642795Y-118857142D02*
X146785652Y-118857142D01*
X146785652Y-118857142D02*
X146880890Y-118809523D01*
X146880890Y-118809523D02*
X146928509Y-118761904D01*
X146928509Y-118761904D02*
X146976128Y-118666666D01*
X146976128Y-118666666D02*
X146976128Y-118285714D01*
X147452319Y-119809523D02*
X147452319Y-119238095D01*
X147452319Y-119523809D02*
X146452319Y-119523809D01*
X146452319Y-119523809D02*
X146595176Y-119428571D01*
X146595176Y-119428571D02*
X146690414Y-119333333D01*
X146690414Y-119333333D02*
X146738033Y-119238095D01*
X146547557Y-120190476D02*
X146499938Y-120238095D01*
X146499938Y-120238095D02*
X146452319Y-120333333D01*
X146452319Y-120333333D02*
X146452319Y-120571428D01*
X146452319Y-120571428D02*
X146499938Y-120666666D01*
X146499938Y-120666666D02*
X146547557Y-120714285D01*
X146547557Y-120714285D02*
X146642795Y-120761904D01*
X146642795Y-120761904D02*
X146738033Y-120761904D01*
X146738033Y-120761904D02*
X146880890Y-120714285D01*
X146880890Y-120714285D02*
X147452319Y-120142857D01*
X147452319Y-120142857D02*
X147452319Y-120761904D01*
X150986785Y-110304819D02*
X150986785Y-109304819D01*
X150986785Y-109304819D02*
X150748690Y-109304819D01*
X150748690Y-109304819D02*
X150605833Y-109352438D01*
X150605833Y-109352438D02*
X150510595Y-109447676D01*
X150510595Y-109447676D02*
X150462976Y-109542914D01*
X150462976Y-109542914D02*
X150415357Y-109733390D01*
X150415357Y-109733390D02*
X150415357Y-109876247D01*
X150415357Y-109876247D02*
X150462976Y-110066723D01*
X150462976Y-110066723D02*
X150510595Y-110161961D01*
X150510595Y-110161961D02*
X150605833Y-110257200D01*
X150605833Y-110257200D02*
X150748690Y-110304819D01*
X150748690Y-110304819D02*
X150986785Y-110304819D01*
X149462976Y-110304819D02*
X150034404Y-110304819D01*
X149748690Y-110304819D02*
X149748690Y-109304819D01*
X149748690Y-109304819D02*
X149843928Y-109447676D01*
X149843928Y-109447676D02*
X149939166Y-109542914D01*
X149939166Y-109542914D02*
X150034404Y-109590533D01*
X149082023Y-109400057D02*
X149034404Y-109352438D01*
X149034404Y-109352438D02*
X148939166Y-109304819D01*
X148939166Y-109304819D02*
X148701071Y-109304819D01*
X148701071Y-109304819D02*
X148605833Y-109352438D01*
X148605833Y-109352438D02*
X148558214Y-109400057D01*
X148558214Y-109400057D02*
X148510595Y-109495295D01*
X148510595Y-109495295D02*
X148510595Y-109590533D01*
X148510595Y-109590533D02*
X148558214Y-109733390D01*
X148558214Y-109733390D02*
X149129642Y-110304819D01*
X149129642Y-110304819D02*
X148510595Y-110304819D01*
X154514819Y-101807142D02*
X154038628Y-101473809D01*
X154514819Y-101235714D02*
X153514819Y-101235714D01*
X153514819Y-101235714D02*
X153514819Y-101616666D01*
X153514819Y-101616666D02*
X153562438Y-101711904D01*
X153562438Y-101711904D02*
X153610057Y-101759523D01*
X153610057Y-101759523D02*
X153705295Y-101807142D01*
X153705295Y-101807142D02*
X153848152Y-101807142D01*
X153848152Y-101807142D02*
X153943390Y-101759523D01*
X153943390Y-101759523D02*
X153991009Y-101711904D01*
X153991009Y-101711904D02*
X154038628Y-101616666D01*
X154038628Y-101616666D02*
X154038628Y-101235714D01*
X154514819Y-102759523D02*
X154514819Y-102188095D01*
X154514819Y-102473809D02*
X153514819Y-102473809D01*
X153514819Y-102473809D02*
X153657676Y-102378571D01*
X153657676Y-102378571D02*
X153752914Y-102283333D01*
X153752914Y-102283333D02*
X153800533Y-102188095D01*
X153514819Y-103664285D02*
X153514819Y-103188095D01*
X153514819Y-103188095D02*
X153991009Y-103140476D01*
X153991009Y-103140476D02*
X153943390Y-103188095D01*
X153943390Y-103188095D02*
X153895771Y-103283333D01*
X153895771Y-103283333D02*
X153895771Y-103521428D01*
X153895771Y-103521428D02*
X153943390Y-103616666D01*
X153943390Y-103616666D02*
X153991009Y-103664285D01*
X153991009Y-103664285D02*
X154086247Y-103711904D01*
X154086247Y-103711904D02*
X154324342Y-103711904D01*
X154324342Y-103711904D02*
X154419580Y-103664285D01*
X154419580Y-103664285D02*
X154467200Y-103616666D01*
X154467200Y-103616666D02*
X154514819Y-103521428D01*
X154514819Y-103521428D02*
X154514819Y-103283333D01*
X154514819Y-103283333D02*
X154467200Y-103188095D01*
X154467200Y-103188095D02*
X154419580Y-103140476D01*
X96969580Y-78583333D02*
X97017200Y-78535714D01*
X97017200Y-78535714D02*
X97064819Y-78392857D01*
X97064819Y-78392857D02*
X97064819Y-78297619D01*
X97064819Y-78297619D02*
X97017200Y-78154762D01*
X97017200Y-78154762D02*
X96921961Y-78059524D01*
X96921961Y-78059524D02*
X96826723Y-78011905D01*
X96826723Y-78011905D02*
X96636247Y-77964286D01*
X96636247Y-77964286D02*
X96493390Y-77964286D01*
X96493390Y-77964286D02*
X96302914Y-78011905D01*
X96302914Y-78011905D02*
X96207676Y-78059524D01*
X96207676Y-78059524D02*
X96112438Y-78154762D01*
X96112438Y-78154762D02*
X96064819Y-78297619D01*
X96064819Y-78297619D02*
X96064819Y-78392857D01*
X96064819Y-78392857D02*
X96112438Y-78535714D01*
X96112438Y-78535714D02*
X96160057Y-78583333D01*
X96160057Y-78964286D02*
X96112438Y-79011905D01*
X96112438Y-79011905D02*
X96064819Y-79107143D01*
X96064819Y-79107143D02*
X96064819Y-79345238D01*
X96064819Y-79345238D02*
X96112438Y-79440476D01*
X96112438Y-79440476D02*
X96160057Y-79488095D01*
X96160057Y-79488095D02*
X96255295Y-79535714D01*
X96255295Y-79535714D02*
X96350533Y-79535714D01*
X96350533Y-79535714D02*
X96493390Y-79488095D01*
X96493390Y-79488095D02*
X97064819Y-78916667D01*
X97064819Y-78916667D02*
X97064819Y-79535714D01*
X107519580Y-62633333D02*
X107567200Y-62585714D01*
X107567200Y-62585714D02*
X107614819Y-62442857D01*
X107614819Y-62442857D02*
X107614819Y-62347619D01*
X107614819Y-62347619D02*
X107567200Y-62204762D01*
X107567200Y-62204762D02*
X107471961Y-62109524D01*
X107471961Y-62109524D02*
X107376723Y-62061905D01*
X107376723Y-62061905D02*
X107186247Y-62014286D01*
X107186247Y-62014286D02*
X107043390Y-62014286D01*
X107043390Y-62014286D02*
X106852914Y-62061905D01*
X106852914Y-62061905D02*
X106757676Y-62109524D01*
X106757676Y-62109524D02*
X106662438Y-62204762D01*
X106662438Y-62204762D02*
X106614819Y-62347619D01*
X106614819Y-62347619D02*
X106614819Y-62442857D01*
X106614819Y-62442857D02*
X106662438Y-62585714D01*
X106662438Y-62585714D02*
X106710057Y-62633333D01*
X106614819Y-62966667D02*
X106614819Y-63585714D01*
X106614819Y-63585714D02*
X106995771Y-63252381D01*
X106995771Y-63252381D02*
X106995771Y-63395238D01*
X106995771Y-63395238D02*
X107043390Y-63490476D01*
X107043390Y-63490476D02*
X107091009Y-63538095D01*
X107091009Y-63538095D02*
X107186247Y-63585714D01*
X107186247Y-63585714D02*
X107424342Y-63585714D01*
X107424342Y-63585714D02*
X107519580Y-63538095D01*
X107519580Y-63538095D02*
X107567200Y-63490476D01*
X107567200Y-63490476D02*
X107614819Y-63395238D01*
X107614819Y-63395238D02*
X107614819Y-63109524D01*
X107614819Y-63109524D02*
X107567200Y-63014286D01*
X107567200Y-63014286D02*
X107519580Y-62966667D01*
X155290357Y-120304819D02*
X155623690Y-119828628D01*
X155861785Y-120304819D02*
X155861785Y-119304819D01*
X155861785Y-119304819D02*
X155480833Y-119304819D01*
X155480833Y-119304819D02*
X155385595Y-119352438D01*
X155385595Y-119352438D02*
X155337976Y-119400057D01*
X155337976Y-119400057D02*
X155290357Y-119495295D01*
X155290357Y-119495295D02*
X155290357Y-119638152D01*
X155290357Y-119638152D02*
X155337976Y-119733390D01*
X155337976Y-119733390D02*
X155385595Y-119781009D01*
X155385595Y-119781009D02*
X155480833Y-119828628D01*
X155480833Y-119828628D02*
X155861785Y-119828628D01*
X154337976Y-120304819D02*
X154909404Y-120304819D01*
X154623690Y-120304819D02*
X154623690Y-119304819D01*
X154623690Y-119304819D02*
X154718928Y-119447676D01*
X154718928Y-119447676D02*
X154814166Y-119542914D01*
X154814166Y-119542914D02*
X154909404Y-119590533D01*
X153385595Y-120304819D02*
X153957023Y-120304819D01*
X153671309Y-120304819D02*
X153671309Y-119304819D01*
X153671309Y-119304819D02*
X153766547Y-119447676D01*
X153766547Y-119447676D02*
X153861785Y-119542914D01*
X153861785Y-119542914D02*
X153957023Y-119590533D01*
X90026666Y-72204819D02*
X90502856Y-72204819D01*
X90502856Y-72204819D02*
X90502856Y-71204819D01*
X89740951Y-71300057D02*
X89693332Y-71252438D01*
X89693332Y-71252438D02*
X89598094Y-71204819D01*
X89598094Y-71204819D02*
X89359999Y-71204819D01*
X89359999Y-71204819D02*
X89264761Y-71252438D01*
X89264761Y-71252438D02*
X89217142Y-71300057D01*
X89217142Y-71300057D02*
X89169523Y-71395295D01*
X89169523Y-71395295D02*
X89169523Y-71490533D01*
X89169523Y-71490533D02*
X89217142Y-71633390D01*
X89217142Y-71633390D02*
X89788570Y-72204819D01*
X89788570Y-72204819D02*
X89169523Y-72204819D01*
X106664166Y-101304819D02*
X106997499Y-100828628D01*
X107235594Y-101304819D02*
X107235594Y-100304819D01*
X107235594Y-100304819D02*
X106854642Y-100304819D01*
X106854642Y-100304819D02*
X106759404Y-100352438D01*
X106759404Y-100352438D02*
X106711785Y-100400057D01*
X106711785Y-100400057D02*
X106664166Y-100495295D01*
X106664166Y-100495295D02*
X106664166Y-100638152D01*
X106664166Y-100638152D02*
X106711785Y-100733390D01*
X106711785Y-100733390D02*
X106759404Y-100781009D01*
X106759404Y-100781009D02*
X106854642Y-100828628D01*
X106854642Y-100828628D02*
X107235594Y-100828628D01*
X106283213Y-100400057D02*
X106235594Y-100352438D01*
X106235594Y-100352438D02*
X106140356Y-100304819D01*
X106140356Y-100304819D02*
X105902261Y-100304819D01*
X105902261Y-100304819D02*
X105807023Y-100352438D01*
X105807023Y-100352438D02*
X105759404Y-100400057D01*
X105759404Y-100400057D02*
X105711785Y-100495295D01*
X105711785Y-100495295D02*
X105711785Y-100590533D01*
X105711785Y-100590533D02*
X105759404Y-100733390D01*
X105759404Y-100733390D02*
X106330832Y-101304819D01*
X106330832Y-101304819D02*
X105711785Y-101304819D01*
X107235594Y-110104819D02*
X107235594Y-109104819D01*
X107235594Y-109104819D02*
X106997499Y-109104819D01*
X106997499Y-109104819D02*
X106854642Y-109152438D01*
X106854642Y-109152438D02*
X106759404Y-109247676D01*
X106759404Y-109247676D02*
X106711785Y-109342914D01*
X106711785Y-109342914D02*
X106664166Y-109533390D01*
X106664166Y-109533390D02*
X106664166Y-109676247D01*
X106664166Y-109676247D02*
X106711785Y-109866723D01*
X106711785Y-109866723D02*
X106759404Y-109961961D01*
X106759404Y-109961961D02*
X106854642Y-110057200D01*
X106854642Y-110057200D02*
X106997499Y-110104819D01*
X106997499Y-110104819D02*
X107235594Y-110104819D01*
X105711785Y-110104819D02*
X106283213Y-110104819D01*
X105997499Y-110104819D02*
X105997499Y-109104819D01*
X105997499Y-109104819D02*
X106092737Y-109247676D01*
X106092737Y-109247676D02*
X106187975Y-109342914D01*
X106187975Y-109342914D02*
X106283213Y-109390533D01*
X89974285Y-74804819D02*
X89974285Y-73804819D01*
X89974285Y-73804819D02*
X89736190Y-73804819D01*
X89736190Y-73804819D02*
X89593333Y-73852438D01*
X89593333Y-73852438D02*
X89498095Y-73947676D01*
X89498095Y-73947676D02*
X89450476Y-74042914D01*
X89450476Y-74042914D02*
X89402857Y-74233390D01*
X89402857Y-74233390D02*
X89402857Y-74376247D01*
X89402857Y-74376247D02*
X89450476Y-74566723D01*
X89450476Y-74566723D02*
X89498095Y-74661961D01*
X89498095Y-74661961D02*
X89593333Y-74757200D01*
X89593333Y-74757200D02*
X89736190Y-74804819D01*
X89736190Y-74804819D02*
X89974285Y-74804819D01*
X89021904Y-73900057D02*
X88974285Y-73852438D01*
X88974285Y-73852438D02*
X88879047Y-73804819D01*
X88879047Y-73804819D02*
X88640952Y-73804819D01*
X88640952Y-73804819D02*
X88545714Y-73852438D01*
X88545714Y-73852438D02*
X88498095Y-73900057D01*
X88498095Y-73900057D02*
X88450476Y-73995295D01*
X88450476Y-73995295D02*
X88450476Y-74090533D01*
X88450476Y-74090533D02*
X88498095Y-74233390D01*
X88498095Y-74233390D02*
X89069523Y-74804819D01*
X89069523Y-74804819D02*
X88450476Y-74804819D01*
X87498095Y-74804819D02*
X88069523Y-74804819D01*
X87783809Y-74804819D02*
X87783809Y-73804819D01*
X87783809Y-73804819D02*
X87879047Y-73947676D01*
X87879047Y-73947676D02*
X87974285Y-74042914D01*
X87974285Y-74042914D02*
X88069523Y-74090533D01*
X141323094Y-113804819D02*
X141323094Y-112804819D01*
X141323094Y-112804819D02*
X141084999Y-112804819D01*
X141084999Y-112804819D02*
X140942142Y-112852438D01*
X140942142Y-112852438D02*
X140846904Y-112947676D01*
X140846904Y-112947676D02*
X140799285Y-113042914D01*
X140799285Y-113042914D02*
X140751666Y-113233390D01*
X140751666Y-113233390D02*
X140751666Y-113376247D01*
X140751666Y-113376247D02*
X140799285Y-113566723D01*
X140799285Y-113566723D02*
X140846904Y-113661961D01*
X140846904Y-113661961D02*
X140942142Y-113757200D01*
X140942142Y-113757200D02*
X141084999Y-113804819D01*
X141084999Y-113804819D02*
X141323094Y-113804819D01*
X140418332Y-112804819D02*
X139799285Y-112804819D01*
X139799285Y-112804819D02*
X140132618Y-113185771D01*
X140132618Y-113185771D02*
X139989761Y-113185771D01*
X139989761Y-113185771D02*
X139894523Y-113233390D01*
X139894523Y-113233390D02*
X139846904Y-113281009D01*
X139846904Y-113281009D02*
X139799285Y-113376247D01*
X139799285Y-113376247D02*
X139799285Y-113614342D01*
X139799285Y-113614342D02*
X139846904Y-113709580D01*
X139846904Y-113709580D02*
X139894523Y-113757200D01*
X139894523Y-113757200D02*
X139989761Y-113804819D01*
X139989761Y-113804819D02*
X140275475Y-113804819D01*
X140275475Y-113804819D02*
X140370713Y-113757200D01*
X140370713Y-113757200D02*
X140418332Y-113709580D01*
X106617738Y-113650057D02*
X106712976Y-113602438D01*
X106712976Y-113602438D02*
X106808214Y-113507200D01*
X106808214Y-113507200D02*
X106951071Y-113364342D01*
X106951071Y-113364342D02*
X107046309Y-113316723D01*
X107046309Y-113316723D02*
X107141547Y-113316723D01*
X107093928Y-113554819D02*
X107189166Y-113507200D01*
X107189166Y-113507200D02*
X107284404Y-113411961D01*
X107284404Y-113411961D02*
X107332023Y-113221485D01*
X107332023Y-113221485D02*
X107332023Y-112888152D01*
X107332023Y-112888152D02*
X107284404Y-112697676D01*
X107284404Y-112697676D02*
X107189166Y-112602438D01*
X107189166Y-112602438D02*
X107093928Y-112554819D01*
X107093928Y-112554819D02*
X106903452Y-112554819D01*
X106903452Y-112554819D02*
X106808214Y-112602438D01*
X106808214Y-112602438D02*
X106712976Y-112697676D01*
X106712976Y-112697676D02*
X106665357Y-112888152D01*
X106665357Y-112888152D02*
X106665357Y-113221485D01*
X106665357Y-113221485D02*
X106712976Y-113411961D01*
X106712976Y-113411961D02*
X106808214Y-113507200D01*
X106808214Y-113507200D02*
X106903452Y-113554819D01*
X106903452Y-113554819D02*
X107093928Y-113554819D01*
X106332023Y-112554819D02*
X105712976Y-112554819D01*
X105712976Y-112554819D02*
X106046309Y-112935771D01*
X106046309Y-112935771D02*
X105903452Y-112935771D01*
X105903452Y-112935771D02*
X105808214Y-112983390D01*
X105808214Y-112983390D02*
X105760595Y-113031009D01*
X105760595Y-113031009D02*
X105712976Y-113126247D01*
X105712976Y-113126247D02*
X105712976Y-113364342D01*
X105712976Y-113364342D02*
X105760595Y-113459580D01*
X105760595Y-113459580D02*
X105808214Y-113507200D01*
X105808214Y-113507200D02*
X105903452Y-113554819D01*
X105903452Y-113554819D02*
X106189166Y-113554819D01*
X106189166Y-113554819D02*
X106284404Y-113507200D01*
X106284404Y-113507200D02*
X106332023Y-113459580D01*
X106664166Y-104304819D02*
X106997499Y-103828628D01*
X107235594Y-104304819D02*
X107235594Y-103304819D01*
X107235594Y-103304819D02*
X106854642Y-103304819D01*
X106854642Y-103304819D02*
X106759404Y-103352438D01*
X106759404Y-103352438D02*
X106711785Y-103400057D01*
X106711785Y-103400057D02*
X106664166Y-103495295D01*
X106664166Y-103495295D02*
X106664166Y-103638152D01*
X106664166Y-103638152D02*
X106711785Y-103733390D01*
X106711785Y-103733390D02*
X106759404Y-103781009D01*
X106759404Y-103781009D02*
X106854642Y-103828628D01*
X106854642Y-103828628D02*
X107235594Y-103828628D01*
X105711785Y-104304819D02*
X106283213Y-104304819D01*
X105997499Y-104304819D02*
X105997499Y-103304819D01*
X105997499Y-103304819D02*
X106092737Y-103447676D01*
X106092737Y-103447676D02*
X106187975Y-103542914D01*
X106187975Y-103542914D02*
X106283213Y-103590533D01*
X140751666Y-106954819D02*
X141084999Y-106478628D01*
X141323094Y-106954819D02*
X141323094Y-105954819D01*
X141323094Y-105954819D02*
X140942142Y-105954819D01*
X140942142Y-105954819D02*
X140846904Y-106002438D01*
X140846904Y-106002438D02*
X140799285Y-106050057D01*
X140799285Y-106050057D02*
X140751666Y-106145295D01*
X140751666Y-106145295D02*
X140751666Y-106288152D01*
X140751666Y-106288152D02*
X140799285Y-106383390D01*
X140799285Y-106383390D02*
X140846904Y-106431009D01*
X140846904Y-106431009D02*
X140942142Y-106478628D01*
X140942142Y-106478628D02*
X141323094Y-106478628D01*
X139894523Y-105954819D02*
X140084999Y-105954819D01*
X140084999Y-105954819D02*
X140180237Y-106002438D01*
X140180237Y-106002438D02*
X140227856Y-106050057D01*
X140227856Y-106050057D02*
X140323094Y-106192914D01*
X140323094Y-106192914D02*
X140370713Y-106383390D01*
X140370713Y-106383390D02*
X140370713Y-106764342D01*
X140370713Y-106764342D02*
X140323094Y-106859580D01*
X140323094Y-106859580D02*
X140275475Y-106907200D01*
X140275475Y-106907200D02*
X140180237Y-106954819D01*
X140180237Y-106954819D02*
X139989761Y-106954819D01*
X139989761Y-106954819D02*
X139894523Y-106907200D01*
X139894523Y-106907200D02*
X139846904Y-106859580D01*
X139846904Y-106859580D02*
X139799285Y-106764342D01*
X139799285Y-106764342D02*
X139799285Y-106526247D01*
X139799285Y-106526247D02*
X139846904Y-106431009D01*
X139846904Y-106431009D02*
X139894523Y-106383390D01*
X139894523Y-106383390D02*
X139989761Y-106335771D01*
X139989761Y-106335771D02*
X140180237Y-106335771D01*
X140180237Y-106335771D02*
X140275475Y-106383390D01*
X140275475Y-106383390D02*
X140323094Y-106431009D01*
X140323094Y-106431009D02*
X140370713Y-106526247D01*
X150265357Y-104554819D02*
X150598690Y-104078628D01*
X150836785Y-104554819D02*
X150836785Y-103554819D01*
X150836785Y-103554819D02*
X150455833Y-103554819D01*
X150455833Y-103554819D02*
X150360595Y-103602438D01*
X150360595Y-103602438D02*
X150312976Y-103650057D01*
X150312976Y-103650057D02*
X150265357Y-103745295D01*
X150265357Y-103745295D02*
X150265357Y-103888152D01*
X150265357Y-103888152D02*
X150312976Y-103983390D01*
X150312976Y-103983390D02*
X150360595Y-104031009D01*
X150360595Y-104031009D02*
X150455833Y-104078628D01*
X150455833Y-104078628D02*
X150836785Y-104078628D01*
X149312976Y-104554819D02*
X149884404Y-104554819D01*
X149598690Y-104554819D02*
X149598690Y-103554819D01*
X149598690Y-103554819D02*
X149693928Y-103697676D01*
X149693928Y-103697676D02*
X149789166Y-103792914D01*
X149789166Y-103792914D02*
X149884404Y-103840533D01*
X148455833Y-103888152D02*
X148455833Y-104554819D01*
X148693928Y-103507200D02*
X148932023Y-104221485D01*
X148932023Y-104221485D02*
X148312976Y-104221485D01*
X113926666Y-72204819D02*
X114402856Y-72204819D01*
X114402856Y-72204819D02*
X114402856Y-71204819D01*
X113069523Y-72204819D02*
X113640951Y-72204819D01*
X113355237Y-72204819D02*
X113355237Y-71204819D01*
X113355237Y-71204819D02*
X113450475Y-71347676D01*
X113450475Y-71347676D02*
X113545713Y-71442914D01*
X113545713Y-71442914D02*
X113640951Y-71490533D01*
X82214819Y-85388095D02*
X83024342Y-85388095D01*
X83024342Y-85388095D02*
X83119580Y-85435714D01*
X83119580Y-85435714D02*
X83167200Y-85483333D01*
X83167200Y-85483333D02*
X83214819Y-85578571D01*
X83214819Y-85578571D02*
X83214819Y-85769047D01*
X83214819Y-85769047D02*
X83167200Y-85864285D01*
X83167200Y-85864285D02*
X83119580Y-85911904D01*
X83119580Y-85911904D02*
X83024342Y-85959523D01*
X83024342Y-85959523D02*
X82214819Y-85959523D01*
X82310057Y-86388095D02*
X82262438Y-86435714D01*
X82262438Y-86435714D02*
X82214819Y-86530952D01*
X82214819Y-86530952D02*
X82214819Y-86769047D01*
X82214819Y-86769047D02*
X82262438Y-86864285D01*
X82262438Y-86864285D02*
X82310057Y-86911904D01*
X82310057Y-86911904D02*
X82405295Y-86959523D01*
X82405295Y-86959523D02*
X82500533Y-86959523D01*
X82500533Y-86959523D02*
X82643390Y-86911904D01*
X82643390Y-86911904D02*
X83214819Y-86340476D01*
X83214819Y-86340476D02*
X83214819Y-86959523D01*
X165751666Y-114604819D02*
X166084999Y-114128628D01*
X166323094Y-114604819D02*
X166323094Y-113604819D01*
X166323094Y-113604819D02*
X165942142Y-113604819D01*
X165942142Y-113604819D02*
X165846904Y-113652438D01*
X165846904Y-113652438D02*
X165799285Y-113700057D01*
X165799285Y-113700057D02*
X165751666Y-113795295D01*
X165751666Y-113795295D02*
X165751666Y-113938152D01*
X165751666Y-113938152D02*
X165799285Y-114033390D01*
X165799285Y-114033390D02*
X165846904Y-114081009D01*
X165846904Y-114081009D02*
X165942142Y-114128628D01*
X165942142Y-114128628D02*
X166323094Y-114128628D01*
X165418332Y-113604819D02*
X164751666Y-113604819D01*
X164751666Y-113604819D02*
X165180237Y-114604819D01*
X149742738Y-112587557D02*
X149837976Y-112539938D01*
X149837976Y-112539938D02*
X149933214Y-112444700D01*
X149933214Y-112444700D02*
X150076071Y-112301842D01*
X150076071Y-112301842D02*
X150171309Y-112254223D01*
X150171309Y-112254223D02*
X150266547Y-112254223D01*
X150218928Y-112492319D02*
X150314166Y-112444700D01*
X150314166Y-112444700D02*
X150409404Y-112349461D01*
X150409404Y-112349461D02*
X150457023Y-112158985D01*
X150457023Y-112158985D02*
X150457023Y-111825652D01*
X150457023Y-111825652D02*
X150409404Y-111635176D01*
X150409404Y-111635176D02*
X150314166Y-111539938D01*
X150314166Y-111539938D02*
X150218928Y-111492319D01*
X150218928Y-111492319D02*
X150028452Y-111492319D01*
X150028452Y-111492319D02*
X149933214Y-111539938D01*
X149933214Y-111539938D02*
X149837976Y-111635176D01*
X149837976Y-111635176D02*
X149790357Y-111825652D01*
X149790357Y-111825652D02*
X149790357Y-112158985D01*
X149790357Y-112158985D02*
X149837976Y-112349461D01*
X149837976Y-112349461D02*
X149933214Y-112444700D01*
X149933214Y-112444700D02*
X150028452Y-112492319D01*
X150028452Y-112492319D02*
X150218928Y-112492319D01*
X148837976Y-112492319D02*
X149409404Y-112492319D01*
X149123690Y-112492319D02*
X149123690Y-111492319D01*
X149123690Y-111492319D02*
X149218928Y-111635176D01*
X149218928Y-111635176D02*
X149314166Y-111730414D01*
X149314166Y-111730414D02*
X149409404Y-111778033D01*
X168439819Y-116699405D02*
X167439819Y-116699405D01*
X167439819Y-116699405D02*
X167439819Y-116937500D01*
X167439819Y-116937500D02*
X167487438Y-117080357D01*
X167487438Y-117080357D02*
X167582676Y-117175595D01*
X167582676Y-117175595D02*
X167677914Y-117223214D01*
X167677914Y-117223214D02*
X167868390Y-117270833D01*
X167868390Y-117270833D02*
X168011247Y-117270833D01*
X168011247Y-117270833D02*
X168201723Y-117223214D01*
X168201723Y-117223214D02*
X168296961Y-117175595D01*
X168296961Y-117175595D02*
X168392200Y-117080357D01*
X168392200Y-117080357D02*
X168439819Y-116937500D01*
X168439819Y-116937500D02*
X168439819Y-116699405D01*
X167439819Y-118127976D02*
X167439819Y-117937500D01*
X167439819Y-117937500D02*
X167487438Y-117842262D01*
X167487438Y-117842262D02*
X167535057Y-117794643D01*
X167535057Y-117794643D02*
X167677914Y-117699405D01*
X167677914Y-117699405D02*
X167868390Y-117651786D01*
X167868390Y-117651786D02*
X168249342Y-117651786D01*
X168249342Y-117651786D02*
X168344580Y-117699405D01*
X168344580Y-117699405D02*
X168392200Y-117747024D01*
X168392200Y-117747024D02*
X168439819Y-117842262D01*
X168439819Y-117842262D02*
X168439819Y-118032738D01*
X168439819Y-118032738D02*
X168392200Y-118127976D01*
X168392200Y-118127976D02*
X168344580Y-118175595D01*
X168344580Y-118175595D02*
X168249342Y-118223214D01*
X168249342Y-118223214D02*
X168011247Y-118223214D01*
X168011247Y-118223214D02*
X167916009Y-118175595D01*
X167916009Y-118175595D02*
X167868390Y-118127976D01*
X167868390Y-118127976D02*
X167820771Y-118032738D01*
X167820771Y-118032738D02*
X167820771Y-117842262D01*
X167820771Y-117842262D02*
X167868390Y-117747024D01*
X167868390Y-117747024D02*
X167916009Y-117699405D01*
X167916009Y-117699405D02*
X168011247Y-117651786D01*
X151514819Y-101894642D02*
X151038628Y-101561309D01*
X151514819Y-101323214D02*
X150514819Y-101323214D01*
X150514819Y-101323214D02*
X150514819Y-101704166D01*
X150514819Y-101704166D02*
X150562438Y-101799404D01*
X150562438Y-101799404D02*
X150610057Y-101847023D01*
X150610057Y-101847023D02*
X150705295Y-101894642D01*
X150705295Y-101894642D02*
X150848152Y-101894642D01*
X150848152Y-101894642D02*
X150943390Y-101847023D01*
X150943390Y-101847023D02*
X150991009Y-101799404D01*
X150991009Y-101799404D02*
X151038628Y-101704166D01*
X151038628Y-101704166D02*
X151038628Y-101323214D01*
X151514819Y-102847023D02*
X151514819Y-102275595D01*
X151514819Y-102561309D02*
X150514819Y-102561309D01*
X150514819Y-102561309D02*
X150657676Y-102466071D01*
X150657676Y-102466071D02*
X150752914Y-102370833D01*
X150752914Y-102370833D02*
X150800533Y-102275595D01*
X150514819Y-103704166D02*
X150514819Y-103513690D01*
X150514819Y-103513690D02*
X150562438Y-103418452D01*
X150562438Y-103418452D02*
X150610057Y-103370833D01*
X150610057Y-103370833D02*
X150752914Y-103275595D01*
X150752914Y-103275595D02*
X150943390Y-103227976D01*
X150943390Y-103227976D02*
X151324342Y-103227976D01*
X151324342Y-103227976D02*
X151419580Y-103275595D01*
X151419580Y-103275595D02*
X151467200Y-103323214D01*
X151467200Y-103323214D02*
X151514819Y-103418452D01*
X151514819Y-103418452D02*
X151514819Y-103608928D01*
X151514819Y-103608928D02*
X151467200Y-103704166D01*
X151467200Y-103704166D02*
X151419580Y-103751785D01*
X151419580Y-103751785D02*
X151324342Y-103799404D01*
X151324342Y-103799404D02*
X151086247Y-103799404D01*
X151086247Y-103799404D02*
X150991009Y-103751785D01*
X150991009Y-103751785D02*
X150943390Y-103704166D01*
X150943390Y-103704166D02*
X150895771Y-103608928D01*
X150895771Y-103608928D02*
X150895771Y-103418452D01*
X150895771Y-103418452D02*
X150943390Y-103323214D01*
X150943390Y-103323214D02*
X150991009Y-103275595D01*
X150991009Y-103275595D02*
X151086247Y-103227976D01*
X155924285Y-115604819D02*
X155924285Y-114604819D01*
X155924285Y-114604819D02*
X155686190Y-114604819D01*
X155686190Y-114604819D02*
X155543333Y-114652438D01*
X155543333Y-114652438D02*
X155448095Y-114747676D01*
X155448095Y-114747676D02*
X155400476Y-114842914D01*
X155400476Y-114842914D02*
X155352857Y-115033390D01*
X155352857Y-115033390D02*
X155352857Y-115176247D01*
X155352857Y-115176247D02*
X155400476Y-115366723D01*
X155400476Y-115366723D02*
X155448095Y-115461961D01*
X155448095Y-115461961D02*
X155543333Y-115557200D01*
X155543333Y-115557200D02*
X155686190Y-115604819D01*
X155686190Y-115604819D02*
X155924285Y-115604819D01*
X154400476Y-115604819D02*
X154971904Y-115604819D01*
X154686190Y-115604819D02*
X154686190Y-114604819D01*
X154686190Y-114604819D02*
X154781428Y-114747676D01*
X154781428Y-114747676D02*
X154876666Y-114842914D01*
X154876666Y-114842914D02*
X154971904Y-114890533D01*
X153781428Y-114604819D02*
X153686190Y-114604819D01*
X153686190Y-114604819D02*
X153590952Y-114652438D01*
X153590952Y-114652438D02*
X153543333Y-114700057D01*
X153543333Y-114700057D02*
X153495714Y-114795295D01*
X153495714Y-114795295D02*
X153448095Y-114985771D01*
X153448095Y-114985771D02*
X153448095Y-115223866D01*
X153448095Y-115223866D02*
X153495714Y-115414342D01*
X153495714Y-115414342D02*
X153543333Y-115509580D01*
X153543333Y-115509580D02*
X153590952Y-115557200D01*
X153590952Y-115557200D02*
X153686190Y-115604819D01*
X153686190Y-115604819D02*
X153781428Y-115604819D01*
X153781428Y-115604819D02*
X153876666Y-115557200D01*
X153876666Y-115557200D02*
X153924285Y-115509580D01*
X153924285Y-115509580D02*
X153971904Y-115414342D01*
X153971904Y-115414342D02*
X154019523Y-115223866D01*
X154019523Y-115223866D02*
X154019523Y-114985771D01*
X154019523Y-114985771D02*
X153971904Y-114795295D01*
X153971904Y-114795295D02*
X153924285Y-114700057D01*
X153924285Y-114700057D02*
X153876666Y-114652438D01*
X153876666Y-114652438D02*
X153781428Y-114604819D01*
X114365357Y-51304819D02*
X114698690Y-50828628D01*
X114936785Y-51304819D02*
X114936785Y-50304819D01*
X114936785Y-50304819D02*
X114555833Y-50304819D01*
X114555833Y-50304819D02*
X114460595Y-50352438D01*
X114460595Y-50352438D02*
X114412976Y-50400057D01*
X114412976Y-50400057D02*
X114365357Y-50495295D01*
X114365357Y-50495295D02*
X114365357Y-50638152D01*
X114365357Y-50638152D02*
X114412976Y-50733390D01*
X114412976Y-50733390D02*
X114460595Y-50781009D01*
X114460595Y-50781009D02*
X114555833Y-50828628D01*
X114555833Y-50828628D02*
X114936785Y-50828628D01*
X113984404Y-50400057D02*
X113936785Y-50352438D01*
X113936785Y-50352438D02*
X113841547Y-50304819D01*
X113841547Y-50304819D02*
X113603452Y-50304819D01*
X113603452Y-50304819D02*
X113508214Y-50352438D01*
X113508214Y-50352438D02*
X113460595Y-50400057D01*
X113460595Y-50400057D02*
X113412976Y-50495295D01*
X113412976Y-50495295D02*
X113412976Y-50590533D01*
X113412976Y-50590533D02*
X113460595Y-50733390D01*
X113460595Y-50733390D02*
X114032023Y-51304819D01*
X114032023Y-51304819D02*
X113412976Y-51304819D01*
X112460595Y-51304819D02*
X113032023Y-51304819D01*
X112746309Y-51304819D02*
X112746309Y-50304819D01*
X112746309Y-50304819D02*
X112841547Y-50447676D01*
X112841547Y-50447676D02*
X112936785Y-50542914D01*
X112936785Y-50542914D02*
X113032023Y-50590533D01*
X140742738Y-113600057D02*
X140837976Y-113552438D01*
X140837976Y-113552438D02*
X140933214Y-113457200D01*
X140933214Y-113457200D02*
X141076071Y-113314342D01*
X141076071Y-113314342D02*
X141171309Y-113266723D01*
X141171309Y-113266723D02*
X141266547Y-113266723D01*
X141218928Y-113504819D02*
X141314166Y-113457200D01*
X141314166Y-113457200D02*
X141409404Y-113361961D01*
X141409404Y-113361961D02*
X141457023Y-113171485D01*
X141457023Y-113171485D02*
X141457023Y-112838152D01*
X141457023Y-112838152D02*
X141409404Y-112647676D01*
X141409404Y-112647676D02*
X141314166Y-112552438D01*
X141314166Y-112552438D02*
X141218928Y-112504819D01*
X141218928Y-112504819D02*
X141028452Y-112504819D01*
X141028452Y-112504819D02*
X140933214Y-112552438D01*
X140933214Y-112552438D02*
X140837976Y-112647676D01*
X140837976Y-112647676D02*
X140790357Y-112838152D01*
X140790357Y-112838152D02*
X140790357Y-113171485D01*
X140790357Y-113171485D02*
X140837976Y-113361961D01*
X140837976Y-113361961D02*
X140933214Y-113457200D01*
X140933214Y-113457200D02*
X141028452Y-113504819D01*
X141028452Y-113504819D02*
X141218928Y-113504819D01*
X139885595Y-112504819D02*
X140361785Y-112504819D01*
X140361785Y-112504819D02*
X140409404Y-112981009D01*
X140409404Y-112981009D02*
X140361785Y-112933390D01*
X140361785Y-112933390D02*
X140266547Y-112885771D01*
X140266547Y-112885771D02*
X140028452Y-112885771D01*
X140028452Y-112885771D02*
X139933214Y-112933390D01*
X139933214Y-112933390D02*
X139885595Y-112981009D01*
X139885595Y-112981009D02*
X139837976Y-113076247D01*
X139837976Y-113076247D02*
X139837976Y-113314342D01*
X139837976Y-113314342D02*
X139885595Y-113409580D01*
X139885595Y-113409580D02*
X139933214Y-113457200D01*
X139933214Y-113457200D02*
X140028452Y-113504819D01*
X140028452Y-113504819D02*
X140266547Y-113504819D01*
X140266547Y-113504819D02*
X140361785Y-113457200D01*
X140361785Y-113457200D02*
X140409404Y-113409580D01*
X113974285Y-74804819D02*
X113974285Y-73804819D01*
X113974285Y-73804819D02*
X113736190Y-73804819D01*
X113736190Y-73804819D02*
X113593333Y-73852438D01*
X113593333Y-73852438D02*
X113498095Y-73947676D01*
X113498095Y-73947676D02*
X113450476Y-74042914D01*
X113450476Y-74042914D02*
X113402857Y-74233390D01*
X113402857Y-74233390D02*
X113402857Y-74376247D01*
X113402857Y-74376247D02*
X113450476Y-74566723D01*
X113450476Y-74566723D02*
X113498095Y-74661961D01*
X113498095Y-74661961D02*
X113593333Y-74757200D01*
X113593333Y-74757200D02*
X113736190Y-74804819D01*
X113736190Y-74804819D02*
X113974285Y-74804819D01*
X113021904Y-73900057D02*
X112974285Y-73852438D01*
X112974285Y-73852438D02*
X112879047Y-73804819D01*
X112879047Y-73804819D02*
X112640952Y-73804819D01*
X112640952Y-73804819D02*
X112545714Y-73852438D01*
X112545714Y-73852438D02*
X112498095Y-73900057D01*
X112498095Y-73900057D02*
X112450476Y-73995295D01*
X112450476Y-73995295D02*
X112450476Y-74090533D01*
X112450476Y-74090533D02*
X112498095Y-74233390D01*
X112498095Y-74233390D02*
X113069523Y-74804819D01*
X113069523Y-74804819D02*
X112450476Y-74804819D01*
X111831428Y-73804819D02*
X111736190Y-73804819D01*
X111736190Y-73804819D02*
X111640952Y-73852438D01*
X111640952Y-73852438D02*
X111593333Y-73900057D01*
X111593333Y-73900057D02*
X111545714Y-73995295D01*
X111545714Y-73995295D02*
X111498095Y-74185771D01*
X111498095Y-74185771D02*
X111498095Y-74423866D01*
X111498095Y-74423866D02*
X111545714Y-74614342D01*
X111545714Y-74614342D02*
X111593333Y-74709580D01*
X111593333Y-74709580D02*
X111640952Y-74757200D01*
X111640952Y-74757200D02*
X111736190Y-74804819D01*
X111736190Y-74804819D02*
X111831428Y-74804819D01*
X111831428Y-74804819D02*
X111926666Y-74757200D01*
X111926666Y-74757200D02*
X111974285Y-74709580D01*
X111974285Y-74709580D02*
X112021904Y-74614342D01*
X112021904Y-74614342D02*
X112069523Y-74423866D01*
X112069523Y-74423866D02*
X112069523Y-74185771D01*
X112069523Y-74185771D02*
X112021904Y-73995295D01*
X112021904Y-73995295D02*
X111974285Y-73900057D01*
X111974285Y-73900057D02*
X111926666Y-73852438D01*
X111926666Y-73852438D02*
X111831428Y-73804819D01*
X123785057Y-107904761D02*
X123737438Y-107809523D01*
X123737438Y-107809523D02*
X123642200Y-107714285D01*
X123642200Y-107714285D02*
X123499342Y-107571428D01*
X123499342Y-107571428D02*
X123451723Y-107476190D01*
X123451723Y-107476190D02*
X123451723Y-107380952D01*
X123689819Y-107428571D02*
X123642200Y-107333333D01*
X123642200Y-107333333D02*
X123546961Y-107238095D01*
X123546961Y-107238095D02*
X123356485Y-107190476D01*
X123356485Y-107190476D02*
X123023152Y-107190476D01*
X123023152Y-107190476D02*
X122832676Y-107238095D01*
X122832676Y-107238095D02*
X122737438Y-107333333D01*
X122737438Y-107333333D02*
X122689819Y-107428571D01*
X122689819Y-107428571D02*
X122689819Y-107619047D01*
X122689819Y-107619047D02*
X122737438Y-107714285D01*
X122737438Y-107714285D02*
X122832676Y-107809523D01*
X122832676Y-107809523D02*
X123023152Y-107857142D01*
X123023152Y-107857142D02*
X123356485Y-107857142D01*
X123356485Y-107857142D02*
X123546961Y-107809523D01*
X123546961Y-107809523D02*
X123642200Y-107714285D01*
X123642200Y-107714285D02*
X123689819Y-107619047D01*
X123689819Y-107619047D02*
X123689819Y-107428571D01*
X123023152Y-108714285D02*
X123689819Y-108714285D01*
X122642200Y-108476190D02*
X123356485Y-108238095D01*
X123356485Y-108238095D02*
X123356485Y-108857142D01*
X83498094Y-107804819D02*
X83498094Y-106804819D01*
X83498094Y-106804819D02*
X83259999Y-106804819D01*
X83259999Y-106804819D02*
X83117142Y-106852438D01*
X83117142Y-106852438D02*
X83021904Y-106947676D01*
X83021904Y-106947676D02*
X82974285Y-107042914D01*
X82974285Y-107042914D02*
X82926666Y-107233390D01*
X82926666Y-107233390D02*
X82926666Y-107376247D01*
X82926666Y-107376247D02*
X82974285Y-107566723D01*
X82974285Y-107566723D02*
X83021904Y-107661961D01*
X83021904Y-107661961D02*
X83117142Y-107757200D01*
X83117142Y-107757200D02*
X83259999Y-107804819D01*
X83259999Y-107804819D02*
X83498094Y-107804819D01*
X82021904Y-106804819D02*
X82498094Y-106804819D01*
X82498094Y-106804819D02*
X82545713Y-107281009D01*
X82545713Y-107281009D02*
X82498094Y-107233390D01*
X82498094Y-107233390D02*
X82402856Y-107185771D01*
X82402856Y-107185771D02*
X82164761Y-107185771D01*
X82164761Y-107185771D02*
X82069523Y-107233390D01*
X82069523Y-107233390D02*
X82021904Y-107281009D01*
X82021904Y-107281009D02*
X81974285Y-107376247D01*
X81974285Y-107376247D02*
X81974285Y-107614342D01*
X81974285Y-107614342D02*
X82021904Y-107709580D01*
X82021904Y-107709580D02*
X82069523Y-107757200D01*
X82069523Y-107757200D02*
X82164761Y-107804819D01*
X82164761Y-107804819D02*
X82402856Y-107804819D01*
X82402856Y-107804819D02*
X82498094Y-107757200D01*
X82498094Y-107757200D02*
X82545713Y-107709580D01*
X72969580Y-84333333D02*
X73017200Y-84285714D01*
X73017200Y-84285714D02*
X73064819Y-84142857D01*
X73064819Y-84142857D02*
X73064819Y-84047619D01*
X73064819Y-84047619D02*
X73017200Y-83904762D01*
X73017200Y-83904762D02*
X72921961Y-83809524D01*
X72921961Y-83809524D02*
X72826723Y-83761905D01*
X72826723Y-83761905D02*
X72636247Y-83714286D01*
X72636247Y-83714286D02*
X72493390Y-83714286D01*
X72493390Y-83714286D02*
X72302914Y-83761905D01*
X72302914Y-83761905D02*
X72207676Y-83809524D01*
X72207676Y-83809524D02*
X72112438Y-83904762D01*
X72112438Y-83904762D02*
X72064819Y-84047619D01*
X72064819Y-84047619D02*
X72064819Y-84142857D01*
X72064819Y-84142857D02*
X72112438Y-84285714D01*
X72112438Y-84285714D02*
X72160057Y-84333333D01*
X72398152Y-85190476D02*
X73064819Y-85190476D01*
X72017200Y-84952381D02*
X72731485Y-84714286D01*
X72731485Y-84714286D02*
X72731485Y-85333333D01*
X153752319Y-118769642D02*
X153276128Y-118436309D01*
X153752319Y-118198214D02*
X152752319Y-118198214D01*
X152752319Y-118198214D02*
X152752319Y-118579166D01*
X152752319Y-118579166D02*
X152799938Y-118674404D01*
X152799938Y-118674404D02*
X152847557Y-118722023D01*
X152847557Y-118722023D02*
X152942795Y-118769642D01*
X152942795Y-118769642D02*
X153085652Y-118769642D01*
X153085652Y-118769642D02*
X153180890Y-118722023D01*
X153180890Y-118722023D02*
X153228509Y-118674404D01*
X153228509Y-118674404D02*
X153276128Y-118579166D01*
X153276128Y-118579166D02*
X153276128Y-118198214D01*
X153752319Y-119722023D02*
X153752319Y-119150595D01*
X153752319Y-119436309D02*
X152752319Y-119436309D01*
X152752319Y-119436309D02*
X152895176Y-119341071D01*
X152895176Y-119341071D02*
X152990414Y-119245833D01*
X152990414Y-119245833D02*
X153038033Y-119150595D01*
X152752319Y-120055357D02*
X152752319Y-120674404D01*
X152752319Y-120674404D02*
X153133271Y-120341071D01*
X153133271Y-120341071D02*
X153133271Y-120483928D01*
X153133271Y-120483928D02*
X153180890Y-120579166D01*
X153180890Y-120579166D02*
X153228509Y-120626785D01*
X153228509Y-120626785D02*
X153323747Y-120674404D01*
X153323747Y-120674404D02*
X153561842Y-120674404D01*
X153561842Y-120674404D02*
X153657080Y-120626785D01*
X153657080Y-120626785D02*
X153704700Y-120579166D01*
X153704700Y-120579166D02*
X153752319Y-120483928D01*
X153752319Y-120483928D02*
X153752319Y-120198214D01*
X153752319Y-120198214D02*
X153704700Y-120102976D01*
X153704700Y-120102976D02*
X153657080Y-120055357D01*
X140751666Y-104604819D02*
X141084999Y-104128628D01*
X141323094Y-104604819D02*
X141323094Y-103604819D01*
X141323094Y-103604819D02*
X140942142Y-103604819D01*
X140942142Y-103604819D02*
X140846904Y-103652438D01*
X140846904Y-103652438D02*
X140799285Y-103700057D01*
X140799285Y-103700057D02*
X140751666Y-103795295D01*
X140751666Y-103795295D02*
X140751666Y-103938152D01*
X140751666Y-103938152D02*
X140799285Y-104033390D01*
X140799285Y-104033390D02*
X140846904Y-104081009D01*
X140846904Y-104081009D02*
X140942142Y-104128628D01*
X140942142Y-104128628D02*
X141323094Y-104128628D01*
X139846904Y-103604819D02*
X140323094Y-103604819D01*
X140323094Y-103604819D02*
X140370713Y-104081009D01*
X140370713Y-104081009D02*
X140323094Y-104033390D01*
X140323094Y-104033390D02*
X140227856Y-103985771D01*
X140227856Y-103985771D02*
X139989761Y-103985771D01*
X139989761Y-103985771D02*
X139894523Y-104033390D01*
X139894523Y-104033390D02*
X139846904Y-104081009D01*
X139846904Y-104081009D02*
X139799285Y-104176247D01*
X139799285Y-104176247D02*
X139799285Y-104414342D01*
X139799285Y-104414342D02*
X139846904Y-104509580D01*
X139846904Y-104509580D02*
X139894523Y-104557200D01*
X139894523Y-104557200D02*
X139989761Y-104604819D01*
X139989761Y-104604819D02*
X140227856Y-104604819D01*
X140227856Y-104604819D02*
X140323094Y-104557200D01*
X140323094Y-104557200D02*
X140370713Y-104509580D01*
X179352319Y-116761905D02*
X178352319Y-116761905D01*
X178352319Y-116761905D02*
X178352319Y-117000000D01*
X178352319Y-117000000D02*
X178399938Y-117142857D01*
X178399938Y-117142857D02*
X178495176Y-117238095D01*
X178495176Y-117238095D02*
X178590414Y-117285714D01*
X178590414Y-117285714D02*
X178780890Y-117333333D01*
X178780890Y-117333333D02*
X178923747Y-117333333D01*
X178923747Y-117333333D02*
X179114223Y-117285714D01*
X179114223Y-117285714D02*
X179209461Y-117238095D01*
X179209461Y-117238095D02*
X179304700Y-117142857D01*
X179304700Y-117142857D02*
X179352319Y-117000000D01*
X179352319Y-117000000D02*
X179352319Y-116761905D01*
X178352319Y-117666667D02*
X178352319Y-118333333D01*
X178352319Y-118333333D02*
X179352319Y-117904762D01*
X82519580Y-62633333D02*
X82567200Y-62585714D01*
X82567200Y-62585714D02*
X82614819Y-62442857D01*
X82614819Y-62442857D02*
X82614819Y-62347619D01*
X82614819Y-62347619D02*
X82567200Y-62204762D01*
X82567200Y-62204762D02*
X82471961Y-62109524D01*
X82471961Y-62109524D02*
X82376723Y-62061905D01*
X82376723Y-62061905D02*
X82186247Y-62014286D01*
X82186247Y-62014286D02*
X82043390Y-62014286D01*
X82043390Y-62014286D02*
X81852914Y-62061905D01*
X81852914Y-62061905D02*
X81757676Y-62109524D01*
X81757676Y-62109524D02*
X81662438Y-62204762D01*
X81662438Y-62204762D02*
X81614819Y-62347619D01*
X81614819Y-62347619D02*
X81614819Y-62442857D01*
X81614819Y-62442857D02*
X81662438Y-62585714D01*
X81662438Y-62585714D02*
X81710057Y-62633333D01*
X81614819Y-63538095D02*
X81614819Y-63061905D01*
X81614819Y-63061905D02*
X82091009Y-63014286D01*
X82091009Y-63014286D02*
X82043390Y-63061905D01*
X82043390Y-63061905D02*
X81995771Y-63157143D01*
X81995771Y-63157143D02*
X81995771Y-63395238D01*
X81995771Y-63395238D02*
X82043390Y-63490476D01*
X82043390Y-63490476D02*
X82091009Y-63538095D01*
X82091009Y-63538095D02*
X82186247Y-63585714D01*
X82186247Y-63585714D02*
X82424342Y-63585714D01*
X82424342Y-63585714D02*
X82519580Y-63538095D01*
X82519580Y-63538095D02*
X82567200Y-63490476D01*
X82567200Y-63490476D02*
X82614819Y-63395238D01*
X82614819Y-63395238D02*
X82614819Y-63157143D01*
X82614819Y-63157143D02*
X82567200Y-63061905D01*
X82567200Y-63061905D02*
X82519580Y-63014286D01*
X99976666Y-59539580D02*
X100024285Y-59587200D01*
X100024285Y-59587200D02*
X100167142Y-59634819D01*
X100167142Y-59634819D02*
X100262380Y-59634819D01*
X100262380Y-59634819D02*
X100405237Y-59587200D01*
X100405237Y-59587200D02*
X100500475Y-59491961D01*
X100500475Y-59491961D02*
X100548094Y-59396723D01*
X100548094Y-59396723D02*
X100595713Y-59206247D01*
X100595713Y-59206247D02*
X100595713Y-59063390D01*
X100595713Y-59063390D02*
X100548094Y-58872914D01*
X100548094Y-58872914D02*
X100500475Y-58777676D01*
X100500475Y-58777676D02*
X100405237Y-58682438D01*
X100405237Y-58682438D02*
X100262380Y-58634819D01*
X100262380Y-58634819D02*
X100167142Y-58634819D01*
X100167142Y-58634819D02*
X100024285Y-58682438D01*
X100024285Y-58682438D02*
X99976666Y-58730057D01*
X99024285Y-59634819D02*
X99595713Y-59634819D01*
X99309999Y-59634819D02*
X99309999Y-58634819D01*
X99309999Y-58634819D02*
X99405237Y-58777676D01*
X99405237Y-58777676D02*
X99500475Y-58872914D01*
X99500475Y-58872914D02*
X99595713Y-58920533D01*
D11*
%TO.C,R4*%
X140812064Y-104765000D02*
X140357936Y-104765000D01*
X140812064Y-106235000D02*
X140357936Y-106235000D01*
%TO.C,R23*%
X97075000Y-44360436D02*
X97075000Y-44814564D01*
X98545000Y-44360436D02*
X98545000Y-44814564D01*
%TO.C,R24*%
X94075000Y-44360436D02*
X94075000Y-44814564D01*
X95545000Y-44360436D02*
X95545000Y-44814564D01*
%TO.C,Q2*%
X153997500Y-105890000D02*
X154647500Y-105890000D01*
X153997500Y-109010000D02*
X154647500Y-109010000D01*
X155297500Y-105890000D02*
X154647500Y-105890000D01*
X155297500Y-109010000D02*
X154647500Y-109010000D01*
X155810000Y-105940000D02*
X155570000Y-105610000D01*
X156050000Y-105610000D01*
X155810000Y-105940000D01*
G36*
X155810000Y-105940000D02*
G01*
X155570000Y-105610000D01*
X156050000Y-105610000D01*
X155810000Y-105940000D01*
G37*
%TO.C,Q6*%
X124385000Y-112325000D02*
X124385000Y-110825000D01*
X126195000Y-112325000D02*
X124385000Y-112325000D01*
X132975000Y-112325000D02*
X134785000Y-112325000D01*
X134785000Y-112325000D02*
X134785000Y-110825000D01*
X133305000Y-115127500D02*
X132975000Y-114887500D01*
X133305000Y-114647500D01*
X133305000Y-115127500D01*
G36*
X133305000Y-115127500D02*
G01*
X132975000Y-114887500D01*
X133305000Y-114647500D01*
X133305000Y-115127500D01*
G37*
%TO.C,R8*%
X175812064Y-111827500D02*
X175357936Y-111827500D01*
X175812064Y-113297500D02*
X175357936Y-113297500D01*
%TO.C,U1*%
X108210000Y-81325000D02*
X108210000Y-82825000D01*
X109160000Y-81325000D02*
X108210000Y-81325000D01*
X117660000Y-81325000D02*
X118610000Y-81325000D01*
X118610000Y-81325000D02*
X118610000Y-82825000D01*
X109160000Y-78762500D02*
X108830000Y-79002500D01*
X108830000Y-78522500D01*
X109160000Y-78762500D01*
G36*
X109160000Y-78762500D02*
G01*
X108830000Y-79002500D01*
X108830000Y-78522500D01*
X109160000Y-78762500D01*
G37*
%TO.C,R3*%
X106270436Y-107765000D02*
X106724564Y-107765000D01*
X106270436Y-109235000D02*
X106724564Y-109235000D01*
%TO.C,R12*%
X147912500Y-119727064D02*
X147912500Y-119272936D01*
X149382500Y-119727064D02*
X149382500Y-119272936D01*
%TO.C,D12*%
X149122500Y-105890000D02*
X149772500Y-105890000D01*
X149122500Y-109010000D02*
X149772500Y-109010000D01*
X150422500Y-105890000D02*
X149772500Y-105890000D01*
X150422500Y-109010000D02*
X149772500Y-109010000D01*
X148850000Y-109290000D02*
X148370000Y-109290000D01*
X148610000Y-108960000D01*
X148850000Y-109290000D01*
G36*
X148850000Y-109290000D02*
G01*
X148370000Y-109290000D01*
X148610000Y-108960000D01*
X148850000Y-109290000D01*
G37*
%TO.C,R15*%
X154975000Y-102677064D02*
X154975000Y-102222936D01*
X156445000Y-102677064D02*
X156445000Y-102222936D01*
%TO.C,C2*%
X97550000Y-75554437D02*
X98614437Y-74490000D01*
X97550000Y-83010000D02*
X97550000Y-75554437D01*
X99300000Y-74250000D02*
X99300000Y-73250000D01*
X99800000Y-73750000D02*
X98800000Y-73750000D01*
X100300000Y-74490000D02*
X98614437Y-74490000D01*
X100300000Y-83010000D02*
X97550000Y-83010000D01*
X103320000Y-74490000D02*
X105005563Y-74490000D01*
X103320000Y-83010000D02*
X106070000Y-83010000D01*
X106070000Y-75554437D02*
X105005563Y-74490000D01*
X106070000Y-83010000D02*
X106070000Y-75554437D01*
%TO.C,C3*%
X99400000Y-59390000D02*
X99400000Y-65145563D01*
X99400000Y-65145563D02*
X100464437Y-66210000D01*
X101750000Y-59390000D02*
X99400000Y-59390000D01*
X101750000Y-66210000D02*
X100464437Y-66210000D01*
X103870000Y-59390000D02*
X106220000Y-59390000D01*
X103870000Y-66210000D02*
X105155563Y-66210000D01*
X104263750Y-66843750D02*
X105051250Y-66843750D01*
X104657500Y-66450000D02*
X104657500Y-67237500D01*
X106220000Y-59390000D02*
X106220000Y-65145563D01*
X106220000Y-65145563D02*
X105155563Y-66210000D01*
%TO.C,R11*%
X154420436Y-120765000D02*
X154874564Y-120765000D01*
X154420436Y-122235000D02*
X154874564Y-122235000D01*
%TO.C,L2*%
X83350000Y-61540000D02*
X83350000Y-57990000D01*
X83350000Y-67460000D02*
X83350000Y-71010000D01*
X96370000Y-57990000D02*
X83350000Y-57990000D01*
X96370000Y-61540000D02*
X96370000Y-57990000D01*
X96370000Y-67460000D02*
X96370000Y-71010000D01*
X96370000Y-71010000D02*
X83350000Y-71010000D01*
%TO.C,R2*%
X106270436Y-101765000D02*
X106724564Y-101765000D01*
X106270436Y-103235000D02*
X106724564Y-103235000D01*
%TO.C,D1*%
X105447500Y-110650000D02*
X108107500Y-110650000D01*
X105447500Y-112350000D02*
X108107500Y-112350000D01*
X108107500Y-112350000D02*
X108107500Y-110650000D01*
%TO.C,D21*%
X87150000Y-71650000D02*
X87150000Y-73350000D01*
X89810000Y-71650000D02*
X87150000Y-71650000D01*
X89810000Y-73350000D02*
X87150000Y-73350000D01*
%TO.C,D3*%
X138975000Y-110650000D02*
X138975000Y-112350000D01*
X141635000Y-110650000D02*
X138975000Y-110650000D01*
X141635000Y-112350000D02*
X138975000Y-112350000D01*
%TO.C,Q3*%
X105872500Y-113940000D02*
X106522500Y-113940000D01*
X105872500Y-117060000D02*
X106522500Y-117060000D01*
X107172500Y-113940000D02*
X106522500Y-113940000D01*
X107172500Y-117060000D02*
X106522500Y-117060000D01*
X107685000Y-113990000D02*
X107445000Y-113660000D01*
X107925000Y-113660000D01*
X107685000Y-113990000D01*
G36*
X107685000Y-113990000D02*
G01*
X107445000Y-113660000D01*
X107925000Y-113660000D01*
X107685000Y-113990000D01*
G37*
%TO.C,R1*%
X106270436Y-104765000D02*
X106724564Y-104765000D01*
X106270436Y-106235000D02*
X106724564Y-106235000D01*
%TO.C,R6*%
X140445436Y-107765000D02*
X140899564Y-107765000D01*
X140445436Y-109235000D02*
X140899564Y-109235000D01*
%TO.C,R14*%
X149849564Y-101715000D02*
X149395436Y-101715000D01*
X149849564Y-103185000D02*
X149395436Y-103185000D01*
%TO.C,L1*%
X107250000Y-61540000D02*
X107250000Y-57990000D01*
X107250000Y-67460000D02*
X107250000Y-71010000D01*
X120270000Y-57990000D02*
X107250000Y-57990000D01*
X120270000Y-61540000D02*
X120270000Y-57990000D01*
X120270000Y-67460000D02*
X120270000Y-71010000D01*
X120270000Y-71010000D02*
X107250000Y-71010000D01*
%TO.C,U2*%
X84210000Y-81325000D02*
X84210000Y-82825000D01*
X85160000Y-81325000D02*
X84210000Y-81325000D01*
X93660000Y-81325000D02*
X94610000Y-81325000D01*
X94610000Y-81325000D02*
X94610000Y-82825000D01*
X85160000Y-78762500D02*
X84830000Y-79002500D01*
X84830000Y-78522500D01*
X85160000Y-78762500D01*
G36*
X85160000Y-78762500D02*
G01*
X84830000Y-79002500D01*
X84830000Y-78522500D01*
X85160000Y-78762500D01*
G37*
%TO.C,R7*%
X165812064Y-111765000D02*
X165357936Y-111765000D01*
X165812064Y-113235000D02*
X165357936Y-113235000D01*
%TO.C,Q1*%
X148997500Y-112877500D02*
X149647500Y-112877500D01*
X148997500Y-115997500D02*
X149647500Y-115997500D01*
X150297500Y-112877500D02*
X149647500Y-112877500D01*
X150297500Y-115997500D02*
X149647500Y-115997500D01*
X150810000Y-112927500D02*
X150570000Y-112597500D01*
X151050000Y-112597500D01*
X150810000Y-112927500D01*
G36*
X150810000Y-112927500D02*
G01*
X150570000Y-112597500D01*
X151050000Y-112597500D01*
X150810000Y-112927500D01*
G37*
%TO.C,D6*%
X164025000Y-116787500D02*
X164025000Y-117437500D01*
X164025000Y-118087500D02*
X164025000Y-117437500D01*
X167145000Y-116787500D02*
X167145000Y-117437500D01*
X167145000Y-118087500D02*
X167145000Y-117437500D01*
X167425000Y-118840000D02*
X167095000Y-118600000D01*
X167425000Y-118360000D01*
X167425000Y-118840000D01*
G36*
X167425000Y-118840000D02*
G01*
X167095000Y-118600000D01*
X167425000Y-118360000D01*
X167425000Y-118840000D01*
G37*
%TO.C,R16*%
X151975000Y-102764564D02*
X151975000Y-102310436D01*
X153445000Y-102764564D02*
X153445000Y-102310436D01*
%TO.C,D10*%
X154060000Y-115990000D02*
X154710000Y-115990000D01*
X154060000Y-119110000D02*
X154710000Y-119110000D01*
X155360000Y-115990000D02*
X154710000Y-115990000D01*
X155360000Y-119110000D02*
X154710000Y-119110000D01*
X155872500Y-116040000D02*
X155632500Y-115710000D01*
X156112500Y-115710000D01*
X155872500Y-116040000D01*
G36*
X155872500Y-116040000D02*
G01*
X155632500Y-115710000D01*
X156112500Y-115710000D01*
X155872500Y-116040000D01*
G37*
%TO.C,R21*%
X113495436Y-51765000D02*
X113949564Y-51765000D01*
X113495436Y-53235000D02*
X113949564Y-53235000D01*
%TO.C,Q5*%
X139997500Y-113890000D02*
X140647500Y-113890000D01*
X139997500Y-117010000D02*
X140647500Y-117010000D01*
X141297500Y-113890000D02*
X140647500Y-113890000D01*
X141297500Y-117010000D02*
X140647500Y-117010000D01*
X141810000Y-113940000D02*
X141570000Y-113610000D01*
X142050000Y-113610000D01*
X141810000Y-113940000D01*
G36*
X141810000Y-113940000D02*
G01*
X141570000Y-113610000D01*
X142050000Y-113610000D01*
X141810000Y-113940000D01*
G37*
%TO.C,D20*%
X111150000Y-71650000D02*
X111150000Y-73350000D01*
X113810000Y-71650000D02*
X111150000Y-71650000D01*
X113810000Y-73350000D02*
X111150000Y-73350000D01*
%TO.C,Q4*%
X111385000Y-112825000D02*
X111385000Y-111325000D01*
X113195000Y-112825000D02*
X111385000Y-112825000D01*
X119975000Y-112825000D02*
X121785000Y-112825000D01*
X121785000Y-112825000D02*
X121785000Y-111325000D01*
X120305000Y-115627500D02*
X119975000Y-115387500D01*
X120305000Y-115147500D01*
X120305000Y-115627500D01*
G36*
X120305000Y-115627500D02*
G01*
X119975000Y-115387500D01*
X120305000Y-115147500D01*
X120305000Y-115627500D01*
G37*
%TO.C,D5*%
X81150000Y-104650000D02*
X81150000Y-106350000D01*
X83810000Y-104650000D02*
X81150000Y-104650000D01*
X83810000Y-106350000D02*
X81150000Y-106350000D01*
%TO.C,C4*%
X73550000Y-81304437D02*
X74614437Y-80240000D01*
X73550000Y-88760000D02*
X73550000Y-81304437D01*
X75300000Y-80000000D02*
X75300000Y-79000000D01*
X75800000Y-79500000D02*
X74800000Y-79500000D01*
X76300000Y-80240000D02*
X74614437Y-80240000D01*
X76300000Y-88760000D02*
X73550000Y-88760000D01*
X79320000Y-80240000D02*
X81005563Y-80240000D01*
X79320000Y-88760000D02*
X82070000Y-88760000D01*
X82070000Y-81304437D02*
X81005563Y-80240000D01*
X82070000Y-88760000D02*
X82070000Y-81304437D01*
%TO.C,R13*%
X150912500Y-119185436D02*
X150912500Y-119639564D01*
X152382500Y-119185436D02*
X152382500Y-119639564D01*
%TO.C,R5*%
X140812064Y-101765000D02*
X140357936Y-101765000D01*
X140812064Y-103235000D02*
X140357936Y-103235000D01*
%TO.C,D7*%
X174937500Y-116850000D02*
X174937500Y-117500000D01*
X174937500Y-118150000D02*
X174937500Y-117500000D01*
X178057500Y-116850000D02*
X178057500Y-117500000D01*
X178057500Y-118150000D02*
X178057500Y-117500000D01*
X178337500Y-118902500D02*
X178007500Y-118662500D01*
X178337500Y-118422500D01*
X178337500Y-118902500D01*
G36*
X178337500Y-118902500D02*
G01*
X178007500Y-118662500D01*
X178337500Y-118422500D01*
X178337500Y-118902500D01*
G37*
%TO.C,C5*%
X74400000Y-59390000D02*
X74400000Y-65145563D01*
X74400000Y-65145563D02*
X75464437Y-66210000D01*
X76750000Y-59390000D02*
X74400000Y-59390000D01*
X76750000Y-66210000D02*
X75464437Y-66210000D01*
X78870000Y-59390000D02*
X81220000Y-59390000D01*
X78870000Y-66210000D02*
X80155563Y-66210000D01*
X79263750Y-66843750D02*
X80051250Y-66843750D01*
X79657500Y-66450000D02*
X79657500Y-67237500D01*
X81220000Y-59390000D02*
X81220000Y-65145563D01*
X81220000Y-65145563D02*
X80155563Y-66210000D01*
%TO.C,C1*%
X100071252Y-56765000D02*
X99548748Y-56765000D01*
X100071252Y-58235000D02*
X99548748Y-58235000D01*
%TD*%
M02*
