M48
; DRILL file {KiCad 8.0.3} date 2024-07-14T07:23:45+0000
; FORMAT={-:-/ absolute / metric / decimal}
; #@! TF.CreationDate,2024-07-14T07:23:45+00:00
; #@! TF.GenerationSoftware,Kicad,Pcbnew,8.0.3
; #@! TF.FileFunction,Plated,1,2,PTH
FMAT,2
METRIC
; #@! TA.AperFunction,Plated,PTH,ViaDrill
T1C0.300
; #@! TA.AperFunction,Plated,PTH,ComponentDrill
T2C1.000
; #@! TA.AperFunction,Plated,PTH,ComponentDrill
T3C1.020
; #@! TA.AperFunction,Plated,PTH,ComponentDrill
T4C1.200
; #@! TA.AperFunction,Plated,PTH,ComponentDrill
T5C1.300
; #@! TA.AperFunction,Plated,PTH,ComponentDrill
T6C2.000
%
G90
G05
T1
X96.954Y-88.26
X96.994Y-94.048
X99.539Y-105.836
X104.088Y-100.626
X104.396Y-76.007
X104.645Y-105.39
X106.053Y-117.987
X112.478Y-69.15
X137.88Y-114.245
X138.088Y-107.78
X139.912Y-104.234
X140.933Y-119.172
X141.444Y-99.942
X142.774Y-115.602
X143.76Y-106.009
X148.443Y-112.19
X150.656Y-58.727
X157.042Y-108.325
X157.897Y-107.887
T2
X79.95Y-101.45
X91.95Y-101.45
X125.0Y-73.3
X125.0Y-75.84
X125.0Y-78.38
X125.0Y-80.92
X125.0Y-83.46
X125.0Y-86.0
X125.0Y-88.54
X125.0Y-91.08
X178.19Y-51.5
X180.73Y-51.5
X183.27Y-51.5
X185.81Y-51.5
T3
X133.6Y-50.575
X133.6Y-53.115
X133.6Y-55.655
X133.6Y-58.195
X133.6Y-60.735
X133.6Y-63.275
X133.6Y-65.815
X133.6Y-68.355
X133.6Y-70.895
X133.6Y-73.435
X133.6Y-75.975
X133.6Y-78.515
X133.6Y-81.055
X133.6Y-83.595
X133.6Y-86.135
X133.6Y-88.675
X133.6Y-91.215
X133.6Y-93.755
X133.6Y-96.295
X159.0Y-50.575
X159.0Y-53.115
X159.0Y-55.655
X159.0Y-58.195
X159.0Y-60.735
X159.0Y-63.275
X159.0Y-65.815
X159.0Y-68.355
X159.0Y-70.895
X159.0Y-73.435
X159.0Y-75.975
X159.0Y-78.515
X159.0Y-81.055
X159.0Y-83.595
X159.0Y-86.135
X159.0Y-88.675
X159.0Y-91.215
X159.0Y-93.755
X159.0Y-96.295
T4
X80.84Y-130.575
X81.078Y-50.357
X84.888Y-50.357
X85.92Y-130.575
X91.0Y-130.575
X106.0Y-130.575
X109.81Y-130.575
X113.62Y-130.575
X123.14Y-130.7
X126.95Y-130.7
X137.38Y-131.0
X141.19Y-131.0
X145.0Y-131.0
X155.38Y-131.0
X159.19Y-131.0
X163.0Y-131.0
X173.0Y-131.0
X176.81Y-131.0
X180.62Y-131.0
T5
X79.95Y-113.65
X86.0Y-99.5
X92.0Y-113.7
T6
X171.0Y-52.0
X171.0Y-74.0
X193.0Y-52.0
X193.0Y-74.0
M30
