M48
; DRILL file {KiCad 8.0.3} date 2024-07-13T16:10:25+0000
; FORMAT={-:-/ absolute / inch / decimal}
; #@! TF.CreationDate,2024-07-13T16:10:25+00:00
; #@! TF.GenerationSoftware,Kicad,Pcbnew,8.0.3
; #@! TF.FileFunction,Plated,1,2,PTH
FMAT,2
INCH
; #@! TA.AperFunction,Plated,PTH,ViaDrill
T1C0.0118
; #@! TA.AperFunction,Plated,PTH,ComponentDrill
T2C0.0394
; #@! TA.AperFunction,Plated,PTH,ComponentDrill
T3C0.0402
; #@! TA.AperFunction,Plated,PTH,ComponentDrill
T4C0.0472
; #@! TA.AperFunction,Plated,PTH,ComponentDrill
T5C0.0512
; #@! TA.AperFunction,Plated,PTH,ComponentDrill
T6C0.0787
%
G90
G05
T1
X3.0099Y-3.0201
X3.1232Y-2.9642
X3.836Y-2.1033
X3.8765Y-2.1043
X3.8935Y-2.1917
X4.2041Y-4.1022
X4.2356Y-4.7489
X4.2746Y-4.0367
X5.4225Y-4.0367
X5.4309Y-2.1769
X5.543Y-4.2156
X5.7037Y-4.7859
X5.7985Y-2.8619
X5.8465Y-4.4628
X5.9373Y-4.2703
X5.9646Y-3.9852
X6.0467Y-4.66
X6.1315Y-4.6328
X6.4493Y-4.6327
X6.7536Y-3.6916
T2
X4.7957Y-3.0118
X4.7957Y-3.1118
X4.7957Y-3.2118
X4.7957Y-3.3118
X4.7957Y-3.4118
X4.7957Y-3.5118
X4.7957Y-3.6118
X4.7957Y-3.7118
X7.0866Y-1.9685
X7.1866Y-1.9685
X7.2866Y-1.9685
X7.3866Y-1.9685
T3
X5.1343Y-1.9488
X5.1343Y-2.0488
X5.1343Y-2.1488
X5.1343Y-2.2488
X5.1343Y-2.3488
X5.1343Y-2.4488
X5.1343Y-2.5488
X5.1343Y-2.6488
X5.1343Y-2.7488
X5.1343Y-2.8488
X5.1343Y-2.9488
X5.1343Y-3.0488
X5.1343Y-3.1488
X5.1343Y-3.2488
X5.1343Y-3.3488
X5.1343Y-3.4488
X5.1343Y-3.5488
X5.1343Y-3.6488
X5.1343Y-3.7488
X6.1343Y-1.9488
X6.1343Y-2.0488
X6.1343Y-2.1488
X6.1343Y-2.2488
X6.1343Y-2.3488
X6.1343Y-2.4488
X6.1343Y-2.5488
X6.1343Y-2.6488
X6.1343Y-2.7488
X6.1343Y-2.8488
X6.1343Y-2.9488
X6.1343Y-3.0488
X6.1343Y-3.1488
X6.1343Y-3.2488
X6.1343Y-3.3488
X6.1343Y-3.4488
X6.1343Y-3.5488
X6.1343Y-3.6488
X6.1343Y-3.7488
T4
X3.0571Y-5.0984
X3.189Y-2.0669
X3.2571Y-5.0984
X3.339Y-2.0669
X3.4571Y-5.0984
X4.2356Y-5.0984
X4.3856Y-5.0984
X4.5356Y-5.0984
X4.9104Y-5.1033
X5.0604Y-5.1033
X5.5817Y-5.0984
X5.7317Y-5.0984
X5.8817Y-5.0984
X6.3372Y-5.0984
X6.4872Y-5.0984
X6.6372Y-5.0984
X7.0065Y-5.0984
X7.1565Y-5.0984
X7.3065Y-5.0984
T5
X3.024Y-3.9961
X3.024Y-4.4764
X3.2602Y-3.9173
X3.4965Y-3.9961
X3.4965Y-4.4764
T6
X6.8035Y-1.9882
X6.8035Y-2.8543
X7.6697Y-1.9882
X7.6697Y-2.8543
M30
