%TF.GenerationSoftware,KiCad,Pcbnew,8.0.3*%
%TF.CreationDate,2024-07-13T16:10:20+00:00*%
%TF.ProjectId,jacuzzi,6a616375-7a7a-4692-9e6b-696361645f70,rev?*%
%TF.SameCoordinates,Original*%
%TF.FileFunction,Soldermask,Bot*%
%TF.FilePolarity,Negative*%
%FSLAX46Y46*%
G04 Gerber Fmt 4.6, Leading zero omitted, Abs format (unit mm)*
G04 Created by KiCad (PCBNEW 8.0.3) date 2024-07-13 16:10:20*
%MOMM*%
%LPD*%
G01*
G04 APERTURE LIST*
G04 Aperture macros list*
%AMRoundRect*
0 Rectangle with rounded corners*
0 $1 Rounding radius*
0 $2 $3 $4 $5 $6 $7 $8 $9 X,Y pos of 4 corners*
0 Add a 4 corners polygon primitive as box body*
4,1,4,$2,$3,$4,$5,$6,$7,$8,$9,$2,$3,0*
0 Add four circle primitives for the rounded corners*
1,1,$1+$1,$2,$3*
1,1,$1+$1,$4,$5*
1,1,$1+$1,$6,$7*
1,1,$1+$1,$8,$9*
0 Add four rect primitives between the rounded corners*
20,1,$1+$1,$2,$3,$4,$5,0*
20,1,$1+$1,$4,$5,$6,$7,0*
20,1,$1+$1,$6,$7,$8,$9,0*
20,1,$1+$1,$8,$9,$2,$3,0*%
G04 Aperture macros list end*
%ADD10R,2.500000X2.500000*%
%ADD11O,2.500000X2.500000*%
%ADD12RoundRect,0.250000X-0.650000X-1.550000X0.650000X-1.550000X0.650000X1.550000X-0.650000X1.550000X0*%
%ADD13O,1.800000X3.600000*%
%ADD14RoundRect,0.102000X-0.765000X-0.765000X0.765000X-0.765000X0.765000X0.765000X-0.765000X0.765000X0*%
%ADD15C,1.734000*%
%ADD16RoundRect,0.102000X-0.754000X-0.754000X0.754000X-0.754000X0.754000X0.754000X-0.754000X0.754000X0*%
%ADD17C,1.712000*%
%ADD18C,3.204000*%
%ADD19R,1.700000X1.700000*%
%ADD20O,1.700000X1.700000*%
%ADD21RoundRect,0.250000X-0.262500X-0.450000X0.262500X-0.450000X0.262500X0.450000X-0.262500X0.450000X0*%
%ADD22RoundRect,0.250000X0.450000X-0.262500X0.450000X0.262500X-0.450000X0.262500X-0.450000X-0.262500X0*%
%ADD23RoundRect,0.150000X0.587500X0.150000X-0.587500X0.150000X-0.587500X-0.150000X0.587500X-0.150000X0*%
%ADD24RoundRect,0.250000X0.300000X-2.050000X0.300000X2.050000X-0.300000X2.050000X-0.300000X-2.050000X0*%
%ADD25RoundRect,0.250002X5.149998X-4.449998X5.149998X4.449998X-5.149998X4.449998X-5.149998X-4.449998X0*%
%ADD26RoundRect,0.250000X-0.300000X2.050000X-0.300000X-2.050000X0.300000X-2.050000X0.300000X2.050000X0*%
%ADD27RoundRect,0.250002X-5.149998X4.449998X-5.149998X-4.449998X5.149998X-4.449998X5.149998X4.449998X0*%
%ADD28RoundRect,0.250000X0.262500X0.450000X-0.262500X0.450000X-0.262500X-0.450000X0.262500X-0.450000X0*%
%ADD29RoundRect,0.250000X-0.450000X0.262500X-0.450000X-0.262500X0.450000X-0.262500X0.450000X0.262500X0*%
%ADD30RoundRect,0.150000X-0.587500X-0.150000X0.587500X-0.150000X0.587500X0.150000X-0.587500X0.150000X0*%
%ADD31RoundRect,0.250000X-1.000000X1.500000X-1.000000X-1.500000X1.000000X-1.500000X1.000000X1.500000X0*%
%ADD32RoundRect,0.250000X0.550000X-1.500000X0.550000X1.500000X-0.550000X1.500000X-0.550000X-1.500000X0*%
%ADD33R,2.900000X5.400000*%
%ADD34RoundRect,0.112500X0.187500X0.112500X-0.187500X0.112500X-0.187500X-0.112500X0.187500X-0.112500X0*%
%ADD35RoundRect,0.112500X-0.187500X-0.112500X0.187500X-0.112500X0.187500X0.112500X-0.187500X0.112500X0*%
%ADD36RoundRect,0.150000X0.150000X-0.587500X0.150000X0.587500X-0.150000X0.587500X-0.150000X-0.587500X0*%
%ADD37RoundRect,0.250000X-0.250000X-0.475000X0.250000X-0.475000X0.250000X0.475000X-0.250000X0.475000X0*%
G04 APERTURE END LIST*
D10*
%TO.C,K1*%
X82810000Y-99500000D03*
D11*
X76810000Y-101500000D03*
X76810000Y-113700000D03*
X88810000Y-113700000D03*
X88810000Y-101500000D03*
%TD*%
D12*
%TO.C,J3*%
X77650000Y-129500000D03*
D13*
X82730000Y-129500000D03*
X87810000Y-129500000D03*
%TD*%
D14*
%TO.C,U3*%
X130410000Y-49500000D03*
D15*
X130410000Y-52040000D03*
X130410000Y-54580000D03*
X130410000Y-57120000D03*
X130410000Y-59660000D03*
X130410000Y-62200000D03*
X130410000Y-64740000D03*
X130410000Y-67280000D03*
X130410000Y-69820000D03*
X130410000Y-72360000D03*
X130410000Y-74900000D03*
X130410000Y-77440000D03*
X130410000Y-79980000D03*
X130410000Y-82520000D03*
X130410000Y-85060000D03*
X130410000Y-87600000D03*
X130410000Y-90140000D03*
X130410000Y-92680000D03*
X130410000Y-95220000D03*
X155810000Y-95220000D03*
X155810000Y-92680000D03*
X155810000Y-90140000D03*
X155810000Y-87600000D03*
X155810000Y-85060000D03*
X155810000Y-82520000D03*
X155810000Y-79980000D03*
X155810000Y-77440000D03*
X155810000Y-74900000D03*
X155810000Y-72360000D03*
X155810000Y-69820000D03*
X155810000Y-67280000D03*
X155810000Y-64740000D03*
X155810000Y-62200000D03*
X155810000Y-59660000D03*
X155810000Y-57120000D03*
X155810000Y-54580000D03*
X155810000Y-52040000D03*
X155810000Y-49500000D03*
%TD*%
D12*
%TO.C,J1*%
X107585000Y-129500000D03*
D13*
X111395000Y-129500000D03*
X115205000Y-129500000D03*
%TD*%
D12*
%TO.C,J5*%
X160965000Y-129500000D03*
D13*
X164775000Y-129500000D03*
X168585000Y-129500000D03*
%TD*%
D12*
%TO.C,J7*%
X124725000Y-129625000D03*
D13*
X128535000Y-129625000D03*
%TD*%
D16*
%TO.C,U4*%
X180000000Y-50000000D03*
D17*
X182540000Y-50000000D03*
X185080000Y-50000000D03*
X187620000Y-50000000D03*
D18*
X172810000Y-50500000D03*
X194810000Y-50500000D03*
X194810000Y-72500000D03*
X172810000Y-72500000D03*
%TD*%
D19*
%TO.C,J8*%
X121810000Y-76500000D03*
D20*
X121810000Y-79040000D03*
X121810000Y-81580000D03*
X121810000Y-84120000D03*
X121810000Y-86660000D03*
X121810000Y-89200000D03*
X121810000Y-91740000D03*
X121810000Y-94280000D03*
%TD*%
D12*
%TO.C,J6*%
X177965000Y-129500000D03*
D13*
X181775000Y-129500000D03*
X185585000Y-129500000D03*
%TD*%
D12*
%TO.C,J10*%
X81000000Y-52500000D03*
D13*
X84810000Y-52500000D03*
%TD*%
D12*
%TO.C,J2*%
X141775000Y-129500000D03*
D13*
X145585000Y-129500000D03*
X149395000Y-129500000D03*
%TD*%
D21*
%TO.C,R4*%
X139672500Y-105500000D03*
X141497500Y-105500000D03*
%TD*%
D22*
%TO.C,R23*%
X97810000Y-45500000D03*
X97810000Y-43675000D03*
%TD*%
%TO.C,R24*%
X94810000Y-45500000D03*
X94810000Y-43675000D03*
%TD*%
D23*
%TO.C,Q2*%
X155585000Y-106500000D03*
X155585000Y-108400000D03*
X153710000Y-107450000D03*
%TD*%
D24*
%TO.C,Q6*%
X132125000Y-115150000D03*
D25*
X129585000Y-106000000D03*
D24*
X127045000Y-115150000D03*
%TD*%
D21*
%TO.C,R8*%
X174672500Y-112562500D03*
X176497500Y-112562500D03*
%TD*%
D26*
%TO.C,U1*%
X110010000Y-78500000D03*
X111710000Y-78500000D03*
X113410000Y-78500000D03*
D27*
X113410000Y-87650000D03*
D26*
X115110000Y-78500000D03*
X116810000Y-78500000D03*
%TD*%
D28*
%TO.C,R3*%
X107410000Y-108500000D03*
X105585000Y-108500000D03*
%TD*%
D29*
%TO.C,R12*%
X148647500Y-118587500D03*
X148647500Y-120412500D03*
%TD*%
D30*
%TO.C,D12*%
X148835000Y-108400000D03*
X148835000Y-106500000D03*
X150710000Y-107450000D03*
%TD*%
D29*
%TO.C,R15*%
X155710000Y-101537500D03*
X155710000Y-103362500D03*
%TD*%
D31*
%TO.C,C2*%
X101810000Y-75500000D03*
X101810000Y-82000000D03*
%TD*%
D32*
%TO.C,C3*%
X102810000Y-65500000D03*
X102810000Y-60100000D03*
%TD*%
D28*
%TO.C,R11*%
X155560000Y-121500000D03*
X153735000Y-121500000D03*
%TD*%
D33*
%TO.C,L2*%
X84910000Y-64500000D03*
X94810000Y-64500000D03*
%TD*%
D28*
%TO.C,R2*%
X107410000Y-102500000D03*
X105585000Y-102500000D03*
%TD*%
D34*
%TO.C,D1*%
X107547500Y-111500000D03*
X105447500Y-111500000D03*
%TD*%
D35*
%TO.C,D21*%
X87710000Y-72500000D03*
X89810000Y-72500000D03*
%TD*%
%TO.C,D3*%
X139535000Y-111500000D03*
X141635000Y-111500000D03*
%TD*%
D23*
%TO.C,Q3*%
X107460000Y-114550000D03*
X107460000Y-116450000D03*
X105585000Y-115500000D03*
%TD*%
D28*
%TO.C,R1*%
X107410000Y-105500000D03*
X105585000Y-105500000D03*
%TD*%
%TO.C,R6*%
X141585000Y-108500000D03*
X139760000Y-108500000D03*
%TD*%
D21*
%TO.C,R14*%
X148710000Y-102450000D03*
X150535000Y-102450000D03*
%TD*%
D33*
%TO.C,L1*%
X108810000Y-64500000D03*
X118710000Y-64500000D03*
%TD*%
D26*
%TO.C,U2*%
X86010000Y-78500000D03*
X87710000Y-78500000D03*
X89410000Y-78500000D03*
D27*
X89410000Y-87650000D03*
D26*
X91110000Y-78500000D03*
X92810000Y-78500000D03*
%TD*%
D21*
%TO.C,R7*%
X164672500Y-112500000D03*
X166497500Y-112500000D03*
%TD*%
D23*
%TO.C,Q1*%
X150585000Y-113487500D03*
X150585000Y-115387500D03*
X148710000Y-114437500D03*
%TD*%
D36*
%TO.C,D6*%
X166535000Y-118375000D03*
X164635000Y-118375000D03*
X165585000Y-116500000D03*
%TD*%
D29*
%TO.C,R16*%
X152710000Y-101625000D03*
X152710000Y-103450000D03*
%TD*%
D23*
%TO.C,D10*%
X155647500Y-116600000D03*
X155647500Y-118500000D03*
X153772500Y-117550000D03*
%TD*%
D28*
%TO.C,R21*%
X114635000Y-52500000D03*
X112810000Y-52500000D03*
%TD*%
D23*
%TO.C,Q5*%
X141585000Y-114500000D03*
X141585000Y-116400000D03*
X139710000Y-115450000D03*
%TD*%
D35*
%TO.C,D20*%
X111710000Y-72500000D03*
X113810000Y-72500000D03*
%TD*%
D24*
%TO.C,Q4*%
X119125000Y-115650000D03*
D25*
X116585000Y-106500000D03*
D24*
X114045000Y-115650000D03*
%TD*%
D35*
%TO.C,D5*%
X81710000Y-105500000D03*
X83810000Y-105500000D03*
%TD*%
D31*
%TO.C,C4*%
X77810000Y-81250000D03*
X77810000Y-87750000D03*
%TD*%
D22*
%TO.C,R13*%
X151647500Y-120325000D03*
X151647500Y-118500000D03*
%TD*%
D21*
%TO.C,R5*%
X139672500Y-102500000D03*
X141497500Y-102500000D03*
%TD*%
D36*
%TO.C,D7*%
X177447500Y-118437500D03*
X175547500Y-118437500D03*
X176497500Y-116562500D03*
%TD*%
D32*
%TO.C,C5*%
X77810000Y-65500000D03*
X77810000Y-60100000D03*
%TD*%
D37*
%TO.C,C1*%
X98860000Y-57500000D03*
X100760000Y-57500000D03*
%TD*%
M02*
