%TF.GenerationSoftware,KiCad,Pcbnew,8.0.3*%
%TF.CreationDate,2024-07-13T16:10:19+00:00*%
%TF.ProjectId,jacuzzi,6a616375-7a7a-4692-9e6b-696361645f70,rev?*%
%TF.SameCoordinates,Original*%
%TF.FileFunction,Paste,Top*%
%TF.FilePolarity,Positive*%
%FSLAX46Y46*%
G04 Gerber Fmt 4.6, Leading zero omitted, Abs format (unit mm)*
G04 Created by KiCad (PCBNEW 8.0.3) date 2024-07-13 16:10:19*
%MOMM*%
%LPD*%
G01*
G04 APERTURE LIST*
G04 Aperture macros list*
%AMRoundRect*
0 Rectangle with rounded corners*
0 $1 Rounding radius*
0 $2 $3 $4 $5 $6 $7 $8 $9 X,Y pos of 4 corners*
0 Add a 4 corners polygon primitive as box body*
4,1,4,$2,$3,$4,$5,$6,$7,$8,$9,$2,$3,0*
0 Add four circle primitives for the rounded corners*
1,1,$1+$1,$2,$3*
1,1,$1+$1,$4,$5*
1,1,$1+$1,$6,$7*
1,1,$1+$1,$8,$9*
0 Add four rect primitives between the rounded corners*
20,1,$1+$1,$2,$3,$4,$5,0*
20,1,$1+$1,$4,$5,$6,$7,0*
20,1,$1+$1,$6,$7,$8,$9,0*
20,1,$1+$1,$8,$9,$2,$3,0*%
G04 Aperture macros list end*
%ADD10RoundRect,0.150000X0.587500X0.150000X-0.587500X0.150000X-0.587500X-0.150000X0.587500X-0.150000X0*%
%ADD11RoundRect,0.150000X-0.587500X-0.150000X0.587500X-0.150000X0.587500X0.150000X-0.587500X0.150000X0*%
%ADD12R,0.800000X1.300000*%
%ADD13R,1.000000X2.510000*%
%ADD14RoundRect,0.150000X0.150000X0.625000X-0.150000X0.625000X-0.150000X-0.625000X0.150000X-0.625000X0*%
%ADD15RoundRect,0.250000X0.350000X0.650000X-0.350000X0.650000X-0.350000X-0.650000X0.350000X-0.650000X0*%
%ADD16RoundRect,0.250000X-0.262500X-0.450000X0.262500X-0.450000X0.262500X0.450000X-0.262500X0.450000X0*%
%ADD17RoundRect,0.243750X0.456250X-0.243750X0.456250X0.243750X-0.456250X0.243750X-0.456250X-0.243750X0*%
%ADD18RoundRect,0.243750X-0.456250X0.243750X-0.456250X-0.243750X0.456250X-0.243750X0.456250X0.243750X0*%
%ADD19RoundRect,0.250000X0.262500X0.450000X-0.262500X0.450000X-0.262500X-0.450000X0.262500X-0.450000X0*%
%ADD20RoundRect,0.175000X0.175000X0.425000X-0.175000X0.425000X-0.175000X-0.425000X0.175000X-0.425000X0*%
%ADD21RoundRect,0.190000X-0.190000X-0.410000X0.190000X-0.410000X0.190000X0.410000X-0.190000X0.410000X0*%
%ADD22RoundRect,0.200000X-0.200000X-0.400000X0.200000X-0.400000X0.200000X0.400000X-0.200000X0.400000X0*%
%ADD23RoundRect,0.175000X-0.175000X-0.425000X0.175000X-0.425000X0.175000X0.425000X-0.175000X0.425000X0*%
%ADD24RoundRect,0.190000X0.190000X0.410000X-0.190000X0.410000X-0.190000X-0.410000X0.190000X-0.410000X0*%
%ADD25RoundRect,0.200000X0.200000X0.400000X-0.200000X0.400000X-0.200000X-0.400000X0.200000X-0.400000X0*%
%ADD26RoundRect,0.250000X0.650000X0.425000X-0.650000X0.425000X-0.650000X-0.425000X0.650000X-0.425000X0*%
%ADD27RoundRect,0.250000X0.650000X0.500000X-0.650000X0.500000X-0.650000X-0.500000X0.650000X-0.500000X0*%
G04 APERTURE END LIST*
D10*
%TO.C,D9*%
X146937500Y-55950000D03*
X146937500Y-54050000D03*
X145062500Y-55000000D03*
%TD*%
%TO.C,D19*%
X140810000Y-92400000D03*
X140810000Y-90500000D03*
X138935000Y-91450000D03*
%TD*%
D11*
%TO.C,D8*%
X146935000Y-69550000D03*
X146935000Y-71450000D03*
X148810000Y-70500000D03*
%TD*%
D12*
%TO.C,J14*%
X180810000Y-92500000D03*
X181910000Y-92500000D03*
X183010000Y-92500000D03*
X184110000Y-92500000D03*
X185210000Y-92500000D03*
X186310000Y-92500000D03*
X187410000Y-92500000D03*
X188510000Y-92500000D03*
X180810000Y-90900000D03*
X181910000Y-90900000D03*
X183010000Y-90900000D03*
X184110000Y-90900000D03*
X185210000Y-90900000D03*
X186310000Y-90900000D03*
X187410000Y-90900000D03*
X188510000Y-90900000D03*
X180810000Y-89300000D03*
X181910000Y-89300000D03*
X183010000Y-89300000D03*
X184110000Y-89300000D03*
X185210000Y-89300000D03*
X186310000Y-89300000D03*
X187410000Y-89300000D03*
X188510000Y-89300000D03*
X180810000Y-87700000D03*
X181910000Y-87700000D03*
X183010000Y-87700000D03*
X184110000Y-87700000D03*
X185210000Y-87700000D03*
X186310000Y-87700000D03*
X187410000Y-87700000D03*
X188510000Y-87700000D03*
X180810000Y-86100000D03*
X181910000Y-86100000D03*
X183010000Y-86100000D03*
X184110000Y-86100000D03*
X185210000Y-86100000D03*
X186310000Y-86100000D03*
X187410000Y-86100000D03*
X188510000Y-86100000D03*
X180810000Y-81670000D03*
X181910000Y-81670000D03*
X183010000Y-81670000D03*
X184110000Y-81670000D03*
X185210000Y-81670000D03*
X186310000Y-81670000D03*
X187410000Y-81670000D03*
X188510000Y-81670000D03*
%TD*%
D13*
%TO.C,J11*%
X75270000Y-75155000D03*
X77810000Y-71845000D03*
X80350000Y-75155000D03*
%TD*%
D14*
%TO.C,J4*%
X140500000Y-54000000D03*
X139500000Y-54000000D03*
X138500000Y-54000000D03*
X137500000Y-54000000D03*
D15*
X141800000Y-50125000D03*
X136200000Y-50125000D03*
%TD*%
D11*
%TO.C,D22*%
X146810000Y-77550000D03*
X146810000Y-79450000D03*
X148685000Y-78500000D03*
%TD*%
D16*
%TO.C,R9*%
X145087500Y-62000000D03*
X146912500Y-62000000D03*
%TD*%
D10*
%TO.C,D18*%
X140810000Y-88400000D03*
X140810000Y-86500000D03*
X138935000Y-87450000D03*
%TD*%
D12*
%TO.C,J15*%
X202710000Y-115000000D03*
X203810000Y-115000000D03*
X204910000Y-115000000D03*
X206010000Y-115000000D03*
X207110000Y-115000000D03*
X208210000Y-115000000D03*
X209310000Y-115000000D03*
X210410000Y-115000000D03*
X202710000Y-113400000D03*
X203810000Y-113400000D03*
X204910000Y-113400000D03*
X206010000Y-113400000D03*
X207110000Y-113400000D03*
X208210000Y-113400000D03*
X209310000Y-113400000D03*
X210410000Y-113400000D03*
X202710000Y-111800000D03*
X203810000Y-111800000D03*
X204910000Y-111800000D03*
X206010000Y-111800000D03*
X207110000Y-111800000D03*
X208210000Y-111800000D03*
X209310000Y-111800000D03*
X210410000Y-111800000D03*
X202710000Y-110200000D03*
X203810000Y-110200000D03*
X204910000Y-110200000D03*
X206010000Y-110200000D03*
X207110000Y-110200000D03*
X208210000Y-110200000D03*
X209310000Y-110200000D03*
X210410000Y-110200000D03*
X202710000Y-108600000D03*
X203810000Y-108600000D03*
X204910000Y-108600000D03*
X206010000Y-108600000D03*
X207110000Y-108600000D03*
X208210000Y-108600000D03*
X209310000Y-108600000D03*
X210410000Y-108600000D03*
X202710000Y-104170000D03*
X203810000Y-104170000D03*
X204910000Y-104170000D03*
X206010000Y-104170000D03*
X207110000Y-104170000D03*
X208210000Y-104170000D03*
X209310000Y-104170000D03*
X210410000Y-104170000D03*
%TD*%
D17*
%TO.C,D13*%
X128535000Y-122500000D03*
X128535000Y-120625000D03*
%TD*%
D16*
%TO.C,R10*%
X145087500Y-59000000D03*
X146912500Y-59000000D03*
%TD*%
D17*
%TO.C,D11*%
X124585000Y-122500000D03*
X124585000Y-120625000D03*
%TD*%
D12*
%TO.C,J16*%
X202810000Y-92500000D03*
X203910000Y-92500000D03*
X205010000Y-92500000D03*
X206110000Y-92500000D03*
X207210000Y-92500000D03*
X208310000Y-92500000D03*
X209410000Y-92500000D03*
X210510000Y-92500000D03*
X202810000Y-90900000D03*
X203910000Y-90900000D03*
X205010000Y-90900000D03*
X206110000Y-90900000D03*
X207210000Y-90900000D03*
X208310000Y-90900000D03*
X209410000Y-90900000D03*
X210510000Y-90900000D03*
X202810000Y-89300000D03*
X203910000Y-89300000D03*
X205010000Y-89300000D03*
X206110000Y-89300000D03*
X207210000Y-89300000D03*
X208310000Y-89300000D03*
X209410000Y-89300000D03*
X210510000Y-89300000D03*
X202810000Y-87700000D03*
X203910000Y-87700000D03*
X205010000Y-87700000D03*
X206110000Y-87700000D03*
X207210000Y-87700000D03*
X208310000Y-87700000D03*
X209410000Y-87700000D03*
X210510000Y-87700000D03*
X202810000Y-86100000D03*
X203910000Y-86100000D03*
X205010000Y-86100000D03*
X206110000Y-86100000D03*
X207210000Y-86100000D03*
X208310000Y-86100000D03*
X209410000Y-86100000D03*
X210510000Y-86100000D03*
X202810000Y-81670000D03*
X203910000Y-81670000D03*
X205010000Y-81670000D03*
X206110000Y-81670000D03*
X207210000Y-81670000D03*
X208310000Y-81670000D03*
X209410000Y-81670000D03*
X210510000Y-81670000D03*
%TD*%
D18*
%TO.C,D2*%
X107585000Y-121625000D03*
X107585000Y-123500000D03*
%TD*%
D10*
%TO.C,D15*%
X140810000Y-80450000D03*
X140810000Y-78550000D03*
X138935000Y-79500000D03*
%TD*%
%TO.C,D17*%
X140810000Y-84400000D03*
X140810000Y-82500000D03*
X138935000Y-83450000D03*
%TD*%
D12*
%TO.C,J13*%
X162110000Y-92330000D03*
X163210000Y-92330000D03*
X164310000Y-92330000D03*
X165410000Y-92330000D03*
X166510000Y-92330000D03*
X167610000Y-92330000D03*
X168710000Y-92330000D03*
X169810000Y-92330000D03*
X162110000Y-90730000D03*
X163210000Y-90730000D03*
X164310000Y-90730000D03*
X165410000Y-90730000D03*
X166510000Y-90730000D03*
X167610000Y-90730000D03*
X168710000Y-90730000D03*
X169810000Y-90730000D03*
X162110000Y-89130000D03*
X163210000Y-89130000D03*
X164310000Y-89130000D03*
X165410000Y-89130000D03*
X166510000Y-89130000D03*
X167610000Y-89130000D03*
X168710000Y-89130000D03*
X169810000Y-89130000D03*
X162110000Y-87530000D03*
X163210000Y-87530000D03*
X164310000Y-87530000D03*
X165410000Y-87530000D03*
X166510000Y-87530000D03*
X167610000Y-87530000D03*
X168710000Y-87530000D03*
X169810000Y-87530000D03*
X162110000Y-85930000D03*
X163210000Y-85930000D03*
X164310000Y-85930000D03*
X165410000Y-85930000D03*
X166510000Y-85930000D03*
X167610000Y-85930000D03*
X168710000Y-85930000D03*
X169810000Y-85930000D03*
X162110000Y-81500000D03*
X163210000Y-81500000D03*
X164310000Y-81500000D03*
X165410000Y-81500000D03*
X166510000Y-81500000D03*
X167610000Y-81500000D03*
X168710000Y-81500000D03*
X169810000Y-81500000D03*
%TD*%
D11*
%TO.C,D24*%
X146810000Y-73500000D03*
X146810000Y-75400000D03*
X148685000Y-74450000D03*
%TD*%
%TO.C,D25*%
X146810000Y-81450000D03*
X146810000Y-83350000D03*
X148685000Y-82400000D03*
%TD*%
D10*
%TO.C,D16*%
X140810000Y-76400000D03*
X140810000Y-74500000D03*
X138935000Y-75450000D03*
%TD*%
D19*
%TO.C,R27*%
X148635000Y-67500000D03*
X146810000Y-67500000D03*
%TD*%
D20*
%TO.C,J9*%
X98435000Y-54555000D03*
D21*
X96415000Y-54555000D03*
D22*
X95185000Y-54555000D03*
D23*
X97435000Y-54555000D03*
D24*
X99455000Y-54555000D03*
D25*
X100685000Y-54555000D03*
D26*
X103060000Y-54500000D03*
D27*
X103060000Y-50920000D03*
D26*
X92810000Y-54500000D03*
D27*
X92810000Y-50920000D03*
%TD*%
D11*
%TO.C,D23*%
X146935000Y-85450000D03*
X146935000Y-87350000D03*
X148810000Y-86400000D03*
%TD*%
D10*
%TO.C,D14*%
X140810000Y-72400000D03*
X140810000Y-70500000D03*
X138935000Y-71450000D03*
%TD*%
D11*
%TO.C,D26*%
X146935000Y-89450000D03*
X146935000Y-91350000D03*
X148810000Y-90400000D03*
%TD*%
D18*
%TO.C,D4*%
X111585000Y-121687500D03*
X111585000Y-123562500D03*
%TD*%
M02*
